<svg width="359" height="501" viewBox="0 0 359 501" fill="none" xmlns="http://www.w3.org/2000/svg">
<g filter="url(#filter0_bii_664_318)">
<rect width="359" height="501" rx="72" fill="white" fill-opacity="0.2"/>
<rect width="359" height="501" rx="72" fill="url(#paint0_radial_664_318)" fill-opacity="0.4"/>
<rect x="0.375" y="0.375" width="358.25" height="500.25" rx="71.625" stroke="white" stroke-width="0.75"/>
</g>
<path d="M80.496 253.416L73.536 258.456V251.448L81.696 245.448H87.792V279H80.496V253.416ZM103.433 279.72C101.705 279.72 99.8493 279.528 97.8653 279.144C95.9133 278.792 94.3773 278.28 93.2573 277.608V271.944C94.5373 272.712 96.0733 273.336 97.8653 273.816C99.6573 274.296 101.321 274.536 102.857 274.536C104.169 274.536 105.129 274.424 105.737 274.2C106.345 273.976 106.649 273.56 106.649 272.952C106.649 272.472 106.473 272.088 106.121 271.8C105.769 271.48 105.225 271.208 104.489 270.984C103.785 270.728 102.601 270.36 100.937 269.88C98.9853 269.304 97.4493 268.728 96.3293 268.152C95.2413 267.544 94.4093 266.792 93.8333 265.896C93.2893 265 93.0173 263.848 93.0173 262.44C93.0173 260.04 93.9613 258.248 95.8493 257.064C97.7693 255.848 100.361 255.24 103.625 255.24C105.225 255.24 106.873 255.416 108.569 255.768C110.297 256.088 111.625 256.52 112.553 257.064V262.584C111.625 261.976 110.409 261.48 108.905 261.096C107.433 260.712 105.993 260.52 104.585 260.52C103.273 260.52 102.249 260.648 101.513 260.904C100.809 261.16 100.457 261.64 100.457 262.344C100.457 262.952 100.793 263.416 101.465 263.736C102.169 264.056 103.465 264.456 105.353 264.936L106.313 265.176C108.329 265.72 109.897 266.328 111.017 267C112.137 267.64 112.921 268.424 113.369 269.352C113.849 270.248 114.089 271.384 114.089 272.76C114.089 274.872 113.177 276.568 111.353 277.848C109.529 279.096 106.889 279.72 103.433 279.72ZM128.31 279.72C125.622 279.72 123.574 278.984 122.166 277.512C120.79 276.008 120.102 273.928 120.102 271.272V261.192H116.742V255.96H120.102V249.048H127.35V255.96H132.774V261.192H127.35V270.312C127.35 271.656 127.606 272.632 128.118 273.24C128.63 273.816 129.542 274.104 130.854 274.104C131.91 274.104 132.918 273.848 133.878 273.336V278.76C132.406 279.4 130.55 279.72 128.31 279.72ZM156.405 245.448H170.517C174.325 245.448 177.365 246.456 179.637 248.472C181.909 250.456 183.045 253.224 183.045 256.776C183.045 260.424 181.909 263.224 179.637 265.176C177.397 267.128 174.357 268.104 170.517 268.104H163.701V279H156.405V245.448ZM169.461 262.008C173.589 262.008 175.653 260.264 175.653 256.776C175.653 254.824 175.093 253.464 173.973 252.696C172.885 251.928 171.381 251.544 169.461 251.544H163.701V262.008H169.461ZM187.605 243.528H194.853V279H187.605V243.528ZM209.679 279.72C206.863 279.72 204.559 279.016 202.767 277.608C201.007 276.168 200.127 274.216 200.127 271.752C200.127 269.192 200.975 267.208 202.671 265.8C204.367 264.36 206.767 263.64 209.871 263.64C211.247 263.64 212.559 263.784 213.807 264.072C215.055 264.36 216.159 264.76 217.119 265.272V264.696C217.119 263.256 216.607 262.2 215.583 261.528C214.559 260.856 212.991 260.52 210.879 260.52C208.063 260.52 205.471 261.048 203.103 262.104V256.824C204.127 256.376 205.455 256.008 207.087 255.72C208.719 255.4 210.351 255.24 211.983 255.24C216.143 255.24 219.247 256.104 221.295 257.832C223.343 259.528 224.367 261.912 224.367 264.984V279H217.551V276.888C215.599 278.776 212.975 279.72 209.679 279.72ZM211.647 274.92C212.831 274.92 213.903 274.696 214.863 274.248C215.823 273.8 216.575 273.176 217.119 272.376V270.072C215.487 268.984 213.695 268.44 211.743 268.44C210.399 268.44 209.359 268.728 208.623 269.304C207.919 269.848 207.567 270.664 207.567 271.752C207.567 272.776 207.919 273.56 208.623 274.104C209.327 274.648 210.335 274.92 211.647 274.92ZM242.099 279.72C237.939 279.72 234.627 278.664 232.163 276.552C229.699 274.408 228.467 271.4 228.467 267.528C228.467 263.656 229.699 260.648 232.163 258.504C234.659 256.328 237.987 255.24 242.147 255.24C245.923 255.24 248.931 255.944 251.171 257.352V263.064C250.147 262.328 248.947 261.784 247.571 261.432C246.227 261.08 244.803 260.904 243.299 260.904C241.059 260.904 239.267 261.448 237.923 262.536C236.579 263.624 235.907 265.288 235.907 267.528C235.907 269.768 236.563 271.432 237.875 272.52C239.219 273.576 241.011 274.104 243.251 274.104C246.355 274.104 249.091 273.352 251.459 271.848V277.512C249.091 278.984 245.971 279.72 242.099 279.72ZM269.938 279.72C265.522 279.72 262.05 278.664 259.522 276.552C256.994 274.408 255.73 271.416 255.73 267.576C255.73 263.768 256.85 260.76 259.09 258.552C261.362 256.344 264.594 255.24 268.786 255.24C271.538 255.24 273.874 255.752 275.794 256.776C277.714 257.8 279.17 259.224 280.162 261.048C281.154 262.84 281.65 264.872 281.65 267.144V270.072H262.642C263.154 273.016 265.906 274.488 270.898 274.488C272.37 274.488 273.89 274.36 275.458 274.104C277.026 273.848 278.386 273.496 279.538 273.048V278.136C278.418 278.616 276.978 279 275.218 279.288C273.458 279.576 271.698 279.72 269.938 279.72ZM274.786 265.368C274.69 263.832 274.114 262.648 273.058 261.816C272.002 260.952 270.546 260.52 268.69 260.52C266.866 260.52 265.426 260.952 264.37 261.816C263.314 262.68 262.738 263.864 262.642 265.368H274.786Z" fill="white"/>
<path d="M81.8256 322.224H88.5696C90.3616 322.224 91.7376 322.656 92.6976 323.52C93.6576 324.384 94.1376 325.648 94.1376 327.312C94.1376 328.544 93.8096 329.592 93.1536 330.456C92.4976 331.304 91.5696 331.88 90.3696 332.184L94.0656 339H91.5216L87.9456 332.376H84.2736V339H81.8256V322.224ZM88.1616 330.312C89.2336 330.312 90.0816 330.064 90.7056 329.568C91.3456 329.056 91.6656 328.304 91.6656 327.312C91.6656 326.224 91.3536 325.448 90.7296 324.984C90.1216 324.52 89.2656 324.288 88.1616 324.288H84.2736V330.312H88.1616ZM97.3788 327.48H99.7308V329.184C100.915 327.808 102.515 327.12 104.531 327.12C105.683 327.12 106.715 327.376 107.627 327.888C108.555 328.4 109.275 329.12 109.787 330.048C110.315 330.96 110.579 332.024 110.579 333.24C110.579 334.44 110.315 335.504 109.787 336.432C109.275 337.36 108.563 338.08 107.651 338.592C106.739 339.104 105.699 339.36 104.531 339.36C103.571 339.36 102.675 339.2 101.843 338.88C101.011 338.56 100.331 338.088 99.8028 337.464V344.256H97.3788V327.48ZM103.979 337.44C104.763 337.44 105.467 337.272 106.091 336.936C106.731 336.584 107.227 336.088 107.579 335.448C107.947 334.808 108.131 334.072 108.131 333.24C108.131 332.408 107.947 331.68 107.579 331.056C107.227 330.416 106.731 329.928 106.091 329.592C105.467 329.24 104.763 329.064 103.979 329.064C103.003 329.064 102.139 329.32 101.387 329.832C100.651 330.344 100.123 331.048 99.8028 331.944V334.536C100.075 335.416 100.595 336.12 101.363 336.648C102.131 337.176 103.003 337.44 103.979 337.44ZM114.471 339C114.151 339 113.879 338.896 113.655 338.688C113.447 338.464 113.343 338.192 113.343 337.872C113.343 337.552 113.447 337.28 113.655 337.056C113.879 336.832 114.151 336.72 114.471 336.72C114.791 336.72 115.063 336.832 115.287 337.056C115.511 337.28 115.623 337.552 115.623 337.872C115.623 338.192 115.511 338.464 115.287 338.688C115.063 338.896 114.791 339 114.471 339ZM131.479 324.864L127.855 327.48V325.152L131.815 322.224H133.927V339H131.479V324.864ZM144.158 339.36C142.718 339.36 141.47 339.008 140.414 338.304C139.374 337.6 138.574 336.592 138.014 335.28C137.454 333.968 137.174 332.416 137.174 330.624C137.174 328.832 137.446 327.28 137.99 325.968C138.55 324.64 139.35 323.624 140.39 322.92C141.446 322.216 142.702 321.864 144.158 321.864C145.614 321.864 146.862 322.216 147.902 322.92C148.958 323.624 149.758 324.64 150.302 325.968C150.862 327.28 151.142 328.832 151.142 330.624C151.142 332.416 150.862 333.968 150.302 335.28C149.742 336.592 148.934 337.6 147.878 338.304C146.838 339.008 145.598 339.36 144.158 339.36ZM144.158 337.2C145.582 337.2 146.694 336.616 147.494 335.448C148.31 334.264 148.718 332.664 148.718 330.648C148.718 328.632 148.318 327.032 147.518 325.848C146.718 324.664 145.598 324.072 144.158 324.072C142.718 324.072 141.598 324.664 140.798 325.848C139.998 327.032 139.598 328.632 139.598 330.648C139.598 332.664 139.998 334.264 140.798 335.448C141.614 336.616 142.734 337.2 144.158 337.2ZM155.027 339C154.707 339 154.435 338.896 154.211 338.688C154.003 338.464 153.899 338.192 153.899 337.872C153.899 337.552 154.003 337.28 154.211 337.056C154.435 336.832 154.707 336.72 155.027 336.72C155.347 336.72 155.619 336.832 155.843 337.056C156.067 337.28 156.179 337.552 156.179 337.872C156.179 338.192 156.067 338.464 155.843 338.688C155.619 338.896 155.347 339 155.027 339ZM165.912 339.36C164.472 339.36 163.224 339.008 162.168 338.304C161.128 337.6 160.328 336.592 159.768 335.28C159.208 333.968 158.928 332.416 158.928 330.624C158.928 328.832 159.2 327.28 159.744 325.968C160.304 324.64 161.104 323.624 162.144 322.92C163.2 322.216 164.456 321.864 165.912 321.864C167.368 321.864 168.616 322.216 169.656 322.92C170.712 323.624 171.512 324.64 172.056 325.968C172.616 327.28 172.896 328.832 172.896 330.624C172.896 332.416 172.616 333.968 172.056 335.28C171.496 336.592 170.688 337.6 169.632 338.304C168.592 339.008 167.352 339.36 165.912 339.36ZM165.912 337.2C167.336 337.2 168.448 336.616 169.248 335.448C170.064 334.264 170.472 332.664 170.472 330.648C170.472 328.632 170.072 327.032 169.272 325.848C168.472 324.664 167.352 324.072 165.912 324.072C164.472 324.072 163.352 324.664 162.552 325.848C161.752 327.032 161.352 328.632 161.352 330.648C161.352 332.664 161.752 334.264 162.552 335.448C163.368 336.616 164.488 337.2 165.912 337.2ZM182.637 339.36C181.197 339.36 179.949 339.008 178.893 338.304C177.853 337.6 177.053 336.592 176.493 335.28C175.933 333.968 175.653 332.416 175.653 330.624C175.653 328.832 175.925 327.28 176.469 325.968C177.029 324.64 177.829 323.624 178.869 322.92C179.925 322.216 181.181 321.864 182.637 321.864C184.093 321.864 185.341 322.216 186.381 322.92C187.437 323.624 188.237 324.64 188.781 325.968C189.341 327.28 189.621 328.832 189.621 330.624C189.621 332.416 189.341 333.968 188.781 335.28C188.221 336.592 187.413 337.6 186.357 338.304C185.317 339.008 184.077 339.36 182.637 339.36ZM182.637 337.2C184.061 337.2 185.173 336.616 185.973 335.448C186.789 334.264 187.197 332.664 187.197 330.648C187.197 328.632 186.797 327.032 185.997 325.848C185.197 324.664 184.077 324.072 182.637 324.072C181.197 324.072 180.077 324.664 179.277 325.848C178.477 327.032 178.077 328.632 178.077 330.648C178.077 332.664 178.477 334.264 179.277 335.448C180.093 336.616 181.213 337.2 182.637 337.2ZM199.362 339.36C197.922 339.36 196.674 339.008 195.618 338.304C194.578 337.6 193.778 336.592 193.218 335.28C192.658 333.968 192.378 332.416 192.378 330.624C192.378 328.832 192.65 327.28 193.194 325.968C193.754 324.64 194.554 323.624 195.594 322.92C196.65 322.216 197.906 321.864 199.362 321.864C200.818 321.864 202.066 322.216 203.106 322.92C204.162 323.624 204.962 324.64 205.506 325.968C206.066 327.28 206.346 328.832 206.346 330.624C206.346 332.416 206.066 333.968 205.506 335.28C204.946 336.592 204.138 337.6 203.082 338.304C202.042 339.008 200.802 339.36 199.362 339.36ZM199.362 337.2C200.786 337.2 201.898 336.616 202.698 335.448C203.514 334.264 203.922 332.664 203.922 330.648C203.922 328.632 203.522 327.032 202.722 325.848C201.922 324.664 200.802 324.072 199.362 324.072C197.922 324.072 196.802 324.664 196.002 325.848C195.202 327.032 194.802 328.632 194.802 330.648C194.802 332.664 195.202 334.264 196.002 335.448C196.818 336.616 197.938 337.2 199.362 337.2ZM210.231 339C209.911 339 209.639 338.896 209.415 338.688C209.207 338.464 209.103 338.192 209.103 337.872C209.103 337.552 209.207 337.28 209.415 337.056C209.639 336.832 209.911 336.72 210.231 336.72C210.551 336.72 210.823 336.832 211.047 337.056C211.271 337.28 211.383 337.552 211.383 337.872C211.383 338.192 211.271 338.464 211.047 338.688C210.823 338.896 210.551 339 210.231 339ZM221.117 339.36C219.677 339.36 218.429 339.008 217.373 338.304C216.333 337.6 215.533 336.592 214.973 335.28C214.413 333.968 214.133 332.416 214.133 330.624C214.133 328.832 214.405 327.28 214.949 325.968C215.509 324.64 216.309 323.624 217.349 322.92C218.405 322.216 219.661 321.864 221.117 321.864C222.573 321.864 223.821 322.216 224.861 322.92C225.917 323.624 226.717 324.64 227.261 325.968C227.821 327.28 228.101 328.832 228.101 330.624C228.101 332.416 227.821 333.968 227.261 335.28C226.701 336.592 225.893 337.6 224.837 338.304C223.797 339.008 222.557 339.36 221.117 339.36ZM221.117 337.2C222.541 337.2 223.653 336.616 224.453 335.448C225.269 334.264 225.677 332.664 225.677 330.648C225.677 328.632 225.277 327.032 224.477 325.848C223.677 324.664 222.557 324.072 221.117 324.072C219.677 324.072 218.557 324.664 217.757 325.848C216.957 327.032 216.557 328.632 216.557 330.648C216.557 332.664 216.957 334.264 217.757 335.448C218.573 336.616 219.693 337.2 221.117 337.2ZM237.842 339.36C236.402 339.36 235.154 339.008 234.098 338.304C233.058 337.6 232.258 336.592 231.698 335.28C231.138 333.968 230.858 332.416 230.858 330.624C230.858 328.832 231.13 327.28 231.674 325.968C232.234 324.64 233.034 323.624 234.074 322.92C235.13 322.216 236.386 321.864 237.842 321.864C239.298 321.864 240.546 322.216 241.586 322.92C242.642 323.624 243.442 324.64 243.986 325.968C244.546 327.28 244.826 328.832 244.826 330.624C244.826 332.416 244.546 333.968 243.986 335.28C243.426 336.592 242.618 337.6 241.562 338.304C240.522 339.008 239.282 339.36 237.842 339.36ZM237.842 337.2C239.266 337.2 240.378 336.616 241.178 335.448C241.994 334.264 242.402 332.664 242.402 330.648C242.402 328.632 242.002 327.032 241.202 325.848C240.402 324.664 239.282 324.072 237.842 324.072C236.402 324.072 235.282 324.664 234.482 325.848C233.682 327.032 233.282 328.632 233.282 330.648C233.282 332.664 233.682 334.264 234.482 335.448C235.298 336.616 236.418 337.2 237.842 337.2ZM254.567 339.36C253.127 339.36 251.879 339.008 250.823 338.304C249.783 337.6 248.983 336.592 248.423 335.28C247.863 333.968 247.583 332.416 247.583 330.624C247.583 328.832 247.855 327.28 248.399 325.968C248.959 324.64 249.759 323.624 250.799 322.92C251.855 322.216 253.111 321.864 254.567 321.864C256.023 321.864 257.271 322.216 258.311 322.92C259.367 323.624 260.167 324.64 260.711 325.968C261.271 327.28 261.551 328.832 261.551 330.624C261.551 332.416 261.271 333.968 260.711 335.28C260.151 336.592 259.343 337.6 258.287 338.304C257.247 339.008 256.007 339.36 254.567 339.36ZM254.567 337.2C255.991 337.2 257.103 336.616 257.903 335.448C258.719 334.264 259.127 332.664 259.127 330.648C259.127 328.632 258.727 327.032 257.927 325.848C257.127 324.664 256.007 324.072 254.567 324.072C253.127 324.072 252.007 324.664 251.207 325.848C250.407 327.032 250.007 328.632 250.007 330.648C250.007 332.664 250.407 334.264 251.207 335.448C252.023 336.616 253.143 337.2 254.567 337.2ZM264.682 337.728H267.226L264.946 342.552H262.738L264.682 337.728ZM269.994 330.864H277.65V332.856H269.994V330.864ZM104.337 366.224H106.785L112.761 379.304L118.737 366.224H121.185V383H118.809V371.072L113.361 383H112.161L106.689 371.072V383H104.337V366.224ZM131.242 383.36C129.114 383.36 127.442 382.832 126.226 381.776C125.026 380.704 124.426 379.2 124.426 377.264C124.426 375.376 124.962 373.88 126.034 372.776C127.122 371.672 128.666 371.12 130.666 371.12C131.994 371.12 133.122 371.376 134.05 371.888C134.978 372.384 135.674 373.08 136.138 373.976C136.618 374.856 136.858 375.864 136.858 377V378.2H126.73C126.81 379.288 127.266 380.104 128.098 380.648C128.946 381.176 130.09 381.44 131.53 381.44C132.266 381.44 133.01 381.376 133.762 381.248C134.514 381.104 135.178 380.92 135.754 380.696V382.64C135.242 382.848 134.562 383.016 133.714 383.144C132.882 383.288 132.058 383.36 131.242 383.36ZM134.578 376.496C134.546 375.408 134.186 374.568 133.498 373.976C132.826 373.368 131.866 373.064 130.618 373.064C129.402 373.064 128.458 373.376 127.786 374C127.114 374.624 126.762 375.456 126.73 376.496H134.578ZM140.108 371.48H142.46V373.544C142.94 372.84 143.612 372.32 144.476 371.984C145.356 371.648 146.372 371.48 147.524 371.48V373.376C146.292 373.376 145.236 373.576 144.356 373.976C143.476 374.376 142.868 375.008 142.532 375.872V383H140.108V371.48ZM156.248 383.36C154.968 383.36 153.832 383.12 152.84 382.64C151.848 382.16 151.072 381.464 150.512 380.552C149.968 379.624 149.696 378.528 149.696 377.264C149.696 376 149.968 374.912 150.512 374C151.072 373.072 151.848 372.36 152.84 371.864C153.848 371.368 155 371.12 156.296 371.12C158.056 371.12 159.464 371.464 160.52 372.152V374.144C159.48 373.424 158.152 373.064 156.536 373.064C155.224 373.064 154.16 373.424 153.344 374.144C152.544 374.848 152.144 375.888 152.144 377.264C152.144 378.64 152.544 379.68 153.344 380.384C154.144 381.088 155.192 381.44 156.488 381.44C158.104 381.44 159.496 381.056 160.664 380.288V382.256C160.104 382.64 159.464 382.92 158.744 383.096C158.04 383.272 157.208 383.36 156.248 383.36ZM163.901 365.264H166.325V373.064C167.429 371.768 168.901 371.12 170.741 371.12C172.277 371.12 173.421 371.528 174.173 372.344C174.925 373.16 175.301 374.256 175.301 375.632V383H172.877V375.872C172.877 374 171.981 373.064 170.189 373.064C169.421 373.064 168.701 373.248 168.029 373.616C167.373 373.968 166.805 374.512 166.325 375.248V383H163.901V365.264ZM182.668 383.36C181.276 383.36 180.156 383.008 179.308 382.304C178.476 381.584 178.06 380.616 178.06 379.4C178.06 378.12 178.46 377.136 179.26 376.448C180.076 375.744 181.228 375.392 182.716 375.392C184.3 375.392 185.644 375.712 186.748 376.352V375.752C186.748 374.84 186.468 374.168 185.908 373.736C185.364 373.288 184.5 373.064 183.316 373.064C182.612 373.064 181.924 373.136 181.252 373.28C180.596 373.408 180.004 373.592 179.476 373.832V371.864C179.956 371.64 180.58 371.464 181.348 371.336C182.116 371.192 182.86 371.12 183.58 371.12C185.484 371.12 186.892 371.544 187.804 372.392C188.732 373.224 189.196 374.384 189.196 375.872V383H186.916V381.704C186.42 382.248 185.828 382.664 185.14 382.952C184.468 383.224 183.644 383.36 182.668 383.36ZM183.268 381.512C184.036 381.512 184.732 381.36 185.356 381.056C185.98 380.752 186.444 380.328 186.748 379.784V378.224C185.708 377.552 184.548 377.216 183.268 377.216C182.34 377.216 181.644 377.4 181.18 377.768C180.732 378.12 180.508 378.664 180.508 379.4C180.508 380.808 181.428 381.512 183.268 381.512ZM192.805 371.48H195.157V373.136C195.701 372.448 196.365 371.944 197.149 371.624C197.949 371.288 198.781 371.12 199.645 371.12C201.181 371.12 202.325 371.528 203.077 372.344C203.829 373.16 204.205 374.256 204.205 375.632V383H201.781V375.872C201.781 374 200.885 373.064 199.093 373.064C198.325 373.064 197.605 373.248 196.933 373.616C196.277 373.968 195.709 374.512 195.229 375.248V383H192.805V371.48ZM213.363 383.36C212.211 383.36 211.171 383.112 210.243 382.616C209.331 382.104 208.611 381.392 208.083 380.48C207.571 379.552 207.315 378.48 207.315 377.264C207.315 376.064 207.571 375 208.083 374.072C208.611 373.144 209.331 372.424 210.243 371.912C211.171 371.384 212.211 371.12 213.363 371.12C215.443 371.12 217.019 371.752 218.091 373.016V365.264H220.515V383H218.163V381.32C217.523 382.024 216.819 382.544 216.051 382.88C215.299 383.2 214.403 383.36 213.363 383.36ZM213.915 381.44C214.907 381.44 215.771 381.184 216.507 380.672C217.259 380.144 217.787 379.44 218.091 378.56V375.968C217.819 375.088 217.299 374.384 216.531 373.856C215.779 373.328 214.907 373.064 213.915 373.064C213.131 373.064 212.419 373.24 211.779 373.592C211.155 373.944 210.659 374.44 210.291 375.08C209.939 375.72 209.763 376.448 209.763 377.264C209.763 378.08 209.939 378.808 210.291 379.448C210.659 380.088 211.155 380.584 211.779 380.936C212.419 381.272 213.131 381.44 213.915 381.44ZM225.655 369.224C225.255 369.224 224.919 369.088 224.647 368.816C224.375 368.544 224.239 368.208 224.239 367.808C224.239 367.408 224.375 367.072 224.647 366.8C224.919 366.528 225.255 366.392 225.655 366.392C226.071 366.392 226.415 366.528 226.687 366.8C226.975 367.072 227.119 367.408 227.119 367.808C227.119 368.208 226.975 368.544 226.687 368.816C226.415 369.088 226.071 369.224 225.655 369.224ZM224.431 371.48H226.903V383H224.431V371.48ZM235.087 383.36C234.287 383.36 233.439 383.256 232.543 383.048C231.647 382.856 230.943 382.592 230.431 382.256V380.192C231.055 380.56 231.775 380.864 232.591 381.104C233.407 381.328 234.199 381.44 234.967 381.44C235.831 381.44 236.463 381.336 236.863 381.128C237.263 380.92 237.463 380.584 237.463 380.12C237.463 379.768 237.367 379.488 237.175 379.28C236.999 379.056 236.687 378.856 236.239 378.68C235.807 378.504 235.151 378.296 234.271 378.056C233.327 377.784 232.575 377.512 232.015 377.24C231.471 376.952 231.055 376.592 230.767 376.16C230.495 375.728 230.359 375.168 230.359 374.48C230.359 373.376 230.791 372.544 231.655 371.984C232.535 371.408 233.711 371.12 235.183 371.12C235.951 371.12 236.703 371.192 237.439 371.336C238.175 371.48 238.767 371.68 239.215 371.936V373.952C238.751 373.68 238.175 373.464 237.487 373.304C236.815 373.144 236.127 373.064 235.423 373.064C234.575 373.064 233.927 373.168 233.479 373.376C233.031 373.584 232.807 373.952 232.807 374.48C232.807 374.816 232.903 375.088 233.095 375.296C233.287 375.504 233.591 375.688 234.007 375.848C234.439 375.992 235.119 376.184 236.047 376.424C237.503 376.824 238.511 377.296 239.071 377.84C239.647 378.384 239.935 379.136 239.935 380.096C239.935 381.088 239.527 381.88 238.711 382.472C237.895 383.064 236.687 383.36 235.087 383.36ZM249.517 383.36C247.389 383.36 245.717 382.832 244.501 381.776C243.301 380.704 242.701 379.2 242.701 377.264C242.701 375.376 243.237 373.88 244.309 372.776C245.397 371.672 246.941 371.12 248.941 371.12C250.269 371.12 251.397 371.376 252.325 371.888C253.253 372.384 253.949 373.08 254.413 373.976C254.893 374.856 255.133 375.864 255.133 377V378.2H245.005C245.085 379.288 245.541 380.104 246.373 380.648C247.221 381.176 248.365 381.44 249.805 381.44C250.541 381.44 251.285 381.376 252.037 381.248C252.789 381.104 253.453 380.92 254.029 380.696V382.64C253.517 382.848 252.837 383.016 251.989 383.144C251.157 383.288 250.333 383.36 249.517 383.36ZM252.853 376.496C252.821 375.408 252.461 374.568 251.773 373.976C251.101 373.368 250.141 373.064 248.893 373.064C247.677 373.064 246.733 373.376 246.061 374C245.389 374.624 245.037 375.456 245.005 376.496H252.853ZM126.678 427.36C124.95 427.36 123.414 427 122.07 426.28C120.726 425.56 119.678 424.544 118.926 423.232C118.174 421.904 117.798 420.368 117.798 418.624C117.798 416.88 118.174 415.344 118.926 414.016C119.678 412.688 120.726 411.664 122.07 410.944C123.414 410.224 124.95 409.864 126.678 409.864C128.982 409.864 130.91 410.448 132.462 411.616V413.968C131.07 412.736 129.214 412.12 126.894 412.12C125.598 412.12 124.446 412.384 123.438 412.912C122.446 413.44 121.67 414.2 121.11 415.192C120.55 416.168 120.27 417.312 120.27 418.624C120.27 419.936 120.55 421.088 121.11 422.08C121.686 423.072 122.47 423.832 123.462 424.36C124.47 424.888 125.614 425.152 126.894 425.152C128.078 425.152 129.134 425 130.062 424.696C131.006 424.376 131.878 423.872 132.678 423.184V425.56C131.238 426.76 129.238 427.36 126.678 427.36ZM142.253 427.36C140.125 427.36 138.453 426.832 137.237 425.776C136.037 424.704 135.437 423.2 135.437 421.264C135.437 419.376 135.973 417.88 137.045 416.776C138.133 415.672 139.677 415.12 141.677 415.12C143.005 415.12 144.133 415.376 145.061 415.888C145.989 416.384 146.685 417.08 147.149 417.976C147.629 418.856 147.869 419.864 147.869 421V422.2H137.741C137.821 423.288 138.277 424.104 139.109 424.648C139.957 425.176 141.101 425.44 142.541 425.44C143.277 425.44 144.021 425.376 144.773 425.248C145.525 425.104 146.189 424.92 146.765 424.696V426.64C146.253 426.848 145.573 427.016 144.725 427.144C143.893 427.288 143.069 427.36 142.253 427.36ZM145.589 420.496C145.557 419.408 145.197 418.568 144.509 417.976C143.837 417.368 142.877 417.064 141.629 417.064C140.413 417.064 139.469 417.376 138.797 418C138.125 418.624 137.773 419.456 137.741 420.496H145.589ZM151.119 415.48H153.471V417.544C153.951 416.84 154.623 416.32 155.487 415.984C156.367 415.648 157.383 415.48 158.535 415.48V417.376C157.303 417.376 156.247 417.576 155.367 417.976C154.487 418.376 153.879 419.008 153.543 419.872V427H151.119V415.48ZM165.745 427.36C164.577 427.36 163.673 427.024 163.033 426.352C162.409 425.68 162.097 424.728 162.097 423.496V417.352H160.345V415.48H162.097V412.024H164.545V415.48H167.377V417.352H164.545V423.328C164.545 424.096 164.689 424.64 164.977 424.96C165.281 425.28 165.825 425.44 166.609 425.44C167.073 425.44 167.537 425.336 168.001 425.128V427.048C167.393 427.256 166.641 427.36 165.745 427.36ZM172.297 413.224C171.897 413.224 171.561 413.088 171.289 412.816C171.017 412.544 170.881 412.208 170.881 411.808C170.881 411.408 171.017 411.072 171.289 410.8C171.561 410.528 171.897 410.392 172.297 410.392C172.713 410.392 173.057 410.528 173.329 410.8C173.617 411.072 173.761 411.408 173.761 411.808C173.761 412.208 173.617 412.544 173.329 412.816C173.057 413.088 172.713 413.224 172.297 413.224ZM171.073 415.48H173.545V427H171.073V415.48ZM178.273 417.352H176.521V415.48H178.273V413.296C178.273 411.968 178.697 410.944 179.545 410.224C180.393 409.504 181.449 409.144 182.713 409.144C183.353 409.144 183.977 409.24 184.585 409.432V411.4C184.137 411.224 183.673 411.136 183.193 411.136C182.377 411.136 181.753 411.336 181.321 411.736C180.905 412.12 180.697 412.688 180.697 413.44V415.48H188.473V427H186.049V417.352H180.697V427H178.273V417.352ZM187.249 413.224C186.833 413.224 186.489 413.088 186.217 412.816C185.945 412.544 185.809 412.208 185.809 411.808C185.809 411.408 185.945 411.072 186.217 410.8C186.505 410.528 186.849 410.392 187.249 410.392C187.649 410.392 187.985 410.528 188.257 410.8C188.545 411.072 188.689 411.408 188.689 411.808C188.689 412.208 188.545 412.544 188.257 412.816C187.985 413.088 187.649 413.224 187.249 413.224ZM198.473 427.36C197.193 427.36 196.057 427.12 195.065 426.64C194.073 426.16 193.297 425.464 192.737 424.552C192.193 423.624 191.921 422.528 191.921 421.264C191.921 420 192.193 418.912 192.737 418C193.297 417.072 194.073 416.36 195.065 415.864C196.073 415.368 197.225 415.12 198.521 415.12C200.281 415.12 201.689 415.464 202.745 416.152V418.144C201.705 417.424 200.377 417.064 198.761 417.064C197.449 417.064 196.385 417.424 195.569 418.144C194.769 418.848 194.369 419.888 194.369 421.264C194.369 422.64 194.769 423.68 195.569 424.384C196.369 425.088 197.417 425.44 198.713 425.44C200.329 425.44 201.721 425.056 202.889 424.288V426.256C202.329 426.64 201.689 426.92 200.969 427.096C200.265 427.272 199.433 427.36 198.473 427.36ZM210.137 427.36C208.745 427.36 207.625 427.008 206.777 426.304C205.945 425.584 205.529 424.616 205.529 423.4C205.529 422.12 205.929 421.136 206.729 420.448C207.545 419.744 208.697 419.392 210.185 419.392C211.769 419.392 213.113 419.712 214.217 420.352V419.752C214.217 418.84 213.937 418.168 213.377 417.736C212.833 417.288 211.969 417.064 210.785 417.064C210.081 417.064 209.393 417.136 208.721 417.28C208.065 417.408 207.473 417.592 206.945 417.832V415.864C207.425 415.64 208.049 415.464 208.817 415.336C209.585 415.192 210.329 415.12 211.049 415.12C212.953 415.12 214.361 415.544 215.273 416.392C216.201 417.224 216.665 418.384 216.665 419.872V427H214.385V425.704C213.889 426.248 213.297 426.664 212.609 426.952C211.937 427.224 211.113 427.36 210.137 427.36ZM210.737 425.512C211.505 425.512 212.201 425.36 212.825 425.056C213.449 424.752 213.913 424.328 214.217 423.784V422.224C213.177 421.552 212.017 421.216 210.737 421.216C209.809 421.216 209.113 421.4 208.649 421.768C208.201 422.12 207.977 422.664 207.977 423.4C207.977 424.808 208.897 425.512 210.737 425.512ZM224.104 427.36C222.936 427.36 222.032 427.024 221.392 426.352C220.768 425.68 220.456 424.728 220.456 423.496V417.352H218.704V415.48H220.456V412.024H222.904V415.48H225.736V417.352H222.904V423.328C222.904 424.096 223.048 424.64 223.336 424.96C223.64 425.28 224.184 425.44 224.968 425.44C225.432 425.44 225.896 425.336 226.36 425.128V427.048C225.752 427.256 225 427.36 224.104 427.36ZM235.576 427.36C233.448 427.36 231.776 426.832 230.56 425.776C229.36 424.704 228.76 423.2 228.76 421.264C228.76 419.376 229.296 417.88 230.368 416.776C231.456 415.672 233 415.12 235 415.12C236.328 415.12 237.456 415.376 238.384 415.888C239.312 416.384 240.008 417.08 240.472 417.976C240.952 418.856 241.192 419.864 241.192 421V422.2H231.064C231.144 423.288 231.6 424.104 232.432 424.648C233.28 425.176 234.424 425.44 235.864 425.44C236.6 425.44 237.344 425.376 238.096 425.248C238.848 425.104 239.512 424.92 240.088 424.696V426.64C239.576 426.848 238.896 427.016 238.048 427.144C237.216 427.288 236.392 427.36 235.576 427.36ZM238.912 420.496C238.88 419.408 238.52 418.568 237.832 417.976C237.16 417.368 236.2 417.064 234.952 417.064C233.736 417.064 232.792 417.376 232.12 418C231.448 418.624 231.096 419.456 231.064 420.496H238.912Z" fill="white"/>
<path d="M223.624 55.1201C225.571 55.1201 227.15 56.7191 227.15 58.6916L227.15 80.1202C227.15 82.0926 225.571 83.6916 223.624 83.6916L135.494 83.6916C133.548 83.6916 131.969 82.0926 131.969 80.1201L131.969 58.6915C131.969 56.7191 133.548 55.1201 135.494 55.1201L223.624 55.1201Z" fill="#C52229"/>
<path fill-rule="evenodd" clip-rule="evenodd" d="M230.675 58.6917L230.675 80.1203C230.675 84.0652 227.518 87.2632 223.624 87.2632L135.494 87.2632C131.601 87.2632 128.444 84.0652 128.444 80.1203L128.444 58.6917C128.444 54.7468 131.601 51.5488 135.494 51.5488L223.624 51.5488C227.518 51.5488 230.675 54.7468 230.675 58.6917ZM227.149 58.6917C227.149 56.7192 225.571 55.1203 223.624 55.1203L135.494 55.1203C133.548 55.1203 131.969 56.7192 131.969 58.6917L131.969 80.1203C131.969 82.0927 133.548 83.6917 135.494 83.6917L223.624 83.6917C225.571 83.6917 227.149 82.0927 227.149 80.1203L227.149 58.6917Z" fill="#9B0F15"/>
<path fill-rule="evenodd" clip-rule="evenodd" d="M135.172 56.9058C135.172 55.9196 135.961 55.1201 136.935 55.1201H223.183C224.157 55.1201 224.946 55.9196 224.946 56.9058C224.946 57.8921 224.157 58.6916 223.183 58.6916H136.935C135.961 58.6916 135.172 57.8921 135.172 56.9058Z" fill="#DF3840"/>
<path fill-rule="evenodd" clip-rule="evenodd" d="M134.503 67.2852C134.503 66.299 135.292 65.4995 136.265 65.4995H222.514C223.487 65.4995 224.276 66.299 224.276 67.2852C224.276 68.2715 223.487 69.0709 222.514 69.0709H136.265C135.292 69.0709 134.503 68.2715 134.503 67.2852Z" fill="#AF1B22"/>
<path fill-rule="evenodd" clip-rule="evenodd" d="M134.503 60.7008C134.503 59.7145 135.292 58.915 136.265 58.915H222.514C223.487 58.915 224.276 59.7145 224.276 60.7008C224.276 61.687 223.487 62.4865 222.514 62.4865H136.265C135.292 62.4865 134.503 61.687 134.503 60.7008Z" fill="#AF1B22"/>
<path fill-rule="evenodd" clip-rule="evenodd" d="M134.503 73.7589C134.503 72.7726 135.292 71.9731 136.265 71.9731H222.514C223.487 71.9731 224.276 72.7726 224.276 73.7589C224.276 74.7451 223.487 75.5446 222.514 75.5446H136.265C135.292 75.5446 134.503 74.7451 134.503 73.7589Z" fill="#AF1B22"/>
<path fill-rule="evenodd" clip-rule="evenodd" d="M135.172 79.6739C135.172 78.6877 135.961 77.8882 136.935 77.8882H223.183C224.157 77.8882 224.946 78.6877 224.946 79.6739C224.946 80.6601 224.157 81.4596 223.183 81.4596H136.935C135.961 81.4596 135.172 80.6601 135.172 79.6739Z" fill="#AF1B22"/>
<path d="M137.434 56.5254C136.058 55.1307 133.826 55.1307 132.449 56.5254L117.493 71.6777C116.116 73.0724 116.116 75.3337 117.493 76.7285L177.62 137.644C178.996 139.039 181.228 139.039 182.605 137.644L197.561 122.492C198.938 121.097 198.938 118.836 197.561 117.441L137.434 56.5254Z" fill="#F1333B"/>
<path fill-rule="evenodd" clip-rule="evenodd" d="M129.956 54L115 69.1523C112.247 71.9418 112.247 76.4644 115 79.2538L175.127 140.169C177.88 142.959 182.344 142.959 185.098 140.169L200.054 125.017C202.807 122.228 202.807 117.705 200.054 114.916L139.927 54C137.174 51.2105 132.709 51.2105 129.956 54ZM132.449 56.5254C133.826 55.1306 136.058 55.1306 137.434 56.5254L197.561 117.441C198.938 118.836 198.938 121.097 197.561 122.492L182.605 137.644C181.228 139.039 178.996 139.039 177.62 137.644L117.493 76.7285C116.116 75.3337 116.116 73.0724 117.493 71.6777L132.449 56.5254Z" fill="#9B0F15"/>
<path d="M221.685 56.5949C223.056 55.1675 225.314 55.1518 226.704 56.5601L241.66 71.7119C243.023 73.0931 243.038 75.3277 241.694 76.7278L183.261 137.574C181.89 139.002 179.632 139.017 178.242 137.609L163.286 122.457C161.923 121.076 161.908 118.841 163.252 117.441L221.685 56.5949Z" fill="#F1333B"/>
<path fill-rule="evenodd" clip-rule="evenodd" d="M229.197 54.0347L244.153 69.1865C246.879 71.9489 246.91 76.4182 244.221 79.2183L185.788 140.065C183.046 142.92 178.529 142.951 175.749 140.134L160.794 124.983C158.067 122.22 158.037 117.751 160.726 114.951L219.158 54.1044C221.9 51.2495 226.417 51.2181 229.197 54.0347ZM226.704 56.5601C225.314 55.1518 223.056 55.1675 221.685 56.5949L163.252 117.441C161.908 118.841 161.923 121.076 163.286 122.457L178.242 137.609C179.632 139.017 181.89 139.002 183.261 137.574L241.694 76.7278C243.039 75.3277 243.023 73.0931 241.66 71.7119L226.704 56.5601Z" fill="#9B0F15"/>
<path fill-rule="evenodd" clip-rule="evenodd" d="M224.534 58.093C225.226 58.7871 225.231 59.9178 224.546 60.6183L188.522 97.4487C187.837 98.1493 186.721 98.1544 186.03 97.4603C185.338 96.7661 185.333 95.6354 186.018 94.9349L222.041 58.1045C222.727 57.4039 223.843 57.3988 224.534 58.093Z" fill="#FE666D"/>
<path fill-rule="evenodd" clip-rule="evenodd" d="M117.944 73.0543C118.632 72.3569 119.748 72.3569 120.436 73.0543L143.35 96.2686C144.039 96.966 144.039 98.0966 143.35 98.794C142.662 99.4913 141.546 99.4913 140.858 98.794L117.944 75.5797C117.255 74.8823 117.255 73.7516 117.944 73.0543Z" fill="#FE666D"/>
<path d="M231.704 68.3335C230.998 69.0485 229.868 69.0626 229.179 68.3651C228.491 67.6675 228.505 66.5224 229.21 65.8073C229.916 65.0923 231.046 65.0782 231.735 65.7758C232.424 66.4733 232.41 67.6185 231.704 68.3335Z" fill="#DB1B24"/>
<path d="M226.343 72.7542C225.465 73.6436 224.059 73.6612 223.202 72.7934C222.346 71.9257 222.363 70.5013 223.241 69.6119C224.119 68.7225 225.525 68.7049 226.382 69.5726C227.238 70.4403 227.221 71.8648 226.343 72.7542Z" fill="#DB1B24"/>
<path d="M232.055 74.1517C231.616 74.5964 230.913 74.6052 230.485 74.1714C230.056 73.7375 230.065 73.0253 230.504 72.5806C230.943 72.1359 231.646 72.1271 232.074 72.561C232.502 72.9948 232.494 73.707 232.055 74.1517Z" fill="#DB1B24"/>
<path d="M219.357 89.2377C218.919 89.6824 218.216 89.6912 217.787 89.2573C217.359 88.8235 217.368 88.1112 217.807 87.6665C218.246 87.2218 218.949 87.213 219.377 87.6469C219.805 88.0808 219.796 88.793 219.357 89.2377Z" fill="#DB1B24"/>
<path d="M225.731 78.9867C225.292 79.4314 224.589 79.4402 224.161 79.0063C223.733 78.5725 223.742 77.8603 224.181 77.4156C224.62 76.9709 225.323 76.9621 225.751 77.3959C226.179 77.8298 226.17 78.542 225.731 78.9867Z" fill="#DB1B24"/>
<path d="M219.338 95.3866C218.899 95.8313 218.196 95.8401 217.768 95.4062C217.34 94.9724 217.348 94.2602 217.787 93.8155C218.226 93.3708 218.929 93.362 219.358 93.7958C219.786 94.2297 219.777 94.9419 219.338 95.3866Z" fill="#DB1B24"/>
<path d="M220.947 77.6293C220.508 78.074 219.805 78.0828 219.377 77.6489C218.949 77.2151 218.957 76.5028 219.396 76.0581C219.835 75.6134 220.538 75.6046 220.966 76.0385C221.395 76.4724 221.386 77.1846 220.947 77.6293Z" fill="#DB1B24"/>
<path d="M224.523 90.3519C224.084 90.7966 223.381 90.8054 222.953 90.3716C222.525 89.9377 222.534 89.2255 222.973 88.7808C223.411 88.3361 224.114 88.3273 224.543 88.7612C224.971 89.195 224.962 89.9072 224.523 90.3519Z" fill="#DB1B24"/>
<path d="M237.376 71.3329C236.937 71.7776 236.234 71.7864 235.806 71.3525C235.378 70.9187 235.387 70.2065 235.825 69.7618C236.264 69.317 236.967 69.3083 237.396 69.7421C237.824 70.176 237.815 70.8882 237.376 71.3329Z" fill="#DB1B24"/>
<path d="M231.563 80.6633C230.849 81.387 229.704 81.4013 229.007 80.6953C228.311 79.9892 228.325 78.8301 229.039 78.1063C229.753 77.3826 230.898 77.3683 231.594 78.0744C232.291 78.7805 232.277 79.9396 231.563 80.6633Z" fill="#DB1B24"/>
<path d="M238.373 76.321C237.658 77.0447 236.514 77.0591 235.817 76.353C235.12 75.6469 235.134 74.4878 235.849 73.7641C236.563 73.0403 237.707 73.026 238.404 73.7321C239.101 74.4382 239.087 75.5973 238.373 76.321Z" fill="#DB1B24"/>
<path d="M224.577 85.2697C223.863 85.9935 222.719 86.0078 222.022 85.3017C221.325 84.5956 221.339 83.4365 222.054 82.7128C222.768 81.989 223.912 81.9747 224.609 82.6808C225.306 83.3869 225.292 84.546 224.577 85.2697Z" fill="#DB1B24"/>
<path d="M229.53 86.056C229.091 86.5007 228.388 86.5095 227.96 86.0757C227.532 85.6418 227.54 84.9296 227.979 84.4849C228.418 84.0402 229.121 84.0314 229.549 84.4653C229.978 84.8991 229.969 85.6113 229.53 86.056Z" fill="#DB1B24"/>
<path d="M227.806 155.786C227.806 182.414 206.499 204 180.216 204C153.933 204 132.626 182.414 132.626 155.786C132.626 129.158 153.933 107.571 180.216 107.571C206.499 107.571 227.806 129.158 227.806 155.786Z" fill="#FFBB0D"/>
<path fill-rule="evenodd" clip-rule="evenodd" d="M231.331 155.786C231.331 184.386 208.446 207.572 180.216 207.572C151.986 207.572 129.101 184.386 129.101 155.786C129.101 127.185 151.986 104 180.216 104C208.446 104 231.331 127.185 231.331 155.786ZM180.216 204C206.499 204 227.806 182.414 227.806 155.786C227.806 129.158 206.499 107.571 180.216 107.571C153.933 107.571 132.626 129.158 132.626 155.786C132.626 182.414 153.933 204 180.216 204Z" fill="#E89B05"/>
<path fill-rule="evenodd" clip-rule="evenodd" d="M136.151 157.571C135.178 157.571 134.389 156.772 134.389 155.786C134.389 130.144 154.906 109.357 180.216 109.357C181.19 109.357 181.979 110.156 181.979 111.143C181.979 112.129 181.19 112.928 180.216 112.928C156.853 112.928 137.914 132.116 137.914 155.786C137.914 156.772 137.125 157.571 136.151 157.571Z" fill="#E8AA0A"/>
<path fill-rule="evenodd" clip-rule="evenodd" d="M224.281 154C225.255 154 226.044 154.799 226.044 155.786C226.044 181.428 205.526 202.214 180.216 202.214C179.243 202.214 178.454 201.415 178.454 200.429C178.454 199.442 179.243 198.643 180.216 198.643C203.579 198.643 222.519 179.455 222.519 155.786C222.519 154.799 223.308 154 224.281 154Z" fill="#E8AA0A"/>
<path d="M215.468 155.786C215.468 175.51 199.685 191.5 180.216 191.5C160.747 191.5 144.964 175.51 144.964 155.786C144.964 136.061 160.747 120.071 180.216 120.071C199.685 120.071 215.468 136.061 215.468 155.786Z" fill="#FFDD28"/>
<path fill-rule="evenodd" clip-rule="evenodd" d="M218.993 155.786C218.993 177.483 201.632 195.072 180.216 195.072C158.8 195.072 141.439 177.483 141.439 155.786C141.439 134.089 158.8 116.5 180.216 116.5C201.632 116.5 218.993 134.089 218.993 155.786ZM180.216 191.5C199.685 191.5 215.468 175.51 215.468 155.786C215.468 136.061 199.685 120.071 180.216 120.071C160.747 120.071 144.964 136.061 144.964 155.786C144.964 175.51 160.747 191.5 180.216 191.5Z" fill="#E89B05"/>
<path fill-rule="evenodd" clip-rule="evenodd" d="M180.216 186.143C196.765 186.143 210.18 172.552 210.18 155.786C210.18 154.8 210.969 154 211.943 154C212.916 154 213.705 154.8 213.705 155.786C213.705 174.524 198.712 189.714 180.216 189.714C179.243 189.714 178.454 188.915 178.454 187.929C178.454 186.942 179.243 186.143 180.216 186.143Z" fill="#ECC704"/>
<path fill-rule="evenodd" clip-rule="evenodd" d="M180.216 125.428C163.667 125.428 150.252 139.02 150.252 155.786C150.252 156.772 149.463 157.571 148.489 157.571C147.516 157.571 146.727 156.772 146.727 155.786C146.727 137.047 161.72 121.857 180.216 121.857C181.19 121.857 181.979 122.656 181.979 123.643C181.979 124.629 181.19 125.428 180.216 125.428Z" fill="#FFEF9C"/>
<path d="M184.423 170.071H178.454V146.759L171.327 148.998V144.081L183.783 139.561H184.423V170.071Z" fill="#FFEF9C"/>
<path fill-rule="evenodd" clip-rule="evenodd" d="M187.948 170.071C187.948 172.044 186.37 173.643 184.423 173.643H178.454C176.507 173.643 174.928 172.044 174.928 170.071V151.606L172.372 152.41C171.302 152.746 170.138 152.547 169.236 151.874C168.335 151.201 167.802 150.133 167.802 148.998V144.081C167.802 142.573 168.737 141.227 170.139 140.719L182.594 136.198C182.975 136.06 183.377 135.989 183.783 135.989H184.423C186.37 135.989 187.948 137.588 187.948 139.561V170.071ZM178.454 146.759V170.071H184.423V139.561H183.783L171.327 144.081V148.998L178.454 146.759Z" fill="#E89B05"/>
<defs>
<filter id="filter0_bii_664_318" x="-172" y="-172" width="703" height="845" filterUnits="userSpaceOnUse" color-interpolation-filters="sRGB">
<feFlood flood-opacity="0" result="BackgroundImageFix"/>
<feGaussianBlur in="BackgroundImage" stdDeviation="86"/>
<feComposite in2="SourceAlpha" operator="in" result="effect1_backgroundBlur_664_318"/>
<feBlend mode="normal" in="SourceGraphic" in2="effect1_backgroundBlur_664_318" result="shape"/>
<feColorMatrix in="SourceAlpha" type="matrix" values="0 0 0 0 0 0 0 0 0 0 0 0 0 0 0 0 0 0 127 0" result="hardAlpha"/>
<feOffset dx="-28.6667" dy="28.6667"/>
<feGaussianBlur stdDeviation="14.3333"/>
<feComposite in2="hardAlpha" operator="arithmetic" k2="-1" k3="1"/>
<feColorMatrix type="matrix" values="0 0 0 0 1 0 0 0 0 1 0 0 0 0 1 0 0 0 0.2 0"/>
<feBlend mode="normal" in2="shape" result="effect2_innerShadow_664_318"/>
<feColorMatrix in="SourceAlpha" type="matrix" values="0 0 0 0 0 0 0 0 0 0 0 0 0 0 0 0 0 0 127 0" result="hardAlpha"/>
<feOffset dx="28.6667" dy="-28.6667"/>
<feGaussianBlur stdDeviation="14.3333"/>
<feComposite in2="hardAlpha" operator="arithmetic" k2="-1" k3="1"/>
<feColorMatrix type="matrix" values="0 0 0 0 0.76 0 0 0 0 0.76 0 0 0 0 0.76 0 0 0 0.2 0"/>
<feBlend mode="normal" in2="effect2_innerShadow_664_318" result="effect3_innerShadow_664_318"/>
</filter>
<radialGradient id="paint0_radial_664_318" cx="0" cy="0" r="1" gradientUnits="userSpaceOnUse" gradientTransform="translate(106.5 106.5) rotate(64.7569) scale(436.149 312.53)">
<stop stop-color="white"/>
<stop offset="1" stop-color="white" stop-opacity="0"/>
</radialGradient>
</defs>
</svg>
