<svg width="359" height="501" viewBox="0 0 359 501" fill="none" xmlns="http://www.w3.org/2000/svg">
<g filter="url(#filter0_bii_566_688)">
<rect width="359" height="501" rx="72" fill="white" fill-opacity="0.2"/>
<rect width="359" height="501" rx="72" fill="url(#paint0_radial_566_688)" fill-opacity="0.4"/>
<rect x="0.375" y="0.375" width="358.25" height="500.25" rx="71.625" stroke="white" stroke-width="0.75"/>
</g>
<path d="M223.624 55.1201C225.571 55.1201 227.149 56.7191 227.149 58.6915L227.149 80.1201C227.149 82.0926 225.571 83.6915 223.624 83.6915L135.494 83.6915C133.547 83.6915 131.969 82.0926 131.969 80.1201L131.969 58.6915C131.969 56.7191 133.547 55.1201 135.494 55.1201L223.624 55.1201Z" fill="#C52229"/>
<path fill-rule="evenodd" clip-rule="evenodd" d="M230.675 58.6917L230.675 80.1203C230.675 84.0651 227.518 87.2631 223.624 87.2631L135.495 87.2631C131.601 87.2631 128.444 84.0651 128.444 80.1203L128.444 58.6917C128.444 54.7468 131.601 51.5488 135.495 51.5488L223.624 51.5488C227.518 51.5488 230.675 54.7468 230.675 58.6917ZM227.15 58.6917C227.15 56.7192 225.571 55.1203 223.624 55.1203L135.495 55.1203C133.548 55.1203 131.969 56.7192 131.969 58.6917L131.969 80.1203C131.969 82.0927 133.548 83.6917 135.495 83.6917L223.624 83.6917C225.571 83.6917 227.15 82.0927 227.15 80.1203L227.15 58.6917Z" fill="#9B0F15"/>
<path fill-rule="evenodd" clip-rule="evenodd" d="M135.172 56.9058C135.172 55.9196 135.961 55.1201 136.934 55.1201H223.183C224.157 55.1201 224.946 55.9196 224.946 56.9058C224.946 57.8921 224.157 58.6915 223.183 58.6915H136.934C135.961 58.6915 135.172 57.8921 135.172 56.9058Z" fill="#DF3840"/>
<path fill-rule="evenodd" clip-rule="evenodd" d="M134.503 67.2852C134.503 66.299 135.292 65.4995 136.265 65.4995H222.514C223.487 65.4995 224.276 66.299 224.276 67.2852C224.276 68.2714 223.487 69.0709 222.514 69.0709H136.265C135.292 69.0709 134.503 68.2714 134.503 67.2852Z" fill="#AF1B22"/>
<path fill-rule="evenodd" clip-rule="evenodd" d="M134.503 60.7008C134.503 59.7145 135.292 58.915 136.265 58.915H222.514C223.487 58.915 224.276 59.7145 224.276 60.7008C224.276 61.687 223.487 62.4865 222.514 62.4865H136.265C135.292 62.4865 134.503 61.687 134.503 60.7008Z" fill="#AF1B22"/>
<path fill-rule="evenodd" clip-rule="evenodd" d="M134.503 73.7589C134.503 72.7726 135.292 71.9731 136.265 71.9731H222.514C223.487 71.9731 224.276 72.7726 224.276 73.7589C224.276 74.7451 223.487 75.5446 222.514 75.5446H136.265C135.292 75.5446 134.503 74.7451 134.503 73.7589Z" fill="#AF1B22"/>
<path fill-rule="evenodd" clip-rule="evenodd" d="M135.172 79.6739C135.172 78.6877 135.961 77.8882 136.935 77.8882H223.183C224.157 77.8882 224.946 78.6877 224.946 79.6739C224.946 80.6601 224.157 81.4596 223.183 81.4596H136.935C135.961 81.4596 135.172 80.6601 135.172 79.6739Z" fill="#AF1B22"/>
<path d="M137.434 56.5254C136.057 55.1306 133.825 55.1307 132.449 56.5254L117.493 71.6777C116.116 73.0724 116.116 75.3337 117.493 76.7284L177.62 137.644C178.996 139.039 181.228 139.039 182.605 137.644L197.561 122.492C198.938 121.097 198.938 118.836 197.561 117.441L137.434 56.5254Z" fill="#F1333B"/>
<path fill-rule="evenodd" clip-rule="evenodd" d="M129.956 54L115 69.1523C112.247 71.9417 112.247 76.4643 115 79.2538L175.127 140.169C177.88 142.959 182.344 142.959 185.098 140.169L200.054 125.017C202.807 122.228 202.807 117.705 200.054 114.916L139.927 54C137.173 51.2105 132.709 51.2105 129.956 54ZM132.449 56.5254C133.825 55.1306 136.057 55.1306 137.434 56.5254L197.561 117.441C198.938 118.836 198.938 121.097 197.561 122.492L182.605 137.644C181.228 139.039 178.996 139.039 177.62 137.644L117.493 76.7284C116.116 75.3337 116.116 73.0724 117.493 71.6777L132.449 56.5254Z" fill="#9B0F15"/>
<path d="M221.685 56.5949C223.056 55.1675 225.314 55.1518 226.704 56.5601L241.66 71.7119C243.023 73.0931 243.038 75.3277 241.694 76.7277L183.261 137.574C181.89 139.001 179.632 139.017 178.242 137.609L163.286 122.457C161.923 121.076 161.908 118.841 163.252 117.441L221.685 56.5949Z" fill="#F1333B"/>
<path fill-rule="evenodd" clip-rule="evenodd" d="M229.197 54.0347L244.153 69.1865C246.879 71.9489 246.91 76.4182 244.221 79.2182L185.788 140.064C183.046 142.919 178.529 142.951 175.749 140.134L160.794 124.982C158.067 122.22 158.037 117.751 160.726 114.951L219.158 54.1044C221.9 51.2495 226.417 51.2181 229.197 54.0347ZM226.704 56.56C225.314 55.1518 223.056 55.1675 221.685 56.5949L163.252 117.441C161.908 118.841 161.923 121.076 163.286 122.457L178.242 137.609C179.632 139.017 181.89 139.001 183.261 137.574L241.694 76.7277C243.039 75.3277 243.023 73.0931 241.66 71.7119L226.704 56.56Z" fill="#9B0F15"/>
<path fill-rule="evenodd" clip-rule="evenodd" d="M224.534 58.093C225.226 58.7871 225.231 59.9178 224.546 60.6183L188.522 97.4487C187.837 98.1492 186.721 98.1544 186.03 97.4602C185.338 96.766 185.333 95.6354 186.018 94.9348L222.041 58.1045C222.727 57.4039 223.843 57.3988 224.534 58.093Z" fill="#FE666D"/>
<path fill-rule="evenodd" clip-rule="evenodd" d="M117.944 73.0543C118.632 72.3569 119.748 72.3569 120.436 73.0543L143.35 96.2686C144.039 96.9659 144.039 98.0966 143.35 98.7939C142.662 99.4913 141.546 99.4913 140.858 98.7939L117.944 75.5797C117.255 74.8823 117.255 73.7516 117.944 73.0543Z" fill="#FE666D"/>
<path d="M231.704 68.3335C230.998 69.0485 229.868 69.0626 229.179 68.3651C228.491 67.6675 228.505 66.5224 229.21 65.8073C229.916 65.0923 231.046 65.0782 231.735 65.7758C232.424 66.4733 232.41 67.6185 231.704 68.3335Z" fill="#DB1B24"/>
<path d="M226.343 72.7542C225.465 73.6436 224.059 73.6612 223.202 72.7934C222.346 71.9257 222.363 70.5013 223.241 69.6119C224.119 68.7225 225.525 68.7049 226.382 69.5726C227.238 70.4403 227.221 71.8647 226.343 72.7542Z" fill="#DB1B24"/>
<path d="M232.055 74.1517C231.616 74.5964 230.913 74.6052 230.484 74.1714C230.056 73.7375 230.065 73.0253 230.504 72.5806C230.943 72.1359 231.646 72.1271 232.074 72.561C232.502 72.9948 232.494 73.707 232.055 74.1517Z" fill="#DB1B24"/>
<path d="M219.358 89.2377C218.919 89.6824 218.216 89.6912 217.787 89.2573C217.359 88.8235 217.368 88.1112 217.807 87.6665C218.246 87.2218 218.949 87.213 219.377 87.6469C219.805 88.0808 219.797 88.793 219.358 89.2377Z" fill="#DB1B24"/>
<path d="M225.731 78.9867C225.292 79.4314 224.589 79.4402 224.161 79.0063C223.733 78.5725 223.742 77.8603 224.181 77.4156C224.62 76.9709 225.323 76.9621 225.751 77.3959C226.179 77.8298 226.17 78.542 225.731 78.9867Z" fill="#DB1B24"/>
<path d="M219.338 95.3866C218.899 95.8313 218.196 95.8401 217.768 95.4062C217.34 94.9724 217.348 94.2602 217.787 93.8155C218.226 93.3708 218.929 93.362 219.357 93.7958C219.786 94.2297 219.777 94.9419 219.338 95.3866Z" fill="#DB1B24"/>
<path d="M220.947 77.6293C220.508 78.074 219.805 78.0828 219.377 77.6489C218.949 77.2151 218.957 76.5028 219.396 76.0581C219.835 75.6134 220.538 75.6046 220.966 76.0385C221.395 76.4724 221.386 77.1846 220.947 77.6293Z" fill="#DB1B24"/>
<path d="M224.523 90.3519C224.084 90.7966 223.381 90.8054 222.953 90.3716C222.525 89.9377 222.534 89.2255 222.973 88.7808C223.411 88.3361 224.114 88.3273 224.543 88.7612C224.971 89.195 224.962 89.9072 224.523 90.3519Z" fill="#DB1B24"/>
<path d="M237.376 71.3329C236.937 71.7776 236.234 71.7864 235.806 71.3525C235.378 70.9187 235.387 70.2065 235.826 69.7618C236.265 69.317 236.968 69.3083 237.396 69.7421C237.824 70.176 237.815 70.8882 237.376 71.3329Z" fill="#DB1B24"/>
<path d="M231.563 80.6633C230.849 81.387 229.704 81.4013 229.007 80.6952C228.311 79.9892 228.325 78.8301 229.039 78.1063C229.753 77.3826 230.898 77.3683 231.594 78.0744C232.291 78.7805 232.277 79.9396 231.563 80.6633Z" fill="#DB1B24"/>
<path d="M238.373 76.321C237.658 77.0447 236.514 77.059 235.817 76.353C235.12 75.6469 235.134 74.4878 235.849 73.764C236.563 73.0403 237.707 73.026 238.404 73.7321C239.101 74.4382 239.087 75.5973 238.373 76.321Z" fill="#DB1B24"/>
<path d="M224.578 85.2697C223.863 85.9935 222.719 86.0078 222.022 85.3017C221.325 84.5956 221.339 83.4365 222.054 82.7128C222.768 81.989 223.912 81.9747 224.609 82.6808C225.306 83.3869 225.292 84.546 224.578 85.2697Z" fill="#DB1B24"/>
<path d="M229.53 86.056C229.091 86.5007 228.388 86.5095 227.96 86.0757C227.532 85.6418 227.54 84.9296 227.979 84.4849C228.418 84.0402 229.121 84.0314 229.55 84.4653C229.978 84.8991 229.969 85.6113 229.53 86.056Z" fill="#DB1B24"/>
<path d="M227.806 155.786C227.806 182.414 206.499 204 180.216 204C153.933 204 132.626 182.414 132.626 155.786C132.626 129.158 153.933 107.571 180.216 107.571C206.499 107.571 227.806 129.158 227.806 155.786Z" fill="#BCCCD2"/>
<path fill-rule="evenodd" clip-rule="evenodd" d="M231.331 155.786C231.331 184.386 208.446 207.571 180.216 207.571C151.986 207.571 129.101 184.386 129.101 155.786C129.101 127.185 151.986 104 180.216 104C208.446 104 231.331 127.185 231.331 155.786ZM180.216 204C206.499 204 227.806 182.414 227.806 155.786C227.806 129.158 206.499 107.571 180.216 107.571C153.933 107.571 132.626 129.158 132.626 155.786C132.626 182.414 153.933 204 180.216 204Z" fill="#81A5B0"/>
<path fill-rule="evenodd" clip-rule="evenodd" d="M136.151 157.571C135.178 157.571 134.389 156.772 134.389 155.786C134.389 130.144 154.906 109.357 180.216 109.357C181.19 109.357 181.979 110.156 181.979 111.143C181.979 112.129 181.19 112.928 180.216 112.928C156.853 112.928 137.914 132.116 137.914 155.786C137.914 156.772 137.125 157.571 136.151 157.571Z" fill="#D0DEE3"/>
<path fill-rule="evenodd" clip-rule="evenodd" d="M224.281 154C225.255 154 226.044 154.799 226.044 155.786C226.044 181.428 205.526 202.214 180.216 202.214C179.243 202.214 178.454 201.415 178.454 200.429C178.454 199.442 179.243 198.643 180.216 198.643C203.579 198.643 222.519 179.455 222.519 155.786C222.519 154.799 223.308 154 224.281 154Z" fill="#A2B9C1"/>
<path d="M215.468 155.786C215.468 175.51 199.685 191.5 180.216 191.5C160.747 191.5 144.964 175.51 144.964 155.786C144.964 136.061 160.747 120.071 180.216 120.071C199.685 120.071 215.468 136.061 215.468 155.786Z" fill="#C7D4D8"/>
<path fill-rule="evenodd" clip-rule="evenodd" d="M218.993 155.786C218.993 177.483 201.632 195.071 180.216 195.071C158.8 195.071 141.439 177.483 141.439 155.786C141.439 134.089 158.8 116.5 180.216 116.5C201.632 116.5 218.993 134.089 218.993 155.786ZM180.216 191.5C199.685 191.5 215.468 175.51 215.468 155.786C215.468 136.061 199.685 120.071 180.216 120.071C160.747 120.071 144.964 136.061 144.964 155.786C144.964 175.51 160.747 191.5 180.216 191.5Z" fill="#81A5B0"/>
<path fill-rule="evenodd" clip-rule="evenodd" d="M180.216 186.143C196.765 186.143 210.18 172.552 210.18 155.786C210.18 154.8 210.97 154 211.943 154C212.916 154 213.706 154.8 213.706 155.786C213.706 174.524 198.712 189.714 180.216 189.714C179.243 189.714 178.454 188.915 178.454 187.929C178.454 186.942 179.243 186.143 180.216 186.143Z" fill="#B5C3C8"/>
<path fill-rule="evenodd" clip-rule="evenodd" d="M180.216 125.428C163.667 125.428 150.252 139.02 150.252 155.786C150.252 156.772 149.463 157.571 148.489 157.571C147.516 157.571 146.727 156.772 146.727 155.786C146.727 137.047 161.72 121.857 180.216 121.857C181.19 121.857 181.979 122.656 181.979 123.643C181.979 124.629 181.19 125.428 180.216 125.428Z" fill="#D9EAEF"/>
<path d="M190.537 170.071H169.923V165.928L179.651 155.423C180.987 153.944 181.972 152.654 182.605 151.552C183.252 150.449 183.576 149.403 183.576 148.413C183.576 147.059 183.239 145.999 182.564 145.232C181.889 144.451 180.925 144.06 179.672 144.06C178.323 144.06 177.255 144.534 176.471 145.483C175.699 146.418 175.314 147.652 175.314 149.187H169.324C169.324 147.331 169.757 145.636 170.625 144.102C171.506 142.567 172.746 141.367 174.343 140.502C175.94 139.624 177.751 139.184 179.775 139.184C182.874 139.184 185.277 139.937 186.984 141.444C188.705 142.951 189.566 145.078 189.566 147.827C189.566 149.333 189.18 150.868 188.409 152.43C187.638 153.993 186.316 155.814 184.444 157.892L177.607 165.196H190.537V170.071Z" fill="#D9EAEF"/>
<path fill-rule="evenodd" clip-rule="evenodd" d="M194.062 170.072C194.062 172.044 192.484 173.643 190.537 173.643H169.923C167.976 173.643 166.398 172.044 166.398 170.072V165.928C166.398 165.02 166.739 164.146 167.352 163.484L177.065 152.996C178.308 151.619 179.104 150.546 179.559 149.755L179.576 149.726C179.992 149.017 180.051 148.597 180.051 148.413C180.051 148.031 180.003 147.808 179.968 147.698C179.962 147.68 179.956 147.664 179.951 147.651C179.895 147.642 179.805 147.631 179.672 147.631C179.409 147.631 179.298 147.677 179.276 147.686C179.262 147.693 179.253 147.698 179.242 147.706C179.232 147.714 179.208 147.734 179.174 147.775C179.058 147.916 178.839 148.271 178.839 149.187C178.839 151.159 177.261 152.758 175.314 152.758H169.324C167.377 152.758 165.799 151.159 165.799 149.187C165.799 146.741 166.378 144.429 167.566 142.327L167.578 142.306C168.798 140.182 170.522 138.524 172.671 137.358C174.839 136.168 177.236 135.613 179.775 135.613C183.408 135.613 186.743 136.498 189.294 138.746C191.937 141.063 193.091 144.263 193.091 147.827C193.091 149.97 192.539 152.048 191.562 154.028C190.585 156.008 189.023 158.107 187.047 160.3C187.032 160.317 187.017 160.334 187.001 160.35L185.809 161.624H190.537C192.484 161.624 194.062 163.223 194.062 165.196V170.072ZM177.607 165.196L184.444 157.892C186.316 155.814 187.638 153.993 188.409 152.431C189.181 150.868 189.566 149.333 189.566 147.827C189.566 145.078 188.705 142.951 186.984 141.444C185.277 139.938 182.874 139.184 179.775 139.184C177.751 139.184 175.94 139.624 174.343 140.503C172.746 141.368 171.506 142.567 170.625 144.102C170.349 144.59 170.117 145.095 169.929 145.616C169.525 146.731 169.324 147.922 169.324 149.187H175.314C175.314 147.652 175.699 146.418 176.471 145.483C177.255 144.534 178.323 144.06 179.672 144.06C180.925 144.06 181.889 144.451 182.564 145.232C183.239 145.999 183.576 147.06 183.576 148.413C183.576 149.403 183.252 150.45 182.605 151.552C181.972 152.654 180.987 153.944 179.651 155.423L169.923 165.928V170.072H190.537V165.196H177.607Z" fill="#81A5B0"/>
<path d="M60.536 276.632L66.536 271.16C67.752 270.072 68.664 269.272 69.272 268.76C71.096 267.16 72.488 265.88 73.448 264.92C74.408 263.928 75.192 262.904 75.8 261.848C76.408 260.792 76.712 259.704 76.712 258.584C76.712 257.016 76.248 255.784 75.32 254.888C74.424 253.992 73.016 253.544 71.096 253.544C69.496 253.544 67.896 253.832 66.296 254.408C64.696 254.952 63.224 255.736 61.88 256.76V249.8C63.288 248.808 64.888 248.056 66.68 247.544C68.504 247 70.472 246.728 72.584 246.728C75.016 246.728 77.112 247.176 78.872 248.072C80.632 248.968 81.976 250.232 82.904 251.864C83.832 253.496 84.296 255.368 84.296 257.48C84.296 259.848 83.688 261.96 82.472 263.816C81.288 265.64 79.352 267.8 76.664 270.296L71.528 275H85.448V281H60.536V276.632ZM90.6804 257.96H97.6884V260.792C98.7444 259.608 99.9924 258.728 101.432 258.152C102.904 257.544 104.44 257.24 106.04 257.24C109.176 257.24 111.512 258.088 113.048 259.784C114.616 261.448 115.4 263.704 115.4 266.552V281H108.152V267.368C108.152 264.392 106.776 262.904 104.024 262.904C102.808 262.904 101.672 263.208 100.616 263.816C99.5604 264.392 98.6644 265.256 97.9284 266.408V281H90.6804V257.96ZM132.644 281.72C130.276 281.72 128.164 281.224 126.308 280.232C124.484 279.208 123.044 277.784 121.988 275.96C120.964 274.104 120.452 271.96 120.452 269.528C120.452 267.128 120.964 265 121.988 263.144C123.012 261.288 124.452 259.848 126.308 258.824C128.164 257.768 130.276 257.24 132.644 257.24C134.372 257.24 135.956 257.48 137.396 257.96C138.836 258.44 140.052 259.128 141.044 260.024V245.528H148.292V281H141.284V278.504C140.1 279.624 138.804 280.44 137.396 280.952C136.02 281.464 134.436 281.72 132.644 281.72ZM134.516 276.104C136.02 276.104 137.348 275.704 138.5 274.904C139.684 274.104 140.532 273.032 141.044 271.688V267.32C140.596 266.008 139.764 264.952 138.548 264.152C137.364 263.32 136.02 262.904 134.516 262.904C132.564 262.904 130.964 263.512 129.716 264.728C128.5 265.944 127.892 267.544 127.892 269.528C127.892 271.512 128.5 273.112 129.716 274.328C130.964 275.512 132.564 276.104 134.516 276.104ZM172.515 247.448H186.627C190.435 247.448 193.475 248.456 195.747 250.472C198.019 252.456 199.155 255.224 199.155 258.776C199.155 262.424 198.019 265.224 195.747 267.176C193.507 269.128 190.467 270.104 186.627 270.104H179.811V281H172.515V247.448ZM185.571 264.008C189.699 264.008 191.763 262.264 191.763 258.776C191.763 256.824 191.203 255.464 190.083 254.696C188.995 253.928 187.491 253.544 185.571 253.544H179.811V264.008H185.571ZM203.715 245.528H210.963V281H203.715V245.528ZM225.788 281.72C222.972 281.72 220.668 281.016 218.876 279.608C217.116 278.168 216.236 276.216 216.236 273.752C216.236 271.192 217.084 269.208 218.78 267.8C220.476 266.36 222.876 265.64 225.98 265.64C227.356 265.64 228.668 265.784 229.916 266.072C231.164 266.36 232.268 266.76 233.228 267.272V266.696C233.228 265.256 232.716 264.2 231.692 263.528C230.668 262.856 229.1 262.52 226.988 262.52C224.172 262.52 221.58 263.048 219.212 264.104V258.824C220.236 258.376 221.564 258.008 223.196 257.72C224.828 257.4 226.46 257.24 228.092 257.24C232.252 257.24 235.356 258.104 237.404 259.832C239.452 261.528 240.476 263.912 240.476 266.984V281H233.66V278.888C231.708 280.776 229.084 281.72 225.788 281.72ZM227.756 276.92C228.94 276.92 230.012 276.696 230.972 276.248C231.932 275.8 232.684 275.176 233.228 274.376V272.072C231.596 270.984 229.804 270.44 227.852 270.44C226.508 270.44 225.468 270.728 224.732 271.304C224.028 271.848 223.676 272.664 223.676 273.752C223.676 274.776 224.028 275.56 224.732 276.104C225.436 276.648 226.444 276.92 227.756 276.92ZM258.209 281.72C254.049 281.72 250.737 280.664 248.273 278.552C245.809 276.408 244.577 273.4 244.577 269.528C244.577 265.656 245.809 262.648 248.273 260.504C250.769 258.328 254.097 257.24 258.257 257.24C262.033 257.24 265.041 257.944 267.281 259.352V265.064C266.257 264.328 265.057 263.784 263.681 263.432C262.337 263.08 260.913 262.904 259.409 262.904C257.169 262.904 255.377 263.448 254.033 264.536C252.689 265.624 252.017 267.288 252.017 269.528C252.017 271.768 252.673 273.432 253.985 274.52C255.329 275.576 257.121 276.104 259.361 276.104C262.465 276.104 265.201 275.352 267.569 273.848V279.512C265.201 280.984 262.081 281.72 258.209 281.72ZM286.047 281.72C281.631 281.72 278.159 280.664 275.631 278.552C273.103 276.408 271.839 273.416 271.839 269.576C271.839 265.768 272.959 262.76 275.199 260.552C277.471 258.344 280.703 257.24 284.895 257.24C287.647 257.24 289.983 257.752 291.903 258.776C293.823 259.8 295.279 261.224 296.271 263.048C297.263 264.84 297.759 266.872 297.759 269.144V272.072H278.751C279.263 275.016 282.015 276.488 287.007 276.488C288.479 276.488 289.999 276.36 291.567 276.104C293.135 275.848 294.495 275.496 295.647 275.048V280.136C294.527 280.616 293.087 281 291.327 281.288C289.567 281.576 287.807 281.72 286.047 281.72ZM290.895 267.368C290.799 265.832 290.223 264.648 289.167 263.816C288.111 262.952 286.655 262.52 284.799 262.52C282.975 262.52 281.535 262.952 280.479 263.816C279.423 264.68 278.847 265.864 278.751 267.368H290.895Z" fill="white"/>
<path d="M88.5084 322.224H95.2524C97.0444 322.224 98.4204 322.656 99.3804 323.52C100.34 324.384 100.82 325.648 100.82 327.312C100.82 328.544 100.492 329.592 99.8364 330.456C99.1804 331.304 98.2524 331.88 97.0524 332.184L100.748 339H98.2044L94.6284 332.376H90.9564V339H88.5084V322.224ZM94.8444 330.312C95.9164 330.312 96.7644 330.064 97.3884 329.568C98.0284 329.056 98.3484 328.304 98.3484 327.312C98.3484 326.224 98.0364 325.448 97.4124 324.984C96.8044 324.52 95.9484 324.288 94.8444 324.288H90.9564V330.312H94.8444ZM104.062 327.48H106.414V329.184C107.598 327.808 109.198 327.12 111.214 327.12C112.366 327.12 113.398 327.376 114.31 327.888C115.238 328.4 115.958 329.12 116.47 330.048C116.998 330.96 117.262 332.024 117.262 333.24C117.262 334.44 116.998 335.504 116.47 336.432C115.958 337.36 115.246 338.08 114.334 338.592C113.422 339.104 112.382 339.36 111.214 339.36C110.254 339.36 109.358 339.2 108.526 338.88C107.694 338.56 107.014 338.088 106.486 337.464V344.256H104.062V327.48ZM110.662 337.44C111.446 337.44 112.15 337.272 112.774 336.936C113.414 336.584 113.91 336.088 114.262 335.448C114.63 334.808 114.814 334.072 114.814 333.24C114.814 332.408 114.63 331.68 114.262 331.056C113.91 330.416 113.414 329.928 112.774 329.592C112.15 329.24 111.446 329.064 110.662 329.064C109.686 329.064 108.822 329.32 108.07 329.832C107.334 330.344 106.806 331.048 106.486 331.944V334.536C106.758 335.416 107.278 336.12 108.046 336.648C108.814 337.176 109.686 337.44 110.662 337.44ZM121.153 339C120.833 339 120.561 338.896 120.337 338.688C120.129 338.464 120.025 338.192 120.025 337.872C120.025 337.552 120.129 337.28 120.337 337.056C120.561 336.832 120.833 336.72 121.153 336.72C121.473 336.72 121.745 336.832 121.969 337.056C122.193 337.28 122.305 337.552 122.305 337.872C122.305 338.192 122.193 338.464 121.969 338.688C121.745 338.896 121.473 339 121.153 339ZM143.202 324.288H134.298V322.224H145.698V324.024L138.954 339H136.554L143.202 324.288ZM149.344 339C149.024 339 148.752 338.896 148.528 338.688C148.32 338.464 148.216 338.192 148.216 337.872C148.216 337.552 148.32 337.28 148.528 337.056C148.752 336.832 149.024 336.72 149.344 336.72C149.664 336.72 149.936 336.832 150.16 337.056C150.384 337.28 150.496 337.552 150.496 337.872C150.496 338.192 150.384 338.464 150.16 338.688C149.936 338.896 149.664 339 149.344 339ZM160.23 339.36C158.79 339.36 157.542 339.008 156.486 338.304C155.446 337.6 154.646 336.592 154.086 335.28C153.526 333.968 153.246 332.416 153.246 330.624C153.246 328.832 153.518 327.28 154.062 325.968C154.622 324.64 155.422 323.624 156.462 322.92C157.518 322.216 158.774 321.864 160.23 321.864C161.686 321.864 162.934 322.216 163.974 322.92C165.03 323.624 165.83 324.64 166.374 325.968C166.934 327.28 167.214 328.832 167.214 330.624C167.214 332.416 166.934 333.968 166.374 335.28C165.814 336.592 165.006 337.6 163.95 338.304C162.91 339.008 161.67 339.36 160.23 339.36ZM160.23 337.2C161.654 337.2 162.766 336.616 163.566 335.448C164.382 334.264 164.79 332.664 164.79 330.648C164.79 328.632 164.39 327.032 163.59 325.848C162.79 324.664 161.67 324.072 160.23 324.072C158.79 324.072 157.67 324.664 156.87 325.848C156.07 327.032 155.67 328.632 155.67 330.648C155.67 332.664 156.07 334.264 156.87 335.448C157.686 336.616 158.806 337.2 160.23 337.2ZM176.955 339.36C175.515 339.36 174.267 339.008 173.211 338.304C172.171 337.6 171.371 336.592 170.811 335.28C170.251 333.968 169.971 332.416 169.971 330.624C169.971 328.832 170.243 327.28 170.787 325.968C171.347 324.64 172.147 323.624 173.187 322.92C174.243 322.216 175.499 321.864 176.955 321.864C178.411 321.864 179.659 322.216 180.699 322.92C181.755 323.624 182.555 324.64 183.099 325.968C183.659 327.28 183.939 328.832 183.939 330.624C183.939 332.416 183.659 333.968 183.099 335.28C182.539 336.592 181.731 337.6 180.675 338.304C179.635 339.008 178.395 339.36 176.955 339.36ZM176.955 337.2C178.379 337.2 179.491 336.616 180.291 335.448C181.107 334.264 181.515 332.664 181.515 330.648C181.515 328.632 181.115 327.032 180.315 325.848C179.515 324.664 178.395 324.072 176.955 324.072C175.515 324.072 174.395 324.664 173.595 325.848C172.795 327.032 172.395 328.632 172.395 330.648C172.395 332.664 172.795 334.264 173.595 335.448C174.411 336.616 175.531 337.2 176.955 337.2ZM193.68 339.36C192.24 339.36 190.992 339.008 189.936 338.304C188.896 337.6 188.096 336.592 187.536 335.28C186.976 333.968 186.696 332.416 186.696 330.624C186.696 328.832 186.968 327.28 187.512 325.968C188.072 324.64 188.872 323.624 189.912 322.92C190.968 322.216 192.224 321.864 193.68 321.864C195.136 321.864 196.384 322.216 197.424 322.92C198.48 323.624 199.28 324.64 199.824 325.968C200.384 327.28 200.664 328.832 200.664 330.624C200.664 332.416 200.384 333.968 199.824 335.28C199.264 336.592 198.456 337.6 197.4 338.304C196.36 339.008 195.12 339.36 193.68 339.36ZM193.68 337.2C195.104 337.2 196.216 336.616 197.016 335.448C197.832 334.264 198.24 332.664 198.24 330.648C198.24 328.632 197.84 327.032 197.04 325.848C196.24 324.664 195.12 324.072 193.68 324.072C192.24 324.072 191.12 324.664 190.32 325.848C189.52 327.032 189.12 328.632 189.12 330.648C189.12 332.664 189.52 334.264 190.32 335.448C191.136 336.616 192.256 337.2 193.68 337.2ZM204.549 339C204.229 339 203.957 338.896 203.733 338.688C203.525 338.464 203.421 338.192 203.421 337.872C203.421 337.552 203.525 337.28 203.733 337.056C203.957 336.832 204.229 336.72 204.549 336.72C204.869 336.72 205.141 336.832 205.365 337.056C205.589 337.28 205.701 337.552 205.701 337.872C205.701 338.192 205.589 338.464 205.365 338.688C205.141 338.896 204.869 339 204.549 339ZM215.434 339.36C213.994 339.36 212.746 339.008 211.69 338.304C210.65 337.6 209.85 336.592 209.29 335.28C208.73 333.968 208.45 332.416 208.45 330.624C208.45 328.832 208.722 327.28 209.266 325.968C209.826 324.64 210.626 323.624 211.666 322.92C212.722 322.216 213.978 321.864 215.434 321.864C216.89 321.864 218.138 322.216 219.178 322.92C220.234 323.624 221.034 324.64 221.578 325.968C222.138 327.28 222.418 328.832 222.418 330.624C222.418 332.416 222.138 333.968 221.578 335.28C221.018 336.592 220.21 337.6 219.154 338.304C218.114 339.008 216.874 339.36 215.434 339.36ZM215.434 337.2C216.858 337.2 217.97 336.616 218.77 335.448C219.586 334.264 219.994 332.664 219.994 330.648C219.994 328.632 219.594 327.032 218.794 325.848C217.994 324.664 216.874 324.072 215.434 324.072C213.994 324.072 212.874 324.664 212.074 325.848C211.274 327.032 210.874 328.632 210.874 330.648C210.874 332.664 211.274 334.264 212.074 335.448C212.89 336.616 214.01 337.2 215.434 337.2ZM232.159 339.36C230.719 339.36 229.471 339.008 228.415 338.304C227.375 337.6 226.575 336.592 226.015 335.28C225.455 333.968 225.175 332.416 225.175 330.624C225.175 328.832 225.447 327.28 225.991 325.968C226.551 324.64 227.351 323.624 228.391 322.92C229.447 322.216 230.703 321.864 232.159 321.864C233.615 321.864 234.863 322.216 235.903 322.92C236.959 323.624 237.759 324.64 238.303 325.968C238.863 327.28 239.143 328.832 239.143 330.624C239.143 332.416 238.863 333.968 238.303 335.28C237.743 336.592 236.935 337.6 235.879 338.304C234.839 339.008 233.599 339.36 232.159 339.36ZM232.159 337.2C233.583 337.2 234.695 336.616 235.495 335.448C236.311 334.264 236.719 332.664 236.719 330.648C236.719 328.632 236.319 327.032 235.519 325.848C234.719 324.664 233.599 324.072 232.159 324.072C230.719 324.072 229.599 324.664 228.799 325.848C227.999 327.032 227.599 328.632 227.599 330.648C227.599 332.664 227.999 334.264 228.799 335.448C229.615 336.616 230.735 337.2 232.159 337.2ZM248.884 339.36C247.444 339.36 246.196 339.008 245.14 338.304C244.1 337.6 243.3 336.592 242.74 335.28C242.18 333.968 241.9 332.416 241.9 330.624C241.9 328.832 242.172 327.28 242.716 325.968C243.276 324.64 244.076 323.624 245.116 322.92C246.172 322.216 247.428 321.864 248.884 321.864C250.34 321.864 251.588 322.216 252.628 322.92C253.684 323.624 254.484 324.64 255.028 325.968C255.588 327.28 255.868 328.832 255.868 330.624C255.868 332.416 255.588 333.968 255.028 335.28C254.468 336.592 253.66 337.6 252.604 338.304C251.564 339.008 250.324 339.36 248.884 339.36ZM248.884 337.2C250.308 337.2 251.42 336.616 252.22 335.448C253.036 334.264 253.444 332.664 253.444 330.648C253.444 328.632 253.044 327.032 252.244 325.848C251.444 324.664 250.324 324.072 248.884 324.072C247.444 324.072 246.324 324.664 245.524 325.848C244.724 327.032 244.324 328.632 244.324 330.648C244.324 332.664 244.724 334.264 245.524 335.448C246.34 336.616 247.46 337.2 248.884 337.2ZM258.999 337.728H261.543L259.263 342.552H257.055L258.999 337.728ZM264.311 330.864H271.967V332.856H264.311V330.864ZM104.837 366.224H107.285L113.261 379.304L119.237 366.224H121.685V383H119.309V371.072L113.861 383H112.661L107.189 371.072V383H104.837V366.224ZM131.742 383.36C129.614 383.36 127.942 382.832 126.726 381.776C125.526 380.704 124.926 379.2 124.926 377.264C124.926 375.376 125.462 373.88 126.534 372.776C127.622 371.672 129.166 371.12 131.166 371.12C132.494 371.12 133.622 371.376 134.55 371.888C135.478 372.384 136.174 373.08 136.638 373.976C137.118 374.856 137.358 375.864 137.358 377V378.2H127.23C127.31 379.288 127.766 380.104 128.598 380.648C129.446 381.176 130.59 381.44 132.03 381.44C132.766 381.44 133.51 381.376 134.262 381.248C135.014 381.104 135.678 380.92 136.254 380.696V382.64C135.742 382.848 135.062 383.016 134.214 383.144C133.382 383.288 132.558 383.36 131.742 383.36ZM135.078 376.496C135.046 375.408 134.686 374.568 133.998 373.976C133.326 373.368 132.366 373.064 131.118 373.064C129.902 373.064 128.958 373.376 128.286 374C127.614 374.624 127.262 375.456 127.23 376.496H135.078ZM140.608 371.48H142.96V373.544C143.44 372.84 144.112 372.32 144.976 371.984C145.856 371.648 146.872 371.48 148.024 371.48V373.376C146.792 373.376 145.736 373.576 144.856 373.976C143.976 374.376 143.368 375.008 143.032 375.872V383H140.608V371.48ZM156.748 383.36C155.468 383.36 154.332 383.12 153.34 382.64C152.348 382.16 151.572 381.464 151.012 380.552C150.468 379.624 150.196 378.528 150.196 377.264C150.196 376 150.468 374.912 151.012 374C151.572 373.072 152.348 372.36 153.34 371.864C154.348 371.368 155.5 371.12 156.796 371.12C158.556 371.12 159.964 371.464 161.02 372.152V374.144C159.98 373.424 158.652 373.064 157.036 373.064C155.724 373.064 154.66 373.424 153.844 374.144C153.044 374.848 152.644 375.888 152.644 377.264C152.644 378.64 153.044 379.68 153.844 380.384C154.644 381.088 155.692 381.44 156.988 381.44C158.604 381.44 159.996 381.056 161.164 380.288V382.256C160.604 382.64 159.964 382.92 159.244 383.096C158.54 383.272 157.708 383.36 156.748 383.36ZM164.401 365.264H166.825V373.064C167.929 371.768 169.401 371.12 171.241 371.12C172.777 371.12 173.921 371.528 174.673 372.344C175.425 373.16 175.801 374.256 175.801 375.632V383H173.377V375.872C173.377 374 172.481 373.064 170.689 373.064C169.921 373.064 169.201 373.248 168.529 373.616C167.873 373.968 167.305 374.512 166.825 375.248V383H164.401V365.264ZM183.168 383.36C181.776 383.36 180.656 383.008 179.808 382.304C178.976 381.584 178.56 380.616 178.56 379.4C178.56 378.12 178.96 377.136 179.76 376.448C180.576 375.744 181.728 375.392 183.216 375.392C184.8 375.392 186.144 375.712 187.248 376.352V375.752C187.248 374.84 186.968 374.168 186.408 373.736C185.864 373.288 185 373.064 183.816 373.064C183.112 373.064 182.424 373.136 181.752 373.28C181.096 373.408 180.504 373.592 179.976 373.832V371.864C180.456 371.64 181.08 371.464 181.848 371.336C182.616 371.192 183.36 371.12 184.08 371.12C185.984 371.12 187.392 371.544 188.304 372.392C189.232 373.224 189.696 374.384 189.696 375.872V383H187.416V381.704C186.92 382.248 186.328 382.664 185.64 382.952C184.968 383.224 184.144 383.36 183.168 383.36ZM183.768 381.512C184.536 381.512 185.232 381.36 185.856 381.056C186.48 380.752 186.944 380.328 187.248 379.784V378.224C186.208 377.552 185.048 377.216 183.768 377.216C182.84 377.216 182.144 377.4 181.68 377.768C181.232 378.12 181.008 378.664 181.008 379.4C181.008 380.808 181.928 381.512 183.768 381.512ZM193.305 371.48H195.657V373.136C196.201 372.448 196.865 371.944 197.649 371.624C198.449 371.288 199.281 371.12 200.145 371.12C201.681 371.12 202.825 371.528 203.577 372.344C204.329 373.16 204.705 374.256 204.705 375.632V383H202.281V375.872C202.281 374 201.385 373.064 199.593 373.064C198.825 373.064 198.105 373.248 197.433 373.616C196.777 373.968 196.209 374.512 195.729 375.248V383H193.305V371.48ZM213.863 383.36C212.711 383.36 211.671 383.112 210.743 382.616C209.831 382.104 209.111 381.392 208.583 380.48C208.071 379.552 207.815 378.48 207.815 377.264C207.815 376.064 208.071 375 208.583 374.072C209.111 373.144 209.831 372.424 210.743 371.912C211.671 371.384 212.711 371.12 213.863 371.12C215.943 371.12 217.519 371.752 218.591 373.016V365.264H221.015V383H218.663V381.32C218.023 382.024 217.319 382.544 216.551 382.88C215.799 383.2 214.903 383.36 213.863 383.36ZM214.415 381.44C215.407 381.44 216.271 381.184 217.007 380.672C217.759 380.144 218.287 379.44 218.591 378.56V375.968C218.319 375.088 217.799 374.384 217.031 373.856C216.279 373.328 215.407 373.064 214.415 373.064C213.631 373.064 212.919 373.24 212.279 373.592C211.655 373.944 211.159 374.44 210.791 375.08C210.439 375.72 210.263 376.448 210.263 377.264C210.263 378.08 210.439 378.808 210.791 379.448C211.159 380.088 211.655 380.584 212.279 380.936C212.919 381.272 213.631 381.44 214.415 381.44ZM226.155 369.224C225.755 369.224 225.419 369.088 225.147 368.816C224.875 368.544 224.739 368.208 224.739 367.808C224.739 367.408 224.875 367.072 225.147 366.8C225.419 366.528 225.755 366.392 226.155 366.392C226.571 366.392 226.915 366.528 227.187 366.8C227.475 367.072 227.619 367.408 227.619 367.808C227.619 368.208 227.475 368.544 227.187 368.816C226.915 369.088 226.571 369.224 226.155 369.224ZM224.931 371.48H227.403V383H224.931V371.48ZM235.587 383.36C234.787 383.36 233.939 383.256 233.043 383.048C232.147 382.856 231.443 382.592 230.931 382.256V380.192C231.555 380.56 232.275 380.864 233.091 381.104C233.907 381.328 234.699 381.44 235.467 381.44C236.331 381.44 236.963 381.336 237.363 381.128C237.763 380.92 237.963 380.584 237.963 380.12C237.963 379.768 237.867 379.488 237.675 379.28C237.499 379.056 237.187 378.856 236.739 378.68C236.307 378.504 235.651 378.296 234.771 378.056C233.827 377.784 233.075 377.512 232.515 377.24C231.971 376.952 231.555 376.592 231.267 376.16C230.995 375.728 230.859 375.168 230.859 374.48C230.859 373.376 231.291 372.544 232.155 371.984C233.035 371.408 234.211 371.12 235.683 371.12C236.451 371.12 237.203 371.192 237.939 371.336C238.675 371.48 239.267 371.68 239.715 371.936V373.952C239.251 373.68 238.675 373.464 237.987 373.304C237.315 373.144 236.627 373.064 235.923 373.064C235.075 373.064 234.427 373.168 233.979 373.376C233.531 373.584 233.307 373.952 233.307 374.48C233.307 374.816 233.403 375.088 233.595 375.296C233.787 375.504 234.091 375.688 234.507 375.848C234.939 375.992 235.619 376.184 236.547 376.424C238.003 376.824 239.011 377.296 239.571 377.84C240.147 378.384 240.435 379.136 240.435 380.096C240.435 381.088 240.027 381.88 239.211 382.472C238.395 383.064 237.187 383.36 235.587 383.36ZM250.017 383.36C247.889 383.36 246.217 382.832 245.001 381.776C243.801 380.704 243.201 379.2 243.201 377.264C243.201 375.376 243.737 373.88 244.809 372.776C245.897 371.672 247.441 371.12 249.441 371.12C250.769 371.12 251.897 371.376 252.825 371.888C253.753 372.384 254.449 373.08 254.913 373.976C255.393 374.856 255.633 375.864 255.633 377V378.2H245.505C245.585 379.288 246.041 380.104 246.873 380.648C247.721 381.176 248.865 381.44 250.305 381.44C251.041 381.44 251.785 381.376 252.537 381.248C253.289 381.104 253.953 380.92 254.529 380.696V382.64C254.017 382.848 253.337 383.016 252.489 383.144C251.657 383.288 250.833 383.36 250.017 383.36ZM253.353 376.496C253.321 375.408 252.961 374.568 252.273 373.976C251.601 373.368 250.641 373.064 249.393 373.064C248.177 373.064 247.233 373.376 246.561 374C245.889 374.624 245.537 375.456 245.505 376.496H253.353ZM127.178 427.36C125.45 427.36 123.914 427 122.57 426.28C121.226 425.56 120.178 424.544 119.426 423.232C118.674 421.904 118.298 420.368 118.298 418.624C118.298 416.88 118.674 415.344 119.426 414.016C120.178 412.688 121.226 411.664 122.57 410.944C123.914 410.224 125.45 409.864 127.178 409.864C129.482 409.864 131.41 410.448 132.962 411.616V413.968C131.57 412.736 129.714 412.12 127.394 412.12C126.098 412.12 124.946 412.384 123.938 412.912C122.946 413.44 122.17 414.2 121.61 415.192C121.05 416.168 120.77 417.312 120.77 418.624C120.77 419.936 121.05 421.088 121.61 422.08C122.186 423.072 122.97 423.832 123.962 424.36C124.97 424.888 126.114 425.152 127.394 425.152C128.578 425.152 129.634 425 130.562 424.696C131.506 424.376 132.378 423.872 133.178 423.184V425.56C131.738 426.76 129.738 427.36 127.178 427.36ZM142.753 427.36C140.625 427.36 138.953 426.832 137.737 425.776C136.537 424.704 135.937 423.2 135.937 421.264C135.937 419.376 136.473 417.88 137.545 416.776C138.633 415.672 140.177 415.12 142.177 415.12C143.505 415.12 144.633 415.376 145.561 415.888C146.489 416.384 147.185 417.08 147.649 417.976C148.129 418.856 148.369 419.864 148.369 421V422.2H138.241C138.321 423.288 138.777 424.104 139.609 424.648C140.457 425.176 141.601 425.44 143.041 425.44C143.777 425.44 144.521 425.376 145.273 425.248C146.025 425.104 146.689 424.92 147.265 424.696V426.64C146.753 426.848 146.073 427.016 145.225 427.144C144.393 427.288 143.569 427.36 142.753 427.36ZM146.089 420.496C146.057 419.408 145.697 418.568 145.009 417.976C144.337 417.368 143.377 417.064 142.129 417.064C140.913 417.064 139.969 417.376 139.297 418C138.625 418.624 138.273 419.456 138.241 420.496H146.089ZM151.619 415.48H153.971V417.544C154.451 416.84 155.123 416.32 155.987 415.984C156.867 415.648 157.883 415.48 159.035 415.48V417.376C157.803 417.376 156.747 417.576 155.867 417.976C154.987 418.376 154.379 419.008 154.043 419.872V427H151.619V415.48ZM166.245 427.36C165.077 427.36 164.173 427.024 163.533 426.352C162.909 425.68 162.597 424.728 162.597 423.496V417.352H160.845V415.48H162.597V412.024H165.045V415.48H167.877V417.352H165.045V423.328C165.045 424.096 165.189 424.64 165.477 424.96C165.781 425.28 166.325 425.44 167.109 425.44C167.573 425.44 168.037 425.336 168.501 425.128V427.048C167.893 427.256 167.141 427.36 166.245 427.36ZM172.797 413.224C172.397 413.224 172.061 413.088 171.789 412.816C171.517 412.544 171.381 412.208 171.381 411.808C171.381 411.408 171.517 411.072 171.789 410.8C172.061 410.528 172.397 410.392 172.797 410.392C173.213 410.392 173.557 410.528 173.829 410.8C174.117 411.072 174.261 411.408 174.261 411.808C174.261 412.208 174.117 412.544 173.829 412.816C173.557 413.088 173.213 413.224 172.797 413.224ZM171.573 415.48H174.045V427H171.573V415.48ZM178.773 417.352H177.021V415.48H178.773V413.296C178.773 411.968 179.197 410.944 180.045 410.224C180.893 409.504 181.949 409.144 183.213 409.144C183.853 409.144 184.477 409.24 185.085 409.432V411.4C184.637 411.224 184.173 411.136 183.693 411.136C182.877 411.136 182.253 411.336 181.821 411.736C181.405 412.12 181.197 412.688 181.197 413.44V415.48H188.973V427H186.549V417.352H181.197V427H178.773V417.352ZM187.749 413.224C187.333 413.224 186.989 413.088 186.717 412.816C186.445 412.544 186.309 412.208 186.309 411.808C186.309 411.408 186.445 411.072 186.717 410.8C187.005 410.528 187.349 410.392 187.749 410.392C188.149 410.392 188.485 410.528 188.757 410.8C189.045 411.072 189.189 411.408 189.189 411.808C189.189 412.208 189.045 412.544 188.757 412.816C188.485 413.088 188.149 413.224 187.749 413.224ZM198.973 427.36C197.693 427.36 196.557 427.12 195.565 426.64C194.573 426.16 193.797 425.464 193.237 424.552C192.693 423.624 192.421 422.528 192.421 421.264C192.421 420 192.693 418.912 193.237 418C193.797 417.072 194.573 416.36 195.565 415.864C196.573 415.368 197.725 415.12 199.021 415.12C200.781 415.12 202.189 415.464 203.245 416.152V418.144C202.205 417.424 200.877 417.064 199.261 417.064C197.949 417.064 196.885 417.424 196.069 418.144C195.269 418.848 194.869 419.888 194.869 421.264C194.869 422.64 195.269 423.68 196.069 424.384C196.869 425.088 197.917 425.44 199.213 425.44C200.829 425.44 202.221 425.056 203.389 424.288V426.256C202.829 426.64 202.189 426.92 201.469 427.096C200.765 427.272 199.933 427.36 198.973 427.36ZM210.637 427.36C209.245 427.36 208.125 427.008 207.277 426.304C206.445 425.584 206.029 424.616 206.029 423.4C206.029 422.12 206.429 421.136 207.229 420.448C208.045 419.744 209.197 419.392 210.685 419.392C212.269 419.392 213.613 419.712 214.717 420.352V419.752C214.717 418.84 214.437 418.168 213.877 417.736C213.333 417.288 212.469 417.064 211.285 417.064C210.581 417.064 209.893 417.136 209.221 417.28C208.565 417.408 207.973 417.592 207.445 417.832V415.864C207.925 415.64 208.549 415.464 209.317 415.336C210.085 415.192 210.829 415.12 211.549 415.12C213.453 415.12 214.861 415.544 215.773 416.392C216.701 417.224 217.165 418.384 217.165 419.872V427H214.885V425.704C214.389 426.248 213.797 426.664 213.109 426.952C212.437 427.224 211.613 427.36 210.637 427.36ZM211.237 425.512C212.005 425.512 212.701 425.36 213.325 425.056C213.949 424.752 214.413 424.328 214.717 423.784V422.224C213.677 421.552 212.517 421.216 211.237 421.216C210.309 421.216 209.613 421.4 209.149 421.768C208.701 422.12 208.477 422.664 208.477 423.4C208.477 424.808 209.397 425.512 211.237 425.512ZM224.604 427.36C223.436 427.36 222.532 427.024 221.892 426.352C221.268 425.68 220.956 424.728 220.956 423.496V417.352H219.204V415.48H220.956V412.024H223.404V415.48H226.236V417.352H223.404V423.328C223.404 424.096 223.548 424.64 223.836 424.96C224.14 425.28 224.684 425.44 225.468 425.44C225.932 425.44 226.396 425.336 226.86 425.128V427.048C226.252 427.256 225.5 427.36 224.604 427.36ZM236.076 427.36C233.948 427.36 232.276 426.832 231.06 425.776C229.86 424.704 229.26 423.2 229.26 421.264C229.26 419.376 229.796 417.88 230.868 416.776C231.956 415.672 233.5 415.12 235.5 415.12C236.828 415.12 237.956 415.376 238.884 415.888C239.812 416.384 240.508 417.08 240.972 417.976C241.452 418.856 241.692 419.864 241.692 421V422.2H231.564C231.644 423.288 232.1 424.104 232.932 424.648C233.78 425.176 234.924 425.44 236.364 425.44C237.1 425.44 237.844 425.376 238.596 425.248C239.348 425.104 240.012 424.92 240.588 424.696V426.64C240.076 426.848 239.396 427.016 238.548 427.144C237.716 427.288 236.892 427.36 236.076 427.36ZM239.412 420.496C239.38 419.408 239.02 418.568 238.332 417.976C237.66 417.368 236.7 417.064 235.452 417.064C234.236 417.064 233.292 417.376 232.62 418C231.948 418.624 231.596 419.456 231.564 420.496H239.412Z" fill="white"/>
<defs>
<filter id="filter0_bii_566_688" x="-172" y="-172" width="703" height="845" filterUnits="userSpaceOnUse" color-interpolation-filters="sRGB">
<feFlood flood-opacity="0" result="BackgroundImageFix"/>
<feGaussianBlur in="BackgroundImage" stdDeviation="86"/>
<feComposite in2="SourceAlpha" operator="in" result="effect1_backgroundBlur_566_688"/>
<feBlend mode="normal" in="SourceGraphic" in2="effect1_backgroundBlur_566_688" result="shape"/>
<feColorMatrix in="SourceAlpha" type="matrix" values="0 0 0 0 0 0 0 0 0 0 0 0 0 0 0 0 0 0 127 0" result="hardAlpha"/>
<feOffset dx="-28.6667" dy="28.6667"/>
<feGaussianBlur stdDeviation="14.3333"/>
<feComposite in2="hardAlpha" operator="arithmetic" k2="-1" k3="1"/>
<feColorMatrix type="matrix" values="0 0 0 0 1 0 0 0 0 1 0 0 0 0 1 0 0 0 0.2 0"/>
<feBlend mode="normal" in2="shape" result="effect2_innerShadow_566_688"/>
<feColorMatrix in="SourceAlpha" type="matrix" values="0 0 0 0 0 0 0 0 0 0 0 0 0 0 0 0 0 0 127 0" result="hardAlpha"/>
<feOffset dx="28.6667" dy="-28.6667"/>
<feGaussianBlur stdDeviation="14.3333"/>
<feComposite in2="hardAlpha" operator="arithmetic" k2="-1" k3="1"/>
<feColorMatrix type="matrix" values="0 0 0 0 0.76 0 0 0 0 0.76 0 0 0 0 0.76 0 0 0 0.2 0"/>
<feBlend mode="normal" in2="effect2_innerShadow_566_688" result="effect3_innerShadow_566_688"/>
</filter>
<radialGradient id="paint0_radial_566_688" cx="0" cy="0" r="1" gradientUnits="userSpaceOnUse" gradientTransform="translate(72 76.5) rotate(65.8874) scale(465.081 333.262)">
<stop stop-color="white"/>
<stop offset="1" stop-color="white" stop-opacity="0"/>
</radialGradient>
</defs>
</svg>
