<svg width="359" height="501" viewBox="0 0 359 501" fill="none" xmlns="http://www.w3.org/2000/svg">
<g filter="url(#filter0_bii_664_319)">
<rect width="359" height="501" rx="72" fill="white" fill-opacity="0.2"/>
<rect width="359" height="501" rx="72" fill="url(#paint0_radial_664_319)" fill-opacity="0.4"/>
<rect x="0.375" y="0.375" width="358.25" height="500.25" rx="71.625" stroke="white" stroke-width="0.75"/>
</g>
<path d="M76.336 281.72C74.256 281.72 72.272 281.544 70.384 281.192C68.496 280.872 66.88 280.376 65.536 279.704V274.04C68.64 275.448 71.888 276.152 75.28 276.152C77.776 276.152 79.632 275.736 80.848 274.904C82.096 274.072 82.72 272.888 82.72 271.352C82.72 269.72 82.112 268.568 80.896 267.896C79.68 267.192 77.808 266.84 75.28 266.84H70.864V261.272H75.088C77.168 261.272 78.784 260.904 79.936 260.168C81.12 259.4 81.712 258.28 81.712 256.808C81.712 255.336 81.184 254.216 80.128 253.448C79.072 252.68 77.6 252.296 75.712 252.296C73.92 252.296 72.256 252.52 70.72 252.968C69.216 253.384 67.744 254.056 66.304 254.984V249.224C67.744 248.424 69.36 247.816 71.152 247.4C72.944 246.952 74.8 246.728 76.72 246.728C80.912 246.728 84.032 247.592 86.08 249.32C88.128 251.016 89.152 253.416 89.152 256.52C89.152 258.056 88.752 259.496 87.952 260.84C87.184 262.152 86.032 263.208 84.496 264.008C88.24 265.384 90.112 267.944 90.112 271.688C90.112 278.376 85.52 281.72 76.336 281.72ZM95.3991 257.96H102.407V261.272C103.335 260.152 104.631 259.304 106.295 258.728C107.959 258.12 109.847 257.816 111.959 257.816V263.336C109.751 263.336 107.799 263.672 106.103 264.344C104.439 265.016 103.287 266.04 102.647 267.416V281H95.3991V257.96ZM126.769 281.72C124.401 281.72 122.289 281.224 120.433 280.232C118.609 279.208 117.169 277.784 116.113 275.96C115.089 274.104 114.577 271.96 114.577 269.528C114.577 267.128 115.089 265 116.113 263.144C117.137 261.288 118.577 259.848 120.433 258.824C122.289 257.768 124.401 257.24 126.769 257.24C128.497 257.24 130.081 257.48 131.521 257.96C132.961 258.44 134.177 259.128 135.169 260.024V245.528H142.417V281H135.409V278.504C134.225 279.624 132.929 280.44 131.521 280.952C130.145 281.464 128.561 281.72 126.769 281.72ZM128.641 276.104C130.145 276.104 131.473 275.704 132.625 274.904C133.809 274.104 134.657 273.032 135.169 271.688V267.32C134.721 266.008 133.889 264.952 132.673 264.152C131.489 263.32 130.145 262.904 128.641 262.904C126.689 262.904 125.089 263.512 123.841 264.728C122.625 265.944 122.017 267.544 122.017 269.528C122.017 271.512 122.625 273.112 123.841 274.328C125.089 275.512 126.689 276.104 128.641 276.104ZM166.64 247.448H180.752C184.56 247.448 187.6 248.456 189.872 250.472C192.144 252.456 193.28 255.224 193.28 258.776C193.28 262.424 192.144 265.224 189.872 267.176C187.632 269.128 184.592 270.104 180.752 270.104H173.936V281H166.64V247.448ZM179.696 264.008C183.824 264.008 185.888 262.264 185.888 258.776C185.888 256.824 185.328 255.464 184.208 254.696C183.12 253.928 181.616 253.544 179.696 253.544H173.936V264.008H179.696ZM197.84 245.528H205.088V281H197.84V245.528ZM219.913 281.72C217.097 281.72 214.793 281.016 213.001 279.608C211.241 278.168 210.361 276.216 210.361 273.752C210.361 271.192 211.209 269.208 212.905 267.8C214.601 266.36 217.001 265.64 220.105 265.64C221.481 265.64 222.793 265.784 224.041 266.072C225.289 266.36 226.393 266.76 227.353 267.272V266.696C227.353 265.256 226.841 264.2 225.817 263.528C224.793 262.856 223.225 262.52 221.113 262.52C218.297 262.52 215.705 263.048 213.337 264.104V258.824C214.361 258.376 215.689 258.008 217.321 257.72C218.953 257.4 220.585 257.24 222.217 257.24C226.377 257.24 229.481 258.104 231.529 259.832C233.577 261.528 234.601 263.912 234.601 266.984V281H227.785V278.888C225.833 280.776 223.209 281.72 219.913 281.72ZM221.881 276.92C223.065 276.92 224.137 276.696 225.097 276.248C226.057 275.8 226.809 275.176 227.353 274.376V272.072C225.721 270.984 223.929 270.44 221.977 270.44C220.633 270.44 219.593 270.728 218.857 271.304C218.153 271.848 217.801 272.664 217.801 273.752C217.801 274.776 218.153 275.56 218.857 276.104C219.561 276.648 220.569 276.92 221.881 276.92ZM252.334 281.72C248.174 281.72 244.862 280.664 242.398 278.552C239.934 276.408 238.702 273.4 238.702 269.528C238.702 265.656 239.934 262.648 242.398 260.504C244.894 258.328 248.222 257.24 252.382 257.24C256.158 257.24 259.166 257.944 261.406 259.352V265.064C260.382 264.328 259.182 263.784 257.806 263.432C256.462 263.08 255.038 262.904 253.534 262.904C251.294 262.904 249.502 263.448 248.158 264.536C246.814 265.624 246.142 267.288 246.142 269.528C246.142 271.768 246.798 273.432 248.11 274.52C249.454 275.576 251.246 276.104 253.486 276.104C256.59 276.104 259.326 275.352 261.694 273.848V279.512C259.326 280.984 256.206 281.72 252.334 281.72ZM280.172 281.72C275.756 281.72 272.284 280.664 269.756 278.552C267.228 276.408 265.964 273.416 265.964 269.576C265.964 265.768 267.084 262.76 269.324 260.552C271.596 258.344 274.828 257.24 279.02 257.24C281.772 257.24 284.108 257.752 286.028 258.776C287.948 259.8 289.404 261.224 290.396 263.048C291.388 264.84 291.884 266.872 291.884 269.144V272.072H272.876C273.388 275.016 276.14 276.488 281.132 276.488C282.604 276.488 284.124 276.36 285.692 276.104C287.26 275.848 288.62 275.496 289.772 275.048V280.136C288.652 280.616 287.212 281 285.452 281.288C283.692 281.576 281.932 281.72 280.172 281.72ZM285.02 267.368C284.924 265.832 284.348 264.648 283.292 263.816C282.236 262.952 280.78 262.52 278.924 262.52C277.1 262.52 275.66 262.952 274.604 263.816C273.548 264.68 272.972 265.864 272.876 267.368H285.02Z" fill="white"/>
<path d="M88.1569 322.224H94.9009C96.6929 322.224 98.0689 322.656 99.0289 323.52C99.9889 324.384 100.469 325.648 100.469 327.312C100.469 328.544 100.141 329.592 99.4849 330.456C98.8289 331.304 97.9009 331.88 96.7009 332.184L100.397 339H97.8529L94.2769 332.376H90.6049V339H88.1569V322.224ZM94.4929 330.312C95.5649 330.312 96.4129 330.064 97.0369 329.568C97.6769 329.056 97.9969 328.304 97.9969 327.312C97.9969 326.224 97.6849 325.448 97.0609 324.984C96.4529 324.52 95.5969 324.288 94.4929 324.288H90.6049V330.312H94.4929ZM103.71 327.48H106.062V329.184C107.246 327.808 108.846 327.12 110.862 327.12C112.014 327.12 113.046 327.376 113.958 327.888C114.886 328.4 115.606 329.12 116.118 330.048C116.646 330.96 116.91 332.024 116.91 333.24C116.91 334.44 116.646 335.504 116.118 336.432C115.606 337.36 114.894 338.08 113.982 338.592C113.07 339.104 112.03 339.36 110.862 339.36C109.902 339.36 109.006 339.2 108.174 338.88C107.342 338.56 106.662 338.088 106.134 337.464V344.256H103.71V327.48ZM110.31 337.44C111.094 337.44 111.798 337.272 112.422 336.936C113.062 336.584 113.558 336.088 113.91 335.448C114.278 334.808 114.462 334.072 114.462 333.24C114.462 332.408 114.278 331.68 113.91 331.056C113.558 330.416 113.062 329.928 112.422 329.592C111.798 329.24 111.094 329.064 110.31 329.064C109.334 329.064 108.47 329.32 107.718 329.832C106.982 330.344 106.454 331.048 106.134 331.944V334.536C106.406 335.416 106.926 336.12 107.694 336.648C108.462 337.176 109.334 337.44 110.31 337.44ZM120.802 339C120.482 339 120.21 338.896 119.986 338.688C119.778 338.464 119.674 338.192 119.674 337.872C119.674 337.552 119.778 337.28 119.986 337.056C120.21 336.832 120.482 336.72 120.802 336.72C121.122 336.72 121.394 336.832 121.618 337.056C121.842 337.28 121.954 337.552 121.954 337.872C121.954 338.192 121.842 338.464 121.618 338.688C121.394 338.896 121.122 339 120.802 339ZM139.298 339.36C138.322 339.36 137.386 339.28 136.49 339.12C135.61 338.976 134.842 338.752 134.186 338.448V336.432C135.674 337.104 137.274 337.44 138.986 337.44C140.458 337.44 141.546 337.176 142.25 336.648C142.97 336.104 143.33 335.336 143.33 334.344C143.33 333.32 142.962 332.592 142.226 332.16C141.49 331.712 140.37 331.488 138.866 331.488H136.898V329.52H138.818C140.018 329.52 140.986 329.28 141.722 328.8C142.458 328.304 142.826 327.584 142.826 326.64C142.826 325.712 142.522 325.008 141.914 324.528C141.306 324.048 140.426 323.808 139.274 323.808C138.378 323.808 137.57 323.912 136.85 324.12C136.13 324.328 135.386 324.672 134.618 325.152V323.136C136.026 322.288 137.674 321.864 139.562 321.864C141.434 321.864 142.858 322.28 143.834 323.112C144.81 323.944 145.298 325.096 145.298 326.568C145.298 327.464 145.058 328.248 144.578 328.92C144.098 329.592 143.378 330.112 142.418 330.48C143.506 330.736 144.338 331.2 144.914 331.872C145.506 332.544 145.802 333.392 145.802 334.416C145.802 335.936 145.282 337.144 144.242 338.04C143.202 338.92 141.554 339.36 139.298 339.36ZM149.696 339C149.376 339 149.104 338.896 148.88 338.688C148.672 338.464 148.568 338.192 148.568 337.872C148.568 337.552 148.672 337.28 148.88 337.056C149.104 336.832 149.376 336.72 149.696 336.72C150.016 336.72 150.288 336.832 150.512 337.056C150.736 337.28 150.848 337.552 150.848 337.872C150.848 338.192 150.736 338.464 150.512 338.688C150.288 338.896 150.016 339 149.696 339ZM160.581 339.36C159.141 339.36 157.893 339.008 156.837 338.304C155.797 337.6 154.997 336.592 154.437 335.28C153.877 333.968 153.597 332.416 153.597 330.624C153.597 328.832 153.869 327.28 154.413 325.968C154.973 324.64 155.773 323.624 156.813 322.92C157.869 322.216 159.125 321.864 160.581 321.864C162.037 321.864 163.285 322.216 164.325 322.92C165.381 323.624 166.181 324.64 166.725 325.968C167.285 327.28 167.565 328.832 167.565 330.624C167.565 332.416 167.285 333.968 166.725 335.28C166.165 336.592 165.357 337.6 164.301 338.304C163.261 339.008 162.021 339.36 160.581 339.36ZM160.581 337.2C162.005 337.2 163.117 336.616 163.917 335.448C164.733 334.264 165.141 332.664 165.141 330.648C165.141 328.632 164.741 327.032 163.941 325.848C163.141 324.664 162.021 324.072 160.581 324.072C159.141 324.072 158.021 324.664 157.221 325.848C156.421 327.032 156.021 328.632 156.021 330.648C156.021 332.664 156.421 334.264 157.221 335.448C158.037 336.616 159.157 337.2 160.581 337.2ZM177.306 339.36C175.866 339.36 174.618 339.008 173.562 338.304C172.522 337.6 171.722 336.592 171.162 335.28C170.602 333.968 170.322 332.416 170.322 330.624C170.322 328.832 170.594 327.28 171.138 325.968C171.698 324.64 172.498 323.624 173.538 322.92C174.594 322.216 175.85 321.864 177.306 321.864C178.762 321.864 180.01 322.216 181.05 322.92C182.106 323.624 182.906 324.64 183.45 325.968C184.01 327.28 184.29 328.832 184.29 330.624C184.29 332.416 184.01 333.968 183.45 335.28C182.89 336.592 182.082 337.6 181.026 338.304C179.986 339.008 178.746 339.36 177.306 339.36ZM177.306 337.2C178.73 337.2 179.842 336.616 180.642 335.448C181.458 334.264 181.866 332.664 181.866 330.648C181.866 328.632 181.466 327.032 180.666 325.848C179.866 324.664 178.746 324.072 177.306 324.072C175.866 324.072 174.746 324.664 173.946 325.848C173.146 327.032 172.746 328.632 172.746 330.648C172.746 332.664 173.146 334.264 173.946 335.448C174.762 336.616 175.882 337.2 177.306 337.2ZM194.031 339.36C192.591 339.36 191.343 339.008 190.287 338.304C189.247 337.6 188.447 336.592 187.887 335.28C187.327 333.968 187.047 332.416 187.047 330.624C187.047 328.832 187.319 327.28 187.863 325.968C188.423 324.64 189.223 323.624 190.263 322.92C191.319 322.216 192.575 321.864 194.031 321.864C195.487 321.864 196.735 322.216 197.775 322.92C198.831 323.624 199.631 324.64 200.175 325.968C200.735 327.28 201.015 328.832 201.015 330.624C201.015 332.416 200.735 333.968 200.175 335.28C199.615 336.592 198.807 337.6 197.751 338.304C196.711 339.008 195.471 339.36 194.031 339.36ZM194.031 337.2C195.455 337.2 196.567 336.616 197.367 335.448C198.183 334.264 198.591 332.664 198.591 330.648C198.591 328.632 198.191 327.032 197.391 325.848C196.591 324.664 195.471 324.072 194.031 324.072C192.591 324.072 191.471 324.664 190.671 325.848C189.871 327.032 189.471 328.632 189.471 330.648C189.471 332.664 189.871 334.264 190.671 335.448C191.487 336.616 192.607 337.2 194.031 337.2ZM204.9 339C204.58 339 204.308 338.896 204.084 338.688C203.876 338.464 203.772 338.192 203.772 337.872C203.772 337.552 203.876 337.28 204.084 337.056C204.308 336.832 204.58 336.72 204.9 336.72C205.22 336.72 205.492 336.832 205.716 337.056C205.94 337.28 206.052 337.552 206.052 337.872C206.052 338.192 205.94 338.464 205.716 338.688C205.492 338.896 205.22 339 204.9 339ZM215.786 339.36C214.346 339.36 213.098 339.008 212.042 338.304C211.002 337.6 210.202 336.592 209.642 335.28C209.082 333.968 208.802 332.416 208.802 330.624C208.802 328.832 209.074 327.28 209.618 325.968C210.178 324.64 210.978 323.624 212.018 322.92C213.074 322.216 214.33 321.864 215.786 321.864C217.242 321.864 218.49 322.216 219.53 322.92C220.586 323.624 221.386 324.64 221.93 325.968C222.49 327.28 222.77 328.832 222.77 330.624C222.77 332.416 222.49 333.968 221.93 335.28C221.37 336.592 220.562 337.6 219.506 338.304C218.466 339.008 217.226 339.36 215.786 339.36ZM215.786 337.2C217.21 337.2 218.322 336.616 219.122 335.448C219.938 334.264 220.346 332.664 220.346 330.648C220.346 328.632 219.946 327.032 219.146 325.848C218.346 324.664 217.226 324.072 215.786 324.072C214.346 324.072 213.226 324.664 212.426 325.848C211.626 327.032 211.226 328.632 211.226 330.648C211.226 332.664 211.626 334.264 212.426 335.448C213.242 336.616 214.362 337.2 215.786 337.2ZM232.511 339.36C231.071 339.36 229.823 339.008 228.767 338.304C227.727 337.6 226.927 336.592 226.367 335.28C225.807 333.968 225.527 332.416 225.527 330.624C225.527 328.832 225.799 327.28 226.343 325.968C226.903 324.64 227.703 323.624 228.743 322.92C229.799 322.216 231.055 321.864 232.511 321.864C233.967 321.864 235.215 322.216 236.255 322.92C237.311 323.624 238.111 324.64 238.655 325.968C239.215 327.28 239.495 328.832 239.495 330.624C239.495 332.416 239.215 333.968 238.655 335.28C238.095 336.592 237.287 337.6 236.231 338.304C235.191 339.008 233.951 339.36 232.511 339.36ZM232.511 337.2C233.935 337.2 235.047 336.616 235.847 335.448C236.663 334.264 237.071 332.664 237.071 330.648C237.071 328.632 236.671 327.032 235.871 325.848C235.071 324.664 233.951 324.072 232.511 324.072C231.071 324.072 229.951 324.664 229.151 325.848C228.351 327.032 227.951 328.632 227.951 330.648C227.951 332.664 228.351 334.264 229.151 335.448C229.967 336.616 231.087 337.2 232.511 337.2ZM249.236 339.36C247.796 339.36 246.548 339.008 245.492 338.304C244.452 337.6 243.652 336.592 243.092 335.28C242.532 333.968 242.252 332.416 242.252 330.624C242.252 328.832 242.524 327.28 243.068 325.968C243.628 324.64 244.428 323.624 245.468 322.92C246.524 322.216 247.78 321.864 249.236 321.864C250.692 321.864 251.94 322.216 252.98 322.92C254.036 323.624 254.836 324.64 255.38 325.968C255.94 327.28 256.22 328.832 256.22 330.624C256.22 332.416 255.94 333.968 255.38 335.28C254.82 336.592 254.012 337.6 252.956 338.304C251.916 339.008 250.676 339.36 249.236 339.36ZM249.236 337.2C250.66 337.2 251.772 336.616 252.572 335.448C253.388 334.264 253.796 332.664 253.796 330.648C253.796 328.632 253.396 327.032 252.596 325.848C251.796 324.664 250.676 324.072 249.236 324.072C247.796 324.072 246.676 324.664 245.876 325.848C245.076 327.032 244.676 328.632 244.676 330.648C244.676 332.664 245.076 334.264 245.876 335.448C246.692 336.616 247.812 337.2 249.236 337.2ZM259.351 337.728H261.895L259.615 342.552H257.407L259.351 337.728ZM264.663 330.864H272.319V332.856H264.663V330.864ZM104.837 366.224H107.285L113.261 379.304L119.237 366.224H121.685V383H119.309V371.072L113.861 383H112.661L107.189 371.072V383H104.837V366.224ZM131.742 383.36C129.614 383.36 127.942 382.832 126.726 381.776C125.526 380.704 124.926 379.2 124.926 377.264C124.926 375.376 125.462 373.88 126.534 372.776C127.622 371.672 129.166 371.12 131.166 371.12C132.494 371.12 133.622 371.376 134.55 371.888C135.478 372.384 136.174 373.08 136.638 373.976C137.118 374.856 137.358 375.864 137.358 377V378.2H127.23C127.31 379.288 127.766 380.104 128.598 380.648C129.446 381.176 130.59 381.44 132.03 381.44C132.766 381.44 133.51 381.376 134.262 381.248C135.014 381.104 135.678 380.92 136.254 380.696V382.64C135.742 382.848 135.062 383.016 134.214 383.144C133.382 383.288 132.558 383.36 131.742 383.36ZM135.078 376.496C135.046 375.408 134.686 374.568 133.998 373.976C133.326 373.368 132.366 373.064 131.118 373.064C129.902 373.064 128.958 373.376 128.286 374C127.614 374.624 127.262 375.456 127.23 376.496H135.078ZM140.608 371.48H142.96V373.544C143.44 372.84 144.112 372.32 144.976 371.984C145.856 371.648 146.872 371.48 148.024 371.48V373.376C146.792 373.376 145.736 373.576 144.856 373.976C143.976 374.376 143.368 375.008 143.032 375.872V383H140.608V371.48ZM156.748 383.36C155.468 383.36 154.332 383.12 153.34 382.64C152.348 382.16 151.572 381.464 151.012 380.552C150.468 379.624 150.196 378.528 150.196 377.264C150.196 376 150.468 374.912 151.012 374C151.572 373.072 152.348 372.36 153.34 371.864C154.348 371.368 155.5 371.12 156.796 371.12C158.556 371.12 159.964 371.464 161.02 372.152V374.144C159.98 373.424 158.652 373.064 157.036 373.064C155.724 373.064 154.66 373.424 153.844 374.144C153.044 374.848 152.644 375.888 152.644 377.264C152.644 378.64 153.044 379.68 153.844 380.384C154.644 381.088 155.692 381.44 156.988 381.44C158.604 381.44 159.996 381.056 161.164 380.288V382.256C160.604 382.64 159.964 382.92 159.244 383.096C158.54 383.272 157.708 383.36 156.748 383.36ZM164.401 365.264H166.825V373.064C167.929 371.768 169.401 371.12 171.241 371.12C172.777 371.12 173.921 371.528 174.673 372.344C175.425 373.16 175.801 374.256 175.801 375.632V383H173.377V375.872C173.377 374 172.481 373.064 170.689 373.064C169.921 373.064 169.201 373.248 168.529 373.616C167.873 373.968 167.305 374.512 166.825 375.248V383H164.401V365.264ZM183.168 383.36C181.776 383.36 180.656 383.008 179.808 382.304C178.976 381.584 178.56 380.616 178.56 379.4C178.56 378.12 178.96 377.136 179.76 376.448C180.576 375.744 181.728 375.392 183.216 375.392C184.8 375.392 186.144 375.712 187.248 376.352V375.752C187.248 374.84 186.968 374.168 186.408 373.736C185.864 373.288 185 373.064 183.816 373.064C183.112 373.064 182.424 373.136 181.752 373.28C181.096 373.408 180.504 373.592 179.976 373.832V371.864C180.456 371.64 181.08 371.464 181.848 371.336C182.616 371.192 183.36 371.12 184.08 371.12C185.984 371.12 187.392 371.544 188.304 372.392C189.232 373.224 189.696 374.384 189.696 375.872V383H187.416V381.704C186.92 382.248 186.328 382.664 185.64 382.952C184.968 383.224 184.144 383.36 183.168 383.36ZM183.768 381.512C184.536 381.512 185.232 381.36 185.856 381.056C186.48 380.752 186.944 380.328 187.248 379.784V378.224C186.208 377.552 185.048 377.216 183.768 377.216C182.84 377.216 182.144 377.4 181.68 377.768C181.232 378.12 181.008 378.664 181.008 379.4C181.008 380.808 181.928 381.512 183.768 381.512ZM193.305 371.48H195.657V373.136C196.201 372.448 196.865 371.944 197.649 371.624C198.449 371.288 199.281 371.12 200.145 371.12C201.681 371.12 202.825 371.528 203.577 372.344C204.329 373.16 204.705 374.256 204.705 375.632V383H202.281V375.872C202.281 374 201.385 373.064 199.593 373.064C198.825 373.064 198.105 373.248 197.433 373.616C196.777 373.968 196.209 374.512 195.729 375.248V383H193.305V371.48ZM213.863 383.36C212.711 383.36 211.671 383.112 210.743 382.616C209.831 382.104 209.111 381.392 208.583 380.48C208.071 379.552 207.815 378.48 207.815 377.264C207.815 376.064 208.071 375 208.583 374.072C209.111 373.144 209.831 372.424 210.743 371.912C211.671 371.384 212.711 371.12 213.863 371.12C215.943 371.12 217.519 371.752 218.591 373.016V365.264H221.015V383H218.663V381.32C218.023 382.024 217.319 382.544 216.551 382.88C215.799 383.2 214.903 383.36 213.863 383.36ZM214.415 381.44C215.407 381.44 216.271 381.184 217.007 380.672C217.759 380.144 218.287 379.44 218.591 378.56V375.968C218.319 375.088 217.799 374.384 217.031 373.856C216.279 373.328 215.407 373.064 214.415 373.064C213.631 373.064 212.919 373.24 212.279 373.592C211.655 373.944 211.159 374.44 210.791 375.08C210.439 375.72 210.263 376.448 210.263 377.264C210.263 378.08 210.439 378.808 210.791 379.448C211.159 380.088 211.655 380.584 212.279 380.936C212.919 381.272 213.631 381.44 214.415 381.44ZM226.155 369.224C225.755 369.224 225.419 369.088 225.147 368.816C224.875 368.544 224.739 368.208 224.739 367.808C224.739 367.408 224.875 367.072 225.147 366.8C225.419 366.528 225.755 366.392 226.155 366.392C226.571 366.392 226.915 366.528 227.187 366.8C227.475 367.072 227.619 367.408 227.619 367.808C227.619 368.208 227.475 368.544 227.187 368.816C226.915 369.088 226.571 369.224 226.155 369.224ZM224.931 371.48H227.403V383H224.931V371.48ZM235.587 383.36C234.787 383.36 233.939 383.256 233.043 383.048C232.147 382.856 231.443 382.592 230.931 382.256V380.192C231.555 380.56 232.275 380.864 233.091 381.104C233.907 381.328 234.699 381.44 235.467 381.44C236.331 381.44 236.963 381.336 237.363 381.128C237.763 380.92 237.963 380.584 237.963 380.12C237.963 379.768 237.867 379.488 237.675 379.28C237.499 379.056 237.187 378.856 236.739 378.68C236.307 378.504 235.651 378.296 234.771 378.056C233.827 377.784 233.075 377.512 232.515 377.24C231.971 376.952 231.555 376.592 231.267 376.16C230.995 375.728 230.859 375.168 230.859 374.48C230.859 373.376 231.291 372.544 232.155 371.984C233.035 371.408 234.211 371.12 235.683 371.12C236.451 371.12 237.203 371.192 237.939 371.336C238.675 371.48 239.267 371.68 239.715 371.936V373.952C239.251 373.68 238.675 373.464 237.987 373.304C237.315 373.144 236.627 373.064 235.923 373.064C235.075 373.064 234.427 373.168 233.979 373.376C233.531 373.584 233.307 373.952 233.307 374.48C233.307 374.816 233.403 375.088 233.595 375.296C233.787 375.504 234.091 375.688 234.507 375.848C234.939 375.992 235.619 376.184 236.547 376.424C238.003 376.824 239.011 377.296 239.571 377.84C240.147 378.384 240.435 379.136 240.435 380.096C240.435 381.088 240.027 381.88 239.211 382.472C238.395 383.064 237.187 383.36 235.587 383.36ZM250.017 383.36C247.889 383.36 246.217 382.832 245.001 381.776C243.801 380.704 243.201 379.2 243.201 377.264C243.201 375.376 243.737 373.88 244.809 372.776C245.897 371.672 247.441 371.12 249.441 371.12C250.769 371.12 251.897 371.376 252.825 371.888C253.753 372.384 254.449 373.08 254.913 373.976C255.393 374.856 255.633 375.864 255.633 377V378.2H245.505C245.585 379.288 246.041 380.104 246.873 380.648C247.721 381.176 248.865 381.44 250.305 381.44C251.041 381.44 251.785 381.376 252.537 381.248C253.289 381.104 253.953 380.92 254.529 380.696V382.64C254.017 382.848 253.337 383.016 252.489 383.144C251.657 383.288 250.833 383.36 250.017 383.36ZM253.353 376.496C253.321 375.408 252.961 374.568 252.273 373.976C251.601 373.368 250.641 373.064 249.393 373.064C248.177 373.064 247.233 373.376 246.561 374C245.889 374.624 245.537 375.456 245.505 376.496H253.353ZM127.178 427.36C125.45 427.36 123.914 427 122.57 426.28C121.226 425.56 120.178 424.544 119.426 423.232C118.674 421.904 118.298 420.368 118.298 418.624C118.298 416.88 118.674 415.344 119.426 414.016C120.178 412.688 121.226 411.664 122.57 410.944C123.914 410.224 125.45 409.864 127.178 409.864C129.482 409.864 131.41 410.448 132.962 411.616V413.968C131.57 412.736 129.714 412.12 127.394 412.12C126.098 412.12 124.946 412.384 123.938 412.912C122.946 413.44 122.17 414.2 121.61 415.192C121.05 416.168 120.77 417.312 120.77 418.624C120.77 419.936 121.05 421.088 121.61 422.08C122.186 423.072 122.97 423.832 123.962 424.36C124.97 424.888 126.114 425.152 127.394 425.152C128.578 425.152 129.634 425 130.562 424.696C131.506 424.376 132.378 423.872 133.178 423.184V425.56C131.738 426.76 129.738 427.36 127.178 427.36ZM142.753 427.36C140.625 427.36 138.953 426.832 137.737 425.776C136.537 424.704 135.937 423.2 135.937 421.264C135.937 419.376 136.473 417.88 137.545 416.776C138.633 415.672 140.177 415.12 142.177 415.12C143.505 415.12 144.633 415.376 145.561 415.888C146.489 416.384 147.185 417.08 147.649 417.976C148.129 418.856 148.369 419.864 148.369 421V422.2H138.241C138.321 423.288 138.777 424.104 139.609 424.648C140.457 425.176 141.601 425.44 143.041 425.44C143.777 425.44 144.521 425.376 145.273 425.248C146.025 425.104 146.689 424.92 147.265 424.696V426.64C146.753 426.848 146.073 427.016 145.225 427.144C144.393 427.288 143.569 427.36 142.753 427.36ZM146.089 420.496C146.057 419.408 145.697 418.568 145.009 417.976C144.337 417.368 143.377 417.064 142.129 417.064C140.913 417.064 139.969 417.376 139.297 418C138.625 418.624 138.273 419.456 138.241 420.496H146.089ZM151.619 415.48H153.971V417.544C154.451 416.84 155.123 416.32 155.987 415.984C156.867 415.648 157.883 415.48 159.035 415.48V417.376C157.803 417.376 156.747 417.576 155.867 417.976C154.987 418.376 154.379 419.008 154.043 419.872V427H151.619V415.48ZM166.245 427.36C165.077 427.36 164.173 427.024 163.533 426.352C162.909 425.68 162.597 424.728 162.597 423.496V417.352H160.845V415.48H162.597V412.024H165.045V415.48H167.877V417.352H165.045V423.328C165.045 424.096 165.189 424.64 165.477 424.96C165.781 425.28 166.325 425.44 167.109 425.44C167.573 425.44 168.037 425.336 168.501 425.128V427.048C167.893 427.256 167.141 427.36 166.245 427.36ZM172.797 413.224C172.397 413.224 172.061 413.088 171.789 412.816C171.517 412.544 171.381 412.208 171.381 411.808C171.381 411.408 171.517 411.072 171.789 410.8C172.061 410.528 172.397 410.392 172.797 410.392C173.213 410.392 173.557 410.528 173.829 410.8C174.117 411.072 174.261 411.408 174.261 411.808C174.261 412.208 174.117 412.544 173.829 412.816C173.557 413.088 173.213 413.224 172.797 413.224ZM171.573 415.48H174.045V427H171.573V415.48ZM178.773 417.352H177.021V415.48H178.773V413.296C178.773 411.968 179.197 410.944 180.045 410.224C180.893 409.504 181.949 409.144 183.213 409.144C183.853 409.144 184.477 409.24 185.085 409.432V411.4C184.637 411.224 184.173 411.136 183.693 411.136C182.877 411.136 182.253 411.336 181.821 411.736C181.405 412.12 181.197 412.688 181.197 413.44V415.48H188.973V427H186.549V417.352H181.197V427H178.773V417.352ZM187.749 413.224C187.333 413.224 186.989 413.088 186.717 412.816C186.445 412.544 186.309 412.208 186.309 411.808C186.309 411.408 186.445 411.072 186.717 410.8C187.005 410.528 187.349 410.392 187.749 410.392C188.149 410.392 188.485 410.528 188.757 410.8C189.045 411.072 189.189 411.408 189.189 411.808C189.189 412.208 189.045 412.544 188.757 412.816C188.485 413.088 188.149 413.224 187.749 413.224ZM198.973 427.36C197.693 427.36 196.557 427.12 195.565 426.64C194.573 426.16 193.797 425.464 193.237 424.552C192.693 423.624 192.421 422.528 192.421 421.264C192.421 420 192.693 418.912 193.237 418C193.797 417.072 194.573 416.36 195.565 415.864C196.573 415.368 197.725 415.12 199.021 415.12C200.781 415.12 202.189 415.464 203.245 416.152V418.144C202.205 417.424 200.877 417.064 199.261 417.064C197.949 417.064 196.885 417.424 196.069 418.144C195.269 418.848 194.869 419.888 194.869 421.264C194.869 422.64 195.269 423.68 196.069 424.384C196.869 425.088 197.917 425.44 199.213 425.44C200.829 425.44 202.221 425.056 203.389 424.288V426.256C202.829 426.64 202.189 426.92 201.469 427.096C200.765 427.272 199.933 427.36 198.973 427.36ZM210.637 427.36C209.245 427.36 208.125 427.008 207.277 426.304C206.445 425.584 206.029 424.616 206.029 423.4C206.029 422.12 206.429 421.136 207.229 420.448C208.045 419.744 209.197 419.392 210.685 419.392C212.269 419.392 213.613 419.712 214.717 420.352V419.752C214.717 418.84 214.437 418.168 213.877 417.736C213.333 417.288 212.469 417.064 211.285 417.064C210.581 417.064 209.893 417.136 209.221 417.28C208.565 417.408 207.973 417.592 207.445 417.832V415.864C207.925 415.64 208.549 415.464 209.317 415.336C210.085 415.192 210.829 415.12 211.549 415.12C213.453 415.12 214.861 415.544 215.773 416.392C216.701 417.224 217.165 418.384 217.165 419.872V427H214.885V425.704C214.389 426.248 213.797 426.664 213.109 426.952C212.437 427.224 211.613 427.36 210.637 427.36ZM211.237 425.512C212.005 425.512 212.701 425.36 213.325 425.056C213.949 424.752 214.413 424.328 214.717 423.784V422.224C213.677 421.552 212.517 421.216 211.237 421.216C210.309 421.216 209.613 421.4 209.149 421.768C208.701 422.12 208.477 422.664 208.477 423.4C208.477 424.808 209.397 425.512 211.237 425.512ZM224.604 427.36C223.436 427.36 222.532 427.024 221.892 426.352C221.268 425.68 220.956 424.728 220.956 423.496V417.352H219.204V415.48H220.956V412.024H223.404V415.48H226.236V417.352H223.404V423.328C223.404 424.096 223.548 424.64 223.836 424.96C224.14 425.28 224.684 425.44 225.468 425.44C225.932 425.44 226.396 425.336 226.86 425.128V427.048C226.252 427.256 225.5 427.36 224.604 427.36ZM236.076 427.36C233.948 427.36 232.276 426.832 231.06 425.776C229.86 424.704 229.26 423.2 229.26 421.264C229.26 419.376 229.796 417.88 230.868 416.776C231.956 415.672 233.5 415.12 235.5 415.12C236.828 415.12 237.956 415.376 238.884 415.888C239.812 416.384 240.508 417.08 240.972 417.976C241.452 418.856 241.692 419.864 241.692 421V422.2H231.564C231.644 423.288 232.1 424.104 232.932 424.648C233.78 425.176 234.924 425.44 236.364 425.44C237.1 425.44 237.844 425.376 238.596 425.248C239.348 425.104 240.012 424.92 240.588 424.696V426.64C240.076 426.848 239.396 427.016 238.548 427.144C237.716 427.288 236.892 427.36 236.076 427.36ZM239.412 420.496C239.38 419.408 239.02 418.568 238.332 417.976C237.66 417.368 236.7 417.064 235.452 417.064C234.236 417.064 233.292 417.376 232.62 418C231.948 418.624 231.596 419.456 231.564 420.496H239.412Z" fill="white"/>
<path d="M223.624 55.1201C225.571 55.1201 227.149 56.7191 227.149 58.6915L227.149 80.1201C227.149 82.0926 225.571 83.6915 223.624 83.6915L135.494 83.6915C133.547 83.6915 131.969 82.0926 131.969 80.1201L131.969 58.6915C131.969 56.7191 133.547 55.1201 135.494 55.1201L223.624 55.1201Z" fill="#C52229"/>
<path fill-rule="evenodd" clip-rule="evenodd" d="M230.675 58.6917L230.675 80.1203C230.675 84.0652 227.518 87.2631 223.624 87.2631L135.495 87.2631C131.601 87.2631 128.444 84.0651 128.444 80.1203L128.444 58.6917C128.444 54.7468 131.601 51.5488 135.495 51.5488L223.624 51.5488C227.518 51.5488 230.675 54.7468 230.675 58.6917ZM227.15 58.6917C227.15 56.7192 225.571 55.1203 223.624 55.1203L135.495 55.1203C133.548 55.1203 131.969 56.7192 131.969 58.6917L131.969 80.1203C131.969 82.0927 133.548 83.6917 135.495 83.6917L223.624 83.6917C225.571 83.6917 227.15 82.0927 227.15 80.1203L227.15 58.6917Z" fill="#9B0F15"/>
<path fill-rule="evenodd" clip-rule="evenodd" d="M135.172 56.9058C135.172 55.9196 135.961 55.1201 136.934 55.1201H223.183C224.157 55.1201 224.946 55.9196 224.946 56.9058C224.946 57.8921 224.157 58.6915 223.183 58.6915H136.934C135.961 58.6915 135.172 57.8921 135.172 56.9058Z" fill="#DF3840"/>
<path fill-rule="evenodd" clip-rule="evenodd" d="M134.503 67.2852C134.503 66.299 135.292 65.4995 136.265 65.4995H222.514C223.487 65.4995 224.276 66.299 224.276 67.2852C224.276 68.2714 223.487 69.0709 222.514 69.0709H136.265C135.292 69.0709 134.503 68.2714 134.503 67.2852Z" fill="#AF1B22"/>
<path fill-rule="evenodd" clip-rule="evenodd" d="M134.503 60.7008C134.503 59.7145 135.292 58.915 136.265 58.915H222.514C223.487 58.915 224.276 59.7145 224.276 60.7008C224.276 61.687 223.487 62.4865 222.514 62.4865H136.265C135.292 62.4865 134.503 61.687 134.503 60.7008Z" fill="#AF1B22"/>
<path fill-rule="evenodd" clip-rule="evenodd" d="M134.503 73.7589C134.503 72.7726 135.292 71.9731 136.265 71.9731H222.514C223.487 71.9731 224.276 72.7726 224.276 73.7589C224.276 74.7451 223.487 75.5446 222.514 75.5446H136.265C135.292 75.5446 134.503 74.7451 134.503 73.7589Z" fill="#AF1B22"/>
<path fill-rule="evenodd" clip-rule="evenodd" d="M135.172 79.6739C135.172 78.6877 135.961 77.8882 136.935 77.8882H223.183C224.157 77.8882 224.946 78.6877 224.946 79.6739C224.946 80.6601 224.157 81.4596 223.183 81.4596H136.935C135.961 81.4596 135.172 80.6601 135.172 79.6739Z" fill="#AF1B22"/>
<path d="M137.434 56.5254C136.057 55.1306 133.825 55.1307 132.449 56.5254L117.493 71.6777C116.116 73.0724 116.116 75.3337 117.493 76.7284L177.62 137.644C178.996 139.039 181.228 139.039 182.605 137.644L197.561 122.492C198.938 121.097 198.938 118.836 197.561 117.441L137.434 56.5254Z" fill="#F1333B"/>
<path fill-rule="evenodd" clip-rule="evenodd" d="M129.956 54L115 69.1523C112.247 71.9417 112.247 76.4643 115 79.2538L175.127 140.169C177.88 142.959 182.344 142.959 185.098 140.169L200.054 125.017C202.807 122.228 202.807 117.705 200.054 114.916L139.927 54C137.173 51.2105 132.709 51.2105 129.956 54ZM132.449 56.5254C133.825 55.1306 136.057 55.1306 137.434 56.5254L197.561 117.441C198.938 118.836 198.938 121.097 197.561 122.492L182.605 137.644C181.228 139.039 178.996 139.039 177.62 137.644L117.493 76.7284C116.116 75.3337 116.116 73.0724 117.493 71.6777L132.449 56.5254Z" fill="#9B0F15"/>
<path d="M221.685 56.5949C223.056 55.1675 225.314 55.1518 226.704 56.5601L241.66 71.7119C243.023 73.0931 243.038 75.3277 241.694 76.7277L183.261 137.574C181.89 139.001 179.632 139.017 178.242 137.609L163.286 122.457C161.923 121.076 161.908 118.841 163.252 117.441L221.685 56.5949Z" fill="#F1333B"/>
<path fill-rule="evenodd" clip-rule="evenodd" d="M229.197 54.0347L244.153 69.1865C246.879 71.9489 246.91 76.4182 244.221 79.2182L185.788 140.064C183.046 142.919 178.529 142.951 175.749 140.134L160.794 124.982C158.067 122.22 158.037 117.751 160.726 114.951L219.158 54.1044C221.9 51.2495 226.417 51.2181 229.197 54.0347ZM226.704 56.56C225.314 55.1518 223.056 55.1675 221.685 56.5949L163.252 117.441C161.908 118.841 161.923 121.076 163.286 122.457L178.242 137.609C179.632 139.017 181.89 139.001 183.261 137.574L241.694 76.7277C243.039 75.3277 243.023 73.0931 241.66 71.7119L226.704 56.56Z" fill="#9B0F15"/>
<path fill-rule="evenodd" clip-rule="evenodd" d="M224.534 58.093C225.226 58.7871 225.231 59.9178 224.546 60.6183L188.522 97.4487C187.837 98.1492 186.721 98.1544 186.03 97.4602C185.338 96.766 185.333 95.6354 186.018 94.9348L222.041 58.1045C222.727 57.4039 223.843 57.3988 224.534 58.093Z" fill="#FE666D"/>
<path fill-rule="evenodd" clip-rule="evenodd" d="M117.944 73.0543C118.632 72.3569 119.748 72.3569 120.436 73.0543L143.35 96.2686C144.039 96.9659 144.039 98.0966 143.35 98.7939C142.662 99.4913 141.546 99.4913 140.858 98.7939L117.944 75.5797C117.255 74.8823 117.255 73.7516 117.944 73.0543Z" fill="#FE666D"/>
<path d="M231.704 68.3335C230.998 69.0485 229.868 69.0626 229.179 68.3651C228.491 67.6675 228.505 66.5224 229.21 65.8073C229.916 65.0923 231.046 65.0782 231.735 65.7758C232.424 66.4733 232.41 67.6185 231.704 68.3335Z" fill="#DB1B24"/>
<path d="M226.343 72.7542C225.465 73.6436 224.059 73.6612 223.202 72.7934C222.346 71.9257 222.363 70.5013 223.241 69.6119C224.119 68.7225 225.525 68.7049 226.382 69.5726C227.238 70.4403 227.221 71.8647 226.343 72.7542Z" fill="#DB1B24"/>
<path d="M232.055 74.1517C231.616 74.5964 230.913 74.6052 230.484 74.1714C230.056 73.7375 230.065 73.0253 230.504 72.5806C230.943 72.1359 231.646 72.1271 232.074 72.561C232.502 72.9948 232.494 73.707 232.055 74.1517Z" fill="#DB1B24"/>
<path d="M219.358 89.2377C218.919 89.6824 218.216 89.6912 217.787 89.2573C217.359 88.8235 217.368 88.1112 217.807 87.6665C218.246 87.2218 218.949 87.213 219.377 87.6469C219.805 88.0808 219.797 88.793 219.358 89.2377Z" fill="#DB1B24"/>
<path d="M225.731 78.9867C225.292 79.4314 224.589 79.4402 224.161 79.0063C223.733 78.5725 223.742 77.8603 224.181 77.4156C224.62 76.9709 225.323 76.9621 225.751 77.3959C226.179 77.8298 226.17 78.542 225.731 78.9867Z" fill="#DB1B24"/>
<path d="M219.338 95.3866C218.899 95.8313 218.196 95.8401 217.768 95.4062C217.34 94.9724 217.348 94.2602 217.787 93.8155C218.226 93.3708 218.929 93.362 219.357 93.7958C219.786 94.2297 219.777 94.9419 219.338 95.3866Z" fill="#DB1B24"/>
<path d="M220.947 77.6293C220.508 78.074 219.805 78.0828 219.377 77.6489C218.949 77.2151 218.957 76.5028 219.396 76.0581C219.835 75.6134 220.538 75.6046 220.966 76.0385C221.395 76.4724 221.386 77.1846 220.947 77.6293Z" fill="#DB1B24"/>
<path d="M224.523 90.3519C224.084 90.7966 223.381 90.8054 222.953 90.3716C222.525 89.9377 222.534 89.2255 222.973 88.7808C223.411 88.3361 224.114 88.3273 224.543 88.7612C224.971 89.195 224.962 89.9072 224.523 90.3519Z" fill="#DB1B24"/>
<path d="M237.376 71.3329C236.937 71.7776 236.234 71.7864 235.806 71.3525C235.378 70.9187 235.387 70.2065 235.826 69.7618C236.265 69.317 236.968 69.3083 237.396 69.7421C237.824 70.176 237.815 70.8882 237.376 71.3329Z" fill="#DB1B24"/>
<path d="M231.563 80.6633C230.849 81.387 229.704 81.4013 229.007 80.6952C228.311 79.9892 228.325 78.8301 229.039 78.1063C229.753 77.3826 230.898 77.3683 231.594 78.0744C232.291 78.7805 232.277 79.9396 231.563 80.6633Z" fill="#DB1B24"/>
<path d="M238.373 76.321C237.658 77.0447 236.514 77.059 235.817 76.353C235.12 75.6469 235.134 74.4878 235.849 73.764C236.563 73.0403 237.707 73.026 238.404 73.7321C239.101 74.4382 239.087 75.5973 238.373 76.321Z" fill="#DB1B24"/>
<path d="M224.578 85.2697C223.863 85.9935 222.719 86.0078 222.022 85.3017C221.325 84.5956 221.339 83.4365 222.054 82.7128C222.768 81.989 223.912 81.9747 224.609 82.6808C225.306 83.3869 225.292 84.546 224.578 85.2697Z" fill="#DB1B24"/>
<path d="M229.53 86.056C229.091 86.5007 228.388 86.5095 227.96 86.0757C227.532 85.6418 227.54 84.9296 227.979 84.4849C228.418 84.0402 229.121 84.0314 229.55 84.4653C229.978 84.8991 229.969 85.6113 229.53 86.056Z" fill="#DB1B24"/>
<path d="M227.806 155.786C227.806 182.414 206.499 204 180.216 204C153.933 204 132.626 182.414 132.626 155.786C132.626 129.158 153.933 107.571 180.216 107.571C206.499 107.571 227.806 129.158 227.806 155.786Z" fill="#DCA16A"/>
<path fill-rule="evenodd" clip-rule="evenodd" d="M231.331 155.786C231.331 184.386 208.446 207.571 180.216 207.571C151.986 207.571 129.101 184.386 129.101 155.786C129.101 127.185 151.986 104 180.216 104C208.446 104 231.331 127.185 231.331 155.786ZM180.216 204C206.499 204 227.806 182.414 227.806 155.786C227.806 129.158 206.499 107.571 180.216 107.571C153.933 107.571 132.626 129.158 132.626 155.786C132.626 182.414 153.933 204 180.216 204Z" fill="#C38144"/>
<path fill-rule="evenodd" clip-rule="evenodd" d="M136.151 157.571C135.178 157.571 134.389 156.772 134.389 155.786C134.389 130.144 154.906 109.357 180.216 109.357C181.19 109.357 181.979 110.156 181.979 111.143C181.979 112.129 181.19 112.928 180.216 112.928C156.853 112.928 137.914 132.116 137.914 155.786C137.914 156.772 137.125 157.571 136.151 157.571Z" fill="#F0B57F"/>
<path fill-rule="evenodd" clip-rule="evenodd" d="M224.281 154C225.255 154 226.044 154.799 226.044 155.786C226.044 181.428 205.526 202.214 180.216 202.214C179.243 202.214 178.454 201.415 178.454 200.429C178.454 199.442 179.243 198.643 180.216 198.643C203.579 198.643 222.519 179.455 222.519 155.786C222.519 154.799 223.308 154 224.281 154Z" fill="#CF945D"/>
<path d="M215.468 155.786C215.468 175.51 199.685 191.5 180.216 191.5C160.747 191.5 144.964 175.51 144.964 155.786C144.964 136.061 160.747 120.071 180.216 120.071C199.685 120.071 215.468 136.061 215.468 155.786Z" fill="#F7BA82"/>
<path fill-rule="evenodd" clip-rule="evenodd" d="M218.993 155.786C218.993 177.483 201.632 195.071 180.216 195.071C158.8 195.071 141.439 177.483 141.439 155.786C141.439 134.089 158.8 116.5 180.216 116.5C201.632 116.5 218.993 134.089 218.993 155.786ZM180.216 191.5C199.685 191.5 215.468 175.51 215.468 155.786C215.468 136.061 199.685 120.071 180.216 120.071C160.747 120.071 144.964 136.061 144.964 155.786C144.964 175.51 160.747 191.5 180.216 191.5Z" fill="#C38144"/>
<path fill-rule="evenodd" clip-rule="evenodd" d="M180.216 186.143C196.765 186.143 210.18 172.552 210.18 155.786C210.18 154.8 210.97 154 211.943 154C212.916 154 213.706 154.8 213.706 155.786C213.706 174.524 198.712 189.714 180.216 189.714C179.243 189.714 178.454 188.915 178.454 187.929C178.454 186.942 179.243 186.143 180.216 186.143Z" fill="#E6A66C"/>
<path fill-rule="evenodd" clip-rule="evenodd" d="M180.216 125.428C163.667 125.428 150.252 139.02 150.252 155.786C150.252 156.772 149.463 157.571 148.489 157.571C147.516 157.571 146.727 156.772 146.727 155.786C146.727 137.047 161.72 121.857 180.216 121.857C181.19 121.857 181.979 122.656 181.979 123.643C181.979 124.629 181.19 125.428 180.216 125.428Z" fill="#FFD5AE"/>
<path d="M175.995 152.158H179.176C180.691 152.158 181.813 151.775 182.543 151.007C183.273 150.24 183.638 149.222 183.638 147.952C183.638 146.725 183.273 145.769 182.543 145.085C181.827 144.402 180.836 144.06 179.569 144.06C178.426 144.06 177.469 144.381 176.698 145.023C175.926 145.65 175.541 146.473 175.541 147.492H169.572C169.572 145.901 169.991 144.478 170.831 143.223C171.685 141.953 172.869 140.963 174.384 140.251C175.913 139.54 177.593 139.184 179.424 139.184C182.605 139.184 185.098 139.958 186.901 141.507C188.705 143.042 189.607 145.162 189.607 147.869C189.607 149.264 189.187 150.547 188.347 151.719C187.507 152.891 186.406 153.791 185.042 154.418C186.736 155.032 187.996 155.953 188.822 157.181C189.662 158.408 190.082 159.859 190.082 161.533C190.082 164.24 189.105 166.409 187.149 168.042C185.208 169.674 182.633 170.49 179.424 170.49C176.422 170.49 173.964 169.688 172.05 168.083C170.15 166.479 169.2 164.358 169.2 161.722H175.169C175.169 162.866 175.589 163.8 176.429 164.526C177.283 165.251 178.329 165.614 179.569 165.614C180.987 165.614 182.096 165.237 182.894 164.484C183.707 163.717 184.113 162.705 184.113 161.45C184.113 158.408 182.46 156.888 179.156 156.888H175.995V152.158Z" fill="#FFD5AE"/>
<path fill-rule="evenodd" clip-rule="evenodd" d="M172.639 151.063H169.572C167.625 151.063 166.046 149.464 166.046 147.492C166.046 145.224 166.658 143.096 167.913 141.219L167.918 141.212C169.166 139.357 170.869 137.966 172.901 137.011L172.912 137.006C174.942 136.061 177.13 135.613 179.424 135.613C183.147 135.613 186.544 136.522 189.174 138.777C191.884 141.086 193.133 144.268 193.133 147.869C193.133 150.048 192.459 152.061 191.2 153.818C191.118 153.931 191.035 154.043 190.95 154.153C191.227 154.467 191.487 154.802 191.727 155.157C193.019 157.051 193.608 159.228 193.608 161.534C193.608 165.238 192.21 168.442 189.396 170.794C186.667 173.086 183.224 174.061 179.424 174.061C175.78 174.061 172.474 173.074 169.803 170.835L169.793 170.827C167.043 168.505 165.675 165.355 165.675 161.722C165.675 159.749 167.253 158.15 169.2 158.15H172.697C172.55 157.758 172.47 157.332 172.47 156.888V152.159C172.47 151.777 172.529 151.409 172.639 151.063ZM178.468 160.459C178.614 160.852 178.694 161.277 178.694 161.722C178.694 161.752 178.696 161.775 178.697 161.791C178.7 161.794 178.703 161.797 178.707 161.8C178.853 161.921 179.073 162.043 179.569 162.043C179.975 162.043 180.218 161.988 180.343 161.946C180.447 161.91 180.482 161.88 180.491 161.872M178.468 160.459H179.156C180.032 160.459 180.389 160.612 180.486 160.665C180.489 160.67 180.491 160.677 180.494 160.684C180.527 160.775 180.588 161.008 180.588 161.45C180.588 161.685 180.551 161.785 180.543 161.804C180.538 161.816 180.535 161.822 180.532 161.826C180.528 161.831 180.516 161.847 180.491 161.872M187.149 168.042C189.105 166.409 190.082 164.24 190.082 161.534C190.082 159.859 189.662 158.409 188.822 157.181C188.686 156.979 188.539 156.785 188.379 156.599C187.57 155.658 186.457 154.931 185.042 154.419C186.318 153.831 187.364 153.006 188.181 151.943C188.238 151.87 188.293 151.795 188.347 151.719C189.187 150.547 189.607 149.264 189.607 147.869C189.607 145.162 188.705 143.042 186.901 141.507C185.098 139.958 182.605 139.184 179.424 139.184C177.593 139.184 175.913 139.54 174.384 140.251C172.87 140.963 171.685 141.953 170.832 143.223C170.68 143.45 170.541 143.683 170.417 143.921C169.853 144.999 169.572 146.189 169.572 147.492H175.541C175.541 146.474 175.927 145.65 176.698 145.023C177.469 144.381 178.426 144.06 179.569 144.06C180.836 144.06 181.827 144.402 182.543 145.085C183.273 145.769 183.638 146.725 183.638 147.952C183.638 149.222 183.273 150.24 182.543 151.008C181.813 151.775 180.691 152.159 179.176 152.159H175.995V156.888H179.156C182.461 156.888 184.113 158.409 184.113 161.45C184.113 162.705 183.707 163.717 182.894 164.484C182.096 165.238 180.987 165.614 179.569 165.614C178.329 165.614 177.283 165.251 176.429 164.526C175.589 163.801 175.169 162.866 175.169 161.722H169.2C169.2 163.042 169.438 164.232 169.914 165.293C170.389 166.352 171.101 167.282 172.05 168.083C173.964 169.688 176.422 170.49 179.424 170.49C182.633 170.49 185.208 169.674 187.149 168.042ZM178.897 148.587C178.986 148.307 179.042 148.012 179.06 147.707C179.153 147.668 179.307 147.631 179.569 147.631C179.85 147.631 180.015 147.665 180.095 147.688C180.104 147.744 180.113 147.83 180.113 147.952C180.113 148.241 180.071 148.392 180.051 148.45C180.046 148.463 180.041 148.474 180.037 148.483C180.034 148.485 180.03 148.486 180.027 148.487C179.914 148.525 179.652 148.587 179.176 148.587H178.897Z" fill="#C28044"/>
<defs>
<filter id="filter0_bii_664_319" x="-172" y="-172" width="703" height="845" filterUnits="userSpaceOnUse" color-interpolation-filters="sRGB">
<feFlood flood-opacity="0" result="BackgroundImageFix"/>
<feGaussianBlur in="BackgroundImage" stdDeviation="86"/>
<feComposite in2="SourceAlpha" operator="in" result="effect1_backgroundBlur_664_319"/>
<feBlend mode="normal" in="SourceGraphic" in2="effect1_backgroundBlur_664_319" result="shape"/>
<feColorMatrix in="SourceAlpha" type="matrix" values="0 0 0 0 0 0 0 0 0 0 0 0 0 0 0 0 0 0 127 0" result="hardAlpha"/>
<feOffset dx="-28.6667" dy="28.6667"/>
<feGaussianBlur stdDeviation="14.3333"/>
<feComposite in2="hardAlpha" operator="arithmetic" k2="-1" k3="1"/>
<feColorMatrix type="matrix" values="0 0 0 0 1 0 0 0 0 1 0 0 0 0 1 0 0 0 0.2 0"/>
<feBlend mode="normal" in2="shape" result="effect2_innerShadow_664_319"/>
<feColorMatrix in="SourceAlpha" type="matrix" values="0 0 0 0 0 0 0 0 0 0 0 0 0 0 0 0 0 0 127 0" result="hardAlpha"/>
<feOffset dx="28.6667" dy="-28.6667"/>
<feGaussianBlur stdDeviation="14.3333"/>
<feComposite in2="hardAlpha" operator="arithmetic" k2="-1" k3="1"/>
<feColorMatrix type="matrix" values="0 0 0 0 0.76 0 0 0 0 0.76 0 0 0 0 0.76 0 0 0 0.2 0"/>
<feBlend mode="normal" in2="effect2_innerShadow_664_319" result="effect3_innerShadow_664_319"/>
</filter>
<radialGradient id="paint0_radial_664_319" cx="0" cy="0" r="1" gradientUnits="userSpaceOnUse" gradientTransform="translate(73 66.5) rotate(64.419) scale(481.72 345.185)">
<stop stop-color="white"/>
<stop offset="1" stop-color="white" stop-opacity="0"/>
</radialGradient>
</defs>
</svg>
