<svg width="165" height="80" viewBox="0 0 165 80" fill="none" xmlns="http://www.w3.org/2000/svg">
<rect x="9" y="1" width="147" height="62" rx="15" stroke="#C4C4C4" stroke-width="2"/>
<path d="M72.448 38L77.552 25.92H77.648L82.752 38H80.816L77.104 28.544L78.304 27.76L74.112 38H72.448ZM75.536 33.648H79.696L80.272 35.088H75.04L75.536 33.648ZM87.4312 38.16C86.8019 38.16 86.2366 38.016 85.7352 37.728C85.2339 37.4293 84.8392 37.008 84.5512 36.464C84.2632 35.92 84.1192 35.2853 84.1192 34.56C84.1192 33.8133 84.2739 33.1787 84.5832 32.656C84.8926 32.1333 85.3086 31.7333 85.8312 31.456C86.3646 31.1787 86.9619 31.04 87.6233 31.04C88.1352 31.04 88.6206 31.1467 89.0792 31.36C89.5486 31.5627 89.9166 31.8507 90.1832 32.224L90.1192 32.784V25.568H91.7353V38H90.1033V36.4L90.2793 36.832C89.9593 37.216 89.5539 37.536 89.0633 37.792C88.5832 38.0373 88.0392 38.16 87.4312 38.16ZM87.9272 36.8C88.4926 36.8 88.9619 36.656 89.3352 36.368C89.7193 36.0693 89.9753 35.6747 90.1033 35.184V33.856C89.9859 33.408 89.7246 33.04 89.3193 32.752C88.9246 32.464 88.4606 32.32 87.9272 32.32C87.5432 32.32 87.1859 32.416 86.8552 32.608C86.5246 32.7893 86.2579 33.0507 86.0552 33.392C85.8632 33.7227 85.7672 34.1067 85.7672 34.544C85.7672 34.96 85.8632 35.3387 86.0552 35.68C86.2579 36.0213 86.5246 36.2933 86.8552 36.496C87.1859 36.6987 87.5432 36.8 87.9272 36.8ZM97.3937 38.16C96.7644 38.16 96.1991 38.016 95.6977 37.728C95.1964 37.4293 94.8017 37.008 94.5137 36.464C94.2257 35.92 94.0817 35.2853 94.0817 34.56C94.0817 33.8133 94.2364 33.1787 94.5457 32.656C94.8551 32.1333 95.2711 31.7333 95.7937 31.456C96.3271 31.1787 96.9244 31.04 97.5857 31.04C98.0977 31.04 98.5831 31.1467 99.0417 31.36C99.5111 31.5627 99.8791 31.8507 100.146 32.224L100.082 32.784V25.568H101.698V38H100.066V36.4L100.242 36.832C99.9217 37.216 99.5164 37.536 99.0257 37.792C98.5457 38.0373 98.0017 38.16 97.3937 38.16ZM97.8897 36.8C98.4551 36.8 98.9244 36.656 99.2977 36.368C99.6817 36.0693 99.9377 35.6747 100.066 35.184V33.856C99.9484 33.408 99.6871 33.04 99.2817 32.752C98.8871 32.464 98.4231 32.32 97.8897 32.32C97.5057 32.32 97.1484 32.416 96.8177 32.608C96.4871 32.7893 96.2204 33.0507 96.0177 33.392C95.8257 33.7227 95.7297 34.1067 95.7297 34.544C95.7297 34.96 95.8257 35.3387 96.0177 35.68C96.2204 36.0213 96.4871 36.2933 96.8177 36.496C97.1484 36.6987 97.5057 36.8 97.8897 36.8ZM107.482 26.4H114.426V28.016H109.146V31.536H113.754V33.136H109.146V38H107.482V26.4ZM116.717 31.312H118.333V38H116.717V31.312ZM116.637 28.912C116.637 28.6667 116.733 28.4587 116.925 28.288C117.128 28.1173 117.346 28.032 117.581 28.032C117.816 28.032 118.029 28.1173 118.221 28.288C118.413 28.4587 118.509 28.6667 118.509 28.912C118.509 29.1787 118.413 29.392 118.221 29.552C118.029 29.712 117.816 29.792 117.581 29.792C117.346 29.792 117.128 29.712 116.925 29.552C116.733 29.392 116.637 29.1787 116.637 28.912ZM121.258 25.568H122.874V38H121.258V25.568ZM128.934 38.16C128.166 38.16 127.505 38.0107 126.95 37.712C126.396 37.4027 125.969 36.9813 125.67 36.448C125.372 35.904 125.222 35.2907 125.222 34.608C125.222 33.9467 125.388 33.3493 125.718 32.816C126.06 32.272 126.513 31.84 127.078 31.52C127.644 31.2 128.273 31.04 128.966 31.04C129.862 31.04 130.604 31.3013 131.19 31.824C131.788 32.336 132.188 33.0613 132.39 34L126.934 35.888L126.55 34.96L130.934 33.36L130.598 33.584C130.47 33.2427 130.268 32.9493 129.99 32.704C129.713 32.448 129.334 32.32 128.854 32.32C128.257 32.32 127.766 32.528 127.382 32.944C127.009 33.3493 126.822 33.872 126.822 34.512C126.822 35.1947 127.025 35.744 127.43 36.16C127.836 36.576 128.348 36.784 128.966 36.784C129.254 36.784 129.532 36.736 129.798 36.64C130.065 36.5333 130.316 36.3947 130.55 36.224L131.286 37.424C130.945 37.648 130.566 37.8293 130.15 37.968C129.745 38.096 129.34 38.16 128.934 38.16Z" fill="#5A5A5A"/>
<g filter="url(#filter0_d_492_178)">
<rect x="8" width="149" height="64" rx="16" fill="#9152FE"/>
<path d="M77.184 25.816H78.752L83.216 37H81.552L80.432 34.216H75.488L74.4 37H72.72L77.184 25.816ZM79.984 32.856L77.968 27.624L75.952 32.856H79.984ZM88.3707 37.24C87.6027 37.24 86.9094 37.0747 86.2907 36.744C85.6827 36.4027 85.2027 35.928 84.8507 35.32C84.5094 34.7013 84.3387 33.9867 84.3387 33.176C84.3387 32.376 84.5094 31.6667 84.8507 31.048C85.2027 30.4293 85.6827 29.9493 86.2907 29.608C86.9094 29.256 87.6027 29.08 88.3707 29.08C89.7574 29.08 90.8081 29.5013 91.5227 30.344V25.176H93.1388V37H91.5707V35.88C91.1441 36.3493 90.6747 36.696 90.1627 36.92C89.6614 37.1333 89.0641 37.24 88.3707 37.24ZM88.7387 35.96C89.4001 35.96 89.9761 35.7893 90.4668 35.448C90.9681 35.096 91.3201 34.6267 91.5227 34.04V32.312C91.3414 31.7253 90.9948 31.256 90.4827 30.904C89.9814 30.552 89.4001 30.376 88.7387 30.376C88.2161 30.376 87.7414 30.4933 87.3147 30.728C86.8987 30.9627 86.5681 31.2933 86.3227 31.72C86.0881 32.1467 85.9707 32.632 85.9707 33.176C85.9707 33.72 86.0881 34.2053 86.3227 34.632C86.5681 35.0587 86.8987 35.3893 87.3147 35.624C87.7414 35.848 88.2161 35.96 88.7387 35.96ZM99.0989 37.24C98.3309 37.24 97.6375 37.0747 97.0189 36.744C96.4109 36.4027 95.9309 35.928 95.5789 35.32C95.2375 34.7013 95.0669 33.9867 95.0669 33.176C95.0669 32.376 95.2375 31.6667 95.5789 31.048C95.9309 30.4293 96.4109 29.9493 97.0189 29.608C97.6375 29.256 98.3309 29.08 99.0989 29.08C100.486 29.08 101.536 29.5013 102.251 30.344V25.176H103.867V37H102.299V35.88C101.872 36.3493 101.403 36.696 100.891 36.92C100.39 37.1333 99.7922 37.24 99.0989 37.24ZM99.4669 35.96C100.128 35.96 100.704 35.7893 101.195 35.448C101.696 35.096 102.048 34.6267 102.251 34.04V32.312C102.07 31.7253 101.723 31.256 101.211 30.904C100.71 30.552 100.128 30.376 99.4669 30.376C98.9442 30.376 98.4695 30.4933 98.0429 30.728C97.6269 30.9627 97.2962 31.2933 97.0509 31.72C96.8162 32.1467 96.6989 32.632 96.6989 33.176C96.6989 33.72 96.8162 34.2053 97.0509 34.632C97.2962 35.0587 97.6269 35.3893 98.0429 35.624C98.4695 35.848 98.9442 35.96 99.4669 35.96ZM112.671 25.816H120.047V27.192H114.303V30.76H118.591V32.056H114.303V37H112.671V25.816ZM122.265 27.816C121.999 27.816 121.775 27.7253 121.593 27.544C121.412 27.3627 121.321 27.1387 121.321 26.872C121.321 26.6053 121.412 26.3813 121.593 26.2C121.775 26.0187 121.999 25.928 122.265 25.928C122.543 25.928 122.772 26.0187 122.953 26.2C123.145 26.3813 123.241 26.6053 123.241 26.872C123.241 27.1387 123.145 27.3627 122.953 27.544C122.772 27.7253 122.543 27.816 122.265 27.816ZM121.449 29.32H123.097V37H121.449V29.32ZM125.721 25.176H127.337V37H125.721V25.176ZM134.048 37.24C132.63 37.24 131.515 36.888 130.704 36.184C129.904 35.4693 129.504 34.4667 129.504 33.176C129.504 31.9173 129.862 30.92 130.576 30.184C131.302 29.448 132.331 29.08 133.664 29.08C134.55 29.08 135.302 29.2507 135.92 29.592C136.539 29.9227 137.003 30.3867 137.312 30.984C137.632 31.5707 137.792 32.2427 137.792 33V33.8H131.04C131.094 34.5253 131.398 35.0693 131.952 35.432C132.518 35.784 133.28 35.96 134.24 35.96C134.731 35.96 135.227 35.9173 135.728 35.832C136.23 35.736 136.672 35.6133 137.056 35.464V36.76C136.715 36.8987 136.262 37.0107 135.696 37.096C135.142 37.192 134.592 37.24 134.048 37.24ZM136.272 32.664C136.251 31.9387 136.011 31.3787 135.552 30.984C135.104 30.5787 134.464 30.376 133.632 30.376C132.822 30.376 132.192 30.584 131.744 31C131.296 31.416 131.062 31.9707 131.04 32.664H136.272Z" fill="white"/>
<path d="M53 35V39C53 39.5304 52.7893 40.0391 52.4142 40.4142C52.0391 40.7893 51.5304 41 51 41H37C36.4696 41 35.9609 40.7893 35.5858 40.4142C35.2107 40.0391 35 39.5304 35 39V35" stroke="white" stroke-width="2" stroke-linecap="round" stroke-linejoin="round"/>
<path d="M49 28L44 23L39 28" stroke="white" stroke-width="2" stroke-linecap="round" stroke-linejoin="round"/>
<path d="M44 23V35" stroke="white" stroke-width="2" stroke-linecap="round" stroke-linejoin="round"/>
</g>
<defs>
<filter id="filter0_d_492_178" x="0" y="0" width="165" height="80" filterUnits="userSpaceOnUse" color-interpolation-filters="sRGB">
<feFlood flood-opacity="0" result="BackgroundImageFix"/>
<feColorMatrix in="SourceAlpha" type="matrix" values="0 0 0 0 0 0 0 0 0 0 0 0 0 0 0 0 0 0 127 0" result="hardAlpha"/>
<feOffset dy="8"/>
<feGaussianBlur stdDeviation="4"/>
<feComposite in2="hardAlpha" operator="out"/>
<feColorMatrix type="matrix" values="0 0 0 0 0 0 0 0 0 0 0 0 0 0 0 0 0 0 0.24 0"/>
<feBlend mode="normal" in2="BackgroundImageFix" result="effect1_dropShadow_492_178"/>
<feBlend mode="normal" in="SourceGraphic" in2="effect1_dropShadow_492_178" result="shape"/>
</filter>
</defs>
</svg>
