<svg width="1037" height="169" viewBox="0 0 1037 169" fill="none" xmlns="http://www.w3.org/2000/svg">
<path d="M77 57C77 34.9086 94.9086 17 117 17H997C1019.09 17 1037 34.9086 1037 57V113C1037 135.091 1019.09 153 997 153H117C94.9086 153 77 135.091 77 113V57Z" fill="white"/>
<path d="M47 87L77 69.6795L77 104.321L47 87Z" fill="white"/>
<path d="M240.488 92.72C236.84 92.72 233.624 92.016 230.84 90.608C228.088 89.2 225.96 87.184 224.456 84.56C222.952 81.904 222.2 78.8 222.2 75.248C222.2 71.696 222.952 68.608 224.456 65.984C225.96 63.328 228.088 61.296 230.84 59.888C233.624 58.448 236.84 57.728 240.488 57.728C242.888 57.728 245.032 57.968 246.92 58.448C248.808 58.928 250.552 59.68 252.152 60.704V68.768C250.744 67.648 249.144 66.832 247.352 66.32C245.592 65.808 243.56 65.552 241.256 65.552C237.96 65.552 235.416 66.416 233.624 68.144C231.832 69.84 230.936 72.208 230.936 75.248C230.936 78.288 231.832 80.672 233.624 82.4C235.448 84.128 237.992 84.992 241.256 84.992C243.56 84.992 245.624 84.72 247.448 84.176C249.272 83.632 250.968 82.768 252.536 81.584V89.6C249.496 91.68 245.48 92.72 240.488 92.72ZM257.079 56.528H265.527V92H257.079V56.528ZM284.277 92.72C281.429 92.72 278.933 92.208 276.789 91.184C274.645 90.128 272.981 88.688 271.797 86.864C270.645 85.008 270.069 82.88 270.069 80.48C270.069 78.08 270.645 75.968 271.797 74.144C272.981 72.288 274.645 70.848 276.789 69.824C278.933 68.768 281.429 68.24 284.277 68.24C287.125 68.24 289.621 68.768 291.765 69.824C293.909 70.848 295.557 72.288 296.709 74.144C297.893 75.968 298.485 78.08 298.485 80.48C298.485 82.88 297.893 85.008 296.709 86.864C295.557 88.688 293.909 90.128 291.765 91.184C289.621 92.208 287.125 92.72 284.277 92.72ZM284.277 86.144C285.973 86.144 287.317 85.648 288.309 84.656C289.333 83.632 289.845 82.24 289.845 80.48C289.845 78.72 289.333 77.344 288.309 76.352C287.317 75.328 285.973 74.816 284.277 74.816C282.581 74.816 281.221 75.328 280.197 76.352C279.205 77.344 278.709 78.72 278.709 80.48C278.709 82.24 279.205 83.632 280.197 84.656C281.221 85.648 282.581 86.144 284.277 86.144ZM311.743 92.72C309.887 92.72 307.951 92.528 305.935 92.144C303.919 91.792 302.319 91.28 301.135 90.608V84.416C302.447 85.184 304.015 85.824 305.839 86.336C307.695 86.816 309.391 87.056 310.927 87.056C312.047 87.056 312.863 86.976 313.375 86.816C313.887 86.656 314.143 86.336 314.143 85.856C314.143 85.472 313.967 85.168 313.615 84.944C313.295 84.688 312.687 84.432 311.791 84.176C310.927 83.888 309.919 83.584 308.767 83.264C306.815 82.688 305.279 82.096 304.159 81.488C303.039 80.88 302.207 80.112 301.663 79.184C301.119 78.256 300.847 77.088 300.847 75.68C300.847 73.184 301.823 71.328 303.775 70.112C305.759 68.864 308.463 68.24 311.887 68.24C313.551 68.24 315.295 68.416 317.119 68.768C318.975 69.12 320.367 69.584 321.295 70.16V76.256C320.335 75.616 319.055 75.088 317.455 74.672C315.887 74.256 314.415 74.048 313.039 74.048C311.951 74.048 311.103 74.16 310.495 74.384C309.887 74.576 309.583 74.928 309.583 75.44C309.583 75.92 309.887 76.288 310.495 76.544C311.103 76.8 312.191 77.12 313.759 77.504C314.783 77.76 315.215 77.872 315.055 77.84C317.103 78.384 318.687 78.992 319.807 79.664C320.927 80.336 321.711 81.136 322.159 82.064C322.639 82.96 322.879 84.112 322.879 85.52C322.879 87.728 321.919 89.488 319.999 90.8C318.111 92.08 315.359 92.72 311.743 92.72ZM340.965 92.72C336.453 92.72 332.901 91.664 330.309 89.552C327.749 87.44 326.469 84.448 326.469 80.576C326.469 76.768 327.605 73.76 329.877 71.552C332.181 69.344 335.493 68.24 339.813 68.24C342.565 68.24 344.917 68.768 346.869 69.824C348.853 70.848 350.341 72.272 351.333 74.096C352.357 75.888 352.869 77.92 352.869 80.192V83.312H334.485C334.805 84.592 335.605 85.52 336.885 86.096C338.165 86.672 339.909 86.96 342.117 86.96C343.621 86.96 345.157 86.832 346.725 86.576C348.325 86.32 349.701 85.968 350.853 85.52V91.088C349.669 91.568 348.181 91.952 346.389 92.24C344.629 92.56 342.821 92.72 340.965 92.72ZM344.901 78.032C344.773 76.784 344.261 75.808 343.365 75.104C342.469 74.4 341.237 74.048 339.669 74.048C338.133 74.048 336.917 74.416 336.021 75.152C335.125 75.856 334.613 76.816 334.485 78.032H344.901ZM374.922 58.448H389.994C393.93 58.448 397.002 59.44 399.21 61.424C401.45 63.408 402.57 66.256 402.57 69.968C402.57 72.464 402.026 74.592 400.938 76.352C399.85 78.112 398.314 79.424 396.33 80.288L402.282 92H393.546L388.218 81.488H383.418V92H374.922V58.448ZM388.506 74.336C390.202 74.336 391.514 74.016 392.442 73.376C393.37 72.704 393.834 71.568 393.834 69.968C393.834 68.304 393.37 67.168 392.442 66.56C391.546 65.92 390.234 65.6 388.506 65.6H383.418V74.336H388.506ZM420.69 92.72C416.178 92.72 412.626 91.664 410.034 89.552C407.474 87.44 406.194 84.448 406.194 80.576C406.194 76.768 407.33 73.76 409.602 71.552C411.906 69.344 415.218 68.24 419.538 68.24C422.29 68.24 424.642 68.768 426.594 69.824C428.578 70.848 430.066 72.272 431.058 74.096C432.082 75.888 432.594 77.92 432.594 80.192V83.312H414.21C414.53 84.592 415.33 85.52 416.61 86.096C417.89 86.672 419.634 86.96 421.842 86.96C423.346 86.96 424.882 86.832 426.45 86.576C428.05 86.32 429.426 85.968 430.578 85.52V91.088C429.394 91.568 427.906 91.952 426.114 92.24C424.354 92.56 422.546 92.72 420.69 92.72ZM424.626 78.032C424.498 76.784 423.986 75.808 423.09 75.104C422.194 74.4 420.962 74.048 419.394 74.048C417.858 74.048 416.642 74.416 415.746 75.152C414.85 75.856 414.338 76.816 414.21 78.032H424.626ZM449.663 103.04C448.127 103.04 446.575 102.896 445.007 102.608C443.471 102.32 442.143 101.936 441.023 101.456V95.6C443.551 96.688 446.431 97.232 449.663 97.232C451.999 97.232 453.679 96.752 454.703 95.792C455.759 94.832 456.287 93.424 456.287 91.568V90.176C455.359 90.976 454.207 91.6 452.831 92.048C451.487 92.496 450.047 92.72 448.511 92.72C446.079 92.72 443.935 92.208 442.079 91.184C440.223 90.16 438.767 88.72 437.711 86.864C436.687 85.008 436.175 82.88 436.175 80.48C436.175 78.048 436.687 75.904 437.711 74.048C438.735 72.192 440.175 70.768 442.031 69.776C443.887 68.752 446.015 68.24 448.415 68.24C451.711 68.24 454.431 69.248 456.575 71.264V68.96H464.735V90.416C464.735 94.416 463.503 97.52 461.039 99.728C458.607 101.936 454.815 103.04 449.663 103.04ZM450.623 86.192C451.935 86.192 453.103 85.856 454.127 85.184C455.151 84.512 455.871 83.616 456.287 82.496V78.464C455.839 77.344 455.103 76.464 454.079 75.824C453.055 75.152 451.903 74.816 450.623 74.816C448.895 74.816 447.503 75.328 446.447 76.352C445.391 77.344 444.863 78.704 444.863 80.432C444.863 82.192 445.391 83.6 446.447 84.656C447.503 85.68 448.895 86.192 450.623 86.192ZM474.769 65.888C473.489 65.888 472.417 65.472 471.553 64.64C470.689 63.808 470.257 62.752 470.257 61.472C470.257 60.224 470.689 59.184 471.553 58.352C472.417 57.488 473.489 57.056 474.769 57.056C476.017 57.056 477.073 57.488 477.937 58.352C478.833 59.184 479.281 60.224 479.281 61.472C479.281 62.72 478.833 63.776 477.937 64.64C477.073 65.472 476.017 65.888 474.769 65.888ZM470.545 68.96H478.993V92H470.545V68.96ZM494.752 92.72C492.896 92.72 490.96 92.528 488.944 92.144C486.928 91.792 485.328 91.28 484.144 90.608V84.416C485.456 85.184 487.024 85.824 488.848 86.336C490.704 86.816 492.4 87.056 493.936 87.056C495.056 87.056 495.872 86.976 496.384 86.816C496.896 86.656 497.152 86.336 497.152 85.856C497.152 85.472 496.976 85.168 496.624 84.944C496.304 84.688 495.696 84.432 494.8 84.176C493.936 83.888 492.928 83.584 491.776 83.264C489.824 82.688 488.288 82.096 487.168 81.488C486.048 80.88 485.216 80.112 484.672 79.184C484.128 78.256 483.856 77.088 483.856 75.68C483.856 73.184 484.832 71.328 486.784 70.112C488.768 68.864 491.472 68.24 494.896 68.24C496.56 68.24 498.304 68.416 500.128 68.768C501.984 69.12 503.376 69.584 504.304 70.16V76.256C503.344 75.616 502.064 75.088 500.464 74.672C498.896 74.256 497.424 74.048 496.048 74.048C494.96 74.048 494.112 74.16 493.504 74.384C492.896 74.576 492.592 74.928 492.592 75.44C492.592 75.92 492.896 76.288 493.504 76.544C494.112 76.8 495.2 77.12 496.768 77.504C497.792 77.76 498.224 77.872 498.064 77.84C500.112 78.384 501.696 78.992 502.816 79.664C503.936 80.336 504.72 81.136 505.168 82.064C505.648 82.96 505.888 84.112 505.888 85.52C505.888 87.728 504.928 89.488 503.008 90.8C501.12 92.08 498.368 92.72 494.752 92.72ZM519.719 92.72C516.871 92.72 514.711 91.936 513.239 90.368C511.799 88.768 511.079 86.592 511.079 83.84V74.816H507.815V68.96H511.079V62.048H519.527V68.96H524.807V74.816H519.527V82.688C519.527 83.936 519.751 84.832 520.199 85.376C520.679 85.92 521.511 86.192 522.695 86.192C523.751 86.192 524.807 85.904 525.863 85.328V91.616C525.031 92 524.135 92.272 523.175 92.432C522.247 92.624 521.095 92.72 519.719 92.72ZM529.451 68.96H537.611V71.84C538.507 70.816 539.771 70.032 541.403 69.488C543.035 68.912 544.843 68.624 546.827 68.624V75.104C544.715 75.104 542.843 75.408 541.211 76.016C539.611 76.624 538.507 77.536 537.899 78.752V92H529.451V68.96ZM556.964 92.72C554.084 92.72 551.748 92.032 549.956 90.656C548.196 89.248 547.316 87.296 547.316 84.8C547.316 82.208 548.164 80.224 549.86 78.848C551.588 77.44 554.052 76.736 557.252 76.736C558.5 76.736 559.748 76.88 560.996 77.168C562.244 77.424 563.316 77.776 564.212 78.224V77.744C564.212 75.28 562.196 74.048 558.164 74.048C555.348 74.048 552.772 74.592 550.436 75.68V69.872C551.46 69.392 552.804 69.008 554.468 68.72C556.132 68.4 557.86 68.24 559.652 68.24C563.94 68.24 567.172 69.104 569.348 70.832C571.556 72.528 572.66 74.912 572.66 77.984V92H564.74V90.032C563.876 90.864 562.788 91.52 561.476 92C560.164 92.48 558.66 92.72 556.964 92.72ZM559.46 87.536C560.452 87.536 561.38 87.344 562.244 86.96C563.108 86.544 563.764 86.016 564.212 85.376V83.36C562.836 82.432 561.268 81.968 559.508 81.968C558.388 81.968 557.524 82.208 556.916 82.688C556.308 83.168 556.004 83.872 556.004 84.8C556.004 85.664 556.292 86.336 556.868 86.816C557.476 87.296 558.34 87.536 559.46 87.536ZM586.694 92.72C583.846 92.72 581.686 91.936 580.214 90.368C578.774 88.768 578.054 86.592 578.054 83.84V74.816H574.79V68.96H578.054V62.048H586.502V68.96H591.782V74.816H586.502V82.688C586.502 83.936 586.726 84.832 587.174 85.376C587.654 85.92 588.486 86.192 589.67 86.192C590.726 86.192 591.782 85.904 592.838 85.328V91.616C592.006 92 591.11 92.272 590.15 92.432C589.222 92.624 588.07 92.72 586.694 92.72ZM600.938 65.888C599.658 65.888 598.586 65.472 597.722 64.64C596.858 63.808 596.426 62.752 596.426 61.472C596.426 60.224 596.858 59.184 597.722 58.352C598.586 57.488 599.658 57.056 600.938 57.056C602.186 57.056 603.242 57.488 604.106 58.352C605.002 59.184 605.45 60.224 605.45 61.472C605.45 62.72 605.002 63.776 604.106 64.64C603.242 65.472 602.186 65.888 600.938 65.888ZM596.714 68.96H605.162V92H596.714V68.96ZM624.233 92.72C621.385 92.72 618.889 92.208 616.745 91.184C614.601 90.128 612.937 88.688 611.753 86.864C610.601 85.008 610.025 82.88 610.025 80.48C610.025 78.08 610.601 75.968 611.753 74.144C612.937 72.288 614.601 70.848 616.745 69.824C618.889 68.768 621.385 68.24 624.233 68.24C627.081 68.24 629.577 68.768 631.721 69.824C633.865 70.848 635.513 72.288 636.665 74.144C637.849 75.968 638.441 78.08 638.441 80.48C638.441 82.88 637.849 85.008 636.665 86.864C635.513 88.688 633.865 90.128 631.721 91.184C629.577 92.208 627.081 92.72 624.233 92.72ZM624.233 86.144C625.929 86.144 627.273 85.648 628.265 84.656C629.289 83.632 629.801 82.24 629.801 80.48C629.801 78.72 629.289 77.344 628.265 76.352C627.273 75.328 625.929 74.816 624.233 74.816C622.537 74.816 621.177 75.328 620.153 76.352C619.161 77.344 618.665 78.72 618.665 80.48C618.665 82.24 619.161 83.632 620.153 84.656C621.177 85.648 622.537 86.144 624.233 86.144ZM642.982 68.96H651.142V71.504C652.134 70.416 653.334 69.6 654.742 69.056C656.15 68.512 657.622 68.24 659.158 68.24C662.39 68.24 664.774 69.088 666.31 70.784C667.878 72.448 668.662 74.72 668.662 77.6V92H660.214V78.704C660.214 76.112 659.03 74.816 656.662 74.816C655.574 74.816 654.582 75.072 653.686 75.584C652.79 76.064 652.038 76.816 651.43 77.84V92H642.982V68.96Z" fill="#525252"/>
<path d="M233.72 133.36C232.52 133.36 231.456 133.112 230.528 132.616C229.6 132.104 228.88 131.392 228.368 130.48C227.856 129.552 227.6 128.48 227.6 127.264C227.6 126.064 227.856 125 228.368 124.072C228.88 123.128 229.592 122.4 230.504 121.888C231.432 121.376 232.504 121.12 233.72 121.12C234.52 121.12 235.256 121.232 235.928 121.456C236.6 121.68 237.176 122 237.656 122.416V115.264H241.88V133H237.8V131.848C236.728 132.856 235.368 133.36 233.72 133.36ZM234.824 130.096C235.464 130.096 236.04 129.936 236.552 129.616C237.064 129.28 237.432 128.832 237.656 128.272V126.232C237.432 125.672 237.064 125.232 236.552 124.912C236.04 124.576 235.464 124.408 234.824 124.408C233.96 124.408 233.264 124.664 232.736 125.176C232.208 125.688 231.944 126.384 231.944 127.264C231.944 128.144 232.208 128.84 232.736 129.352C233.264 129.848 233.96 130.096 234.824 130.096ZM249.273 133.36C247.689 133.36 246.497 132.92 245.697 132.04C244.913 131.16 244.521 130 244.521 128.56V121.48H248.745V128.08C248.745 129.408 249.345 130.072 250.545 130.072C251.089 130.072 251.585 129.944 252.033 129.688C252.481 129.432 252.849 129.056 253.137 128.56V121.48H257.361V133H253.281V131.752C252.785 132.28 252.185 132.68 251.481 132.952C250.777 133.224 250.041 133.36 249.273 133.36ZM266.892 133.36C264.636 133.36 262.86 132.832 261.564 131.776C260.284 130.72 259.644 129.224 259.644 127.288C259.644 125.384 260.212 123.88 261.348 122.776C262.5 121.672 264.156 121.12 266.316 121.12C267.692 121.12 268.868 121.384 269.844 121.912C270.836 122.424 271.58 123.136 272.076 124.048C272.588 124.944 272.844 125.96 272.844 127.096V128.656H263.652C263.812 129.296 264.212 129.76 264.852 130.048C265.492 130.336 266.364 130.48 267.468 130.48C268.22 130.48 268.988 130.416 269.772 130.288C270.572 130.16 271.26 129.984 271.836 129.76V132.544C271.244 132.784 270.5 132.976 269.604 133.12C268.724 133.28 267.82 133.36 266.892 133.36ZM268.86 126.016C268.796 125.392 268.54 124.904 268.092 124.552C267.644 124.2 267.028 124.024 266.244 124.024C265.476 124.024 264.868 124.208 264.42 124.576C263.972 124.928 263.716 125.408 263.652 126.016H268.86ZM283.391 130.576L286.055 128.152L287.207 127.12C288.151 126.288 288.871 125.624 289.367 125.128C289.879 124.632 290.295 124.128 290.615 123.616C290.951 123.104 291.119 122.6 291.119 122.104C291.119 120.616 290.279 119.872 288.599 119.872C287.783 119.872 286.975 120.016 286.175 120.304C285.391 120.592 284.663 120.992 283.991 121.504V117.448C284.711 116.952 285.551 116.568 286.511 116.296C287.471 116.008 288.495 115.864 289.583 115.864C290.831 115.864 291.911 116.096 292.823 116.56C293.735 117.024 294.431 117.664 294.911 118.48C295.391 119.296 295.631 120.216 295.631 121.24C295.631 122.472 295.343 123.552 294.767 124.48C294.207 125.392 293.295 126.424 292.031 127.576L289.895 129.52H296.159V133H283.391V130.576ZM303.479 133.36C302.423 133.36 301.407 133.272 300.431 133.096C299.471 132.92 298.647 132.656 297.959 132.304V128.944C299.575 129.68 301.207 130.048 302.855 130.048C305.079 130.048 306.191 129.384 306.191 128.056C306.191 127.384 305.919 126.904 305.375 126.616C304.831 126.312 303.983 126.16 302.831 126.16H300.503V122.92H302.735C303.679 122.92 304.407 122.76 304.919 122.44C305.447 122.12 305.711 121.648 305.711 121.024C305.711 120.432 305.479 119.976 305.015 119.656C304.551 119.336 303.895 119.176 303.047 119.176C301.303 119.176 299.719 119.624 298.295 120.52V117.088C299.015 116.704 299.839 116.408 300.767 116.2C301.695 115.976 302.655 115.864 303.647 115.864C305.839 115.864 307.455 116.304 308.495 117.184C309.535 118.048 310.055 119.272 310.055 120.856C310.055 121.576 309.879 122.256 309.527 122.896C309.191 123.536 308.687 124.08 308.015 124.528C309.695 125.264 310.535 126.512 310.535 128.272C310.535 129.888 309.983 131.144 308.879 132.04C307.775 132.92 305.975 133.36 303.479 133.36ZM313.853 133C313.437 133 313.077 132.856 312.773 132.568C312.485 132.28 312.341 131.928 312.341 131.512C312.341 131.08 312.485 130.712 312.773 130.408C313.077 130.104 313.437 129.952 313.853 129.952C314.285 129.952 314.645 130.104 314.933 130.408C315.237 130.712 315.389 131.08 315.389 131.512C315.389 131.928 315.237 132.28 314.933 132.568C314.645 132.856 314.285 133 313.853 133ZM322.367 133.36C321.407 133.36 320.455 133.256 319.511 133.048C318.567 132.84 317.791 132.552 317.183 132.184V128.464C317.903 128.928 318.711 129.296 319.607 129.568C320.519 129.824 321.375 129.952 322.175 129.952C323.295 129.952 324.127 129.736 324.671 129.304C325.215 128.872 325.487 128.28 325.487 127.528C325.487 126.808 325.207 126.248 324.647 125.848C324.103 125.448 323.335 125.248 322.343 125.248C321.783 125.248 321.191 125.304 320.567 125.416C319.959 125.512 319.431 125.656 318.983 125.848L317.351 124.912L318.023 116.224H328.775V119.704H322.127L321.911 122.344C322.647 122.152 323.431 122.056 324.263 122.056C326.007 122.056 327.367 122.52 328.343 123.448C329.335 124.36 329.831 125.68 329.831 127.408C329.831 129.28 329.199 130.744 327.935 131.8C326.671 132.84 324.815 133.36 322.367 133.36ZM336.986 133.36C335.802 133.36 334.786 133.224 333.938 132.952V129.352C334.674 129.736 335.578 129.928 336.65 129.928C337.866 129.928 338.858 129.608 339.626 128.968C340.41 128.328 340.882 127.376 341.042 126.112C340.658 126.512 340.13 126.832 339.458 127.072C338.786 127.296 338.058 127.408 337.274 127.408C336.17 127.408 335.194 127.184 334.346 126.736C333.498 126.288 332.834 125.64 332.354 124.792C331.874 123.944 331.634 122.936 331.634 121.768C331.634 120.632 331.89 119.624 332.402 118.744C332.93 117.848 333.706 117.144 334.73 116.632C335.77 116.12 337.026 115.864 338.498 115.864C340.722 115.864 342.442 116.552 343.658 117.928C344.89 119.288 345.506 121.168 345.506 123.568C345.506 125.648 345.138 127.424 344.402 128.896C343.682 130.368 342.682 131.48 341.402 132.232C340.122 132.984 338.65 133.36 336.986 133.36ZM338.498 124.144C339.202 124.144 339.794 123.904 340.274 123.424C340.754 122.944 340.994 122.36 340.994 121.672C340.994 120.968 340.754 120.376 340.274 119.896C339.794 119.416 339.202 119.176 338.498 119.176C337.81 119.176 337.226 119.424 336.746 119.92C336.266 120.4 336.026 120.984 336.026 121.672C336.026 122.36 336.266 122.944 336.746 123.424C337.226 123.904 337.81 124.144 338.498 124.144Z" fill="url(#paint0_radial_502_270)"/>
<path d="M115.311 99.152L120.639 94.304L122.943 92.24C124.831 90.576 126.271 89.248 127.263 88.256C128.287 87.264 129.119 86.256 129.759 85.232C130.431 84.208 130.767 83.2 130.767 82.208C130.767 79.232 129.087 77.744 125.727 77.744C124.095 77.744 122.479 78.032 120.879 78.608C119.311 79.184 117.855 79.984 116.511 81.008V72.896C117.951 71.904 119.631 71.136 121.551 70.592C123.471 70.016 125.519 69.728 127.695 69.728C130.191 69.728 132.351 70.192 134.175 71.12C135.999 72.048 137.391 73.328 138.351 74.96C139.311 76.592 139.791 78.432 139.791 80.48C139.791 82.944 139.215 85.104 138.063 86.96C136.943 88.784 135.119 90.848 132.591 93.152L128.319 97.04H140.847V104H115.311V99.152ZM158.944 77.408H143.968V70.448H168.16V76.112L155.44 104H146.8L158.944 77.408Z" fill="#5A5A5A"/>
<path d="M121.339 42.224H132.979V45.296H124.987V49.208H130.867V52.016H124.987V59H121.339V42.224ZM141.735 59.36C139.527 59.36 137.791 58.832 136.527 57.776C135.263 56.704 134.631 55.208 134.631 53.288C134.631 51.384 135.191 49.88 136.311 48.776C137.447 47.672 139.063 47.12 141.159 47.12C142.535 47.12 143.703 47.376 144.663 47.888C145.623 48.4 146.351 49.112 146.847 50.024C147.343 50.92 147.591 51.936 147.591 53.072V54.536H138.087C138.343 56.008 139.719 56.744 142.215 56.744C142.951 56.744 143.711 56.68 144.495 56.552C145.279 56.424 145.959 56.248 146.535 56.024V58.568C145.975 58.808 145.255 59 144.375 59.144C143.495 59.288 142.615 59.36 141.735 59.36ZM144.159 52.184C144.111 51.416 143.823 50.824 143.295 50.408C142.767 49.976 142.039 49.76 141.111 49.76C140.199 49.76 139.479 49.976 138.951 50.408C138.423 50.84 138.135 51.432 138.087 52.184H144.159ZM158.02 59.36C157.124 59.36 156.324 59.232 155.62 58.976C154.932 58.72 154.292 58.312 153.7 57.752V59H150.196V41.264H153.82V48.512C154.332 48.064 154.956 47.72 155.692 47.48C156.428 47.24 157.204 47.12 158.02 47.12C159.22 47.12 160.276 47.384 161.188 47.912C162.116 48.424 162.836 49.144 163.348 50.072C163.86 51 164.116 52.064 164.116 53.264C164.116 54.48 163.86 55.552 163.348 56.48C162.836 57.392 162.116 58.104 161.188 58.616C160.276 59.112 159.22 59.36 158.02 59.36ZM157.108 56.552C158.084 56.552 158.876 56.256 159.484 55.664C160.108 55.056 160.42 54.256 160.42 53.264C160.42 52.272 160.108 51.472 159.484 50.864C158.876 50.256 158.084 49.952 157.108 49.952C156.356 49.952 155.676 50.16 155.068 50.576C154.476 50.976 154.06 51.504 153.82 52.16V54.344C154.076 55.016 154.5 55.552 155.092 55.952C155.684 56.352 156.356 56.552 157.108 56.552Z" fill="#5A5A5A"/>
<path d="M112.2 131.392L115.824 127.912C116.144 127.592 116.592 127.176 117.168 126.664C118.08 125.832 118.776 125.16 119.256 124.648C119.736 124.136 120.128 123.592 120.432 123.016C120.736 122.424 120.888 121.792 120.888 121.12C120.888 120.128 120.6 119.376 120.024 118.864C119.448 118.336 118.608 118.072 117.504 118.072C116.752 118.072 115.976 118.208 115.176 118.48C114.392 118.752 113.656 119.152 112.968 119.68V117.328C114.312 116.352 115.952 115.864 117.888 115.864C119.616 115.864 120.96 116.328 121.92 117.256C122.88 118.168 123.36 119.416 123.36 121C123.36 121.768 123.192 122.504 122.856 123.208C122.536 123.912 122.08 124.608 121.488 125.296C120.896 125.968 120.096 126.792 119.088 127.768L115.824 130.96H123.984V133H112.2V131.392ZM133.729 133.36C132.289 133.36 131.041 133.008 129.985 132.304C128.945 131.6 128.145 130.592 127.585 129.28C127.025 127.968 126.745 126.416 126.745 124.624C126.745 122.832 127.017 121.28 127.561 119.968C128.121 118.64 128.921 117.624 129.961 116.92C131.017 116.216 132.273 115.864 133.729 115.864C135.185 115.864 136.433 116.216 137.473 116.92C138.529 117.624 139.329 118.64 139.873 119.968C140.433 121.28 140.713 122.832 140.713 124.624C140.713 126.416 140.433 127.968 139.873 129.28C139.313 130.592 138.505 131.6 137.449 132.304C136.409 133.008 135.169 133.36 133.729 133.36ZM133.729 131.2C135.153 131.2 136.265 130.616 137.065 129.448C137.881 128.264 138.289 126.664 138.289 124.648C138.289 122.632 137.889 121.032 137.089 119.848C136.289 118.664 135.169 118.072 133.729 118.072C132.289 118.072 131.169 118.664 130.369 119.848C129.569 121.032 129.169 122.632 129.169 124.648C129.169 126.664 129.569 128.264 130.369 129.448C131.185 130.616 132.305 131.2 133.729 131.2ZM143.47 131.392L147.094 127.912C147.414 127.592 147.862 127.176 148.438 126.664C149.35 125.832 150.046 125.16 150.526 124.648C151.006 124.136 151.398 123.592 151.702 123.016C152.006 122.424 152.158 121.792 152.158 121.12C152.158 120.128 151.87 119.376 151.294 118.864C150.718 118.336 149.878 118.072 148.774 118.072C148.022 118.072 147.246 118.208 146.446 118.48C145.662 118.752 144.926 119.152 144.238 119.68V117.328C145.582 116.352 147.222 115.864 149.158 115.864C150.886 115.864 152.23 116.328 153.19 117.256C154.15 118.168 154.63 119.416 154.63 121C154.63 121.768 154.462 122.504 154.126 123.208C153.806 123.912 153.35 124.608 152.758 125.296C152.166 125.968 151.366 126.792 150.358 127.768L147.094 130.96H155.254V133H143.47V131.392ZM158.015 131.392L161.639 127.912C161.959 127.592 162.407 127.176 162.983 126.664C163.895 125.832 164.591 125.16 165.071 124.648C165.551 124.136 165.943 123.592 166.247 123.016C166.551 122.424 166.703 121.792 166.703 121.12C166.703 120.128 166.415 119.376 165.839 118.864C165.263 118.336 164.423 118.072 163.319 118.072C162.567 118.072 161.791 118.208 160.991 118.48C160.207 118.752 159.471 119.152 158.783 119.68V117.328C160.127 116.352 161.767 115.864 163.703 115.864C165.431 115.864 166.775 116.328 167.735 117.256C168.695 118.168 169.175 119.416 169.175 121C169.175 121.768 169.007 122.504 168.671 123.208C168.351 123.912 167.895 124.608 167.303 125.296C166.711 125.968 165.911 126.792 164.903 127.768L161.639 130.96H169.799V133H158.015V131.392Z" fill="#939393"/>
<line opacity="0.2" x1="209" y1="34" x2="209" y2="142" stroke="#5A5A5A" stroke-width="2" stroke-linecap="round"/>
<path d="M8 0H16V169H8V0Z" fill="url(#paint1_linear_502_270)"/>
<circle cx="12" cy="87" r="12" fill="white"/>
<defs>
<radialGradient id="paint0_radial_502_270" cx="0" cy="0" r="1" gradientUnits="userSpaceOnUse" gradientTransform="translate(347 125) rotate(180) scale(112.5 375)">
<stop stop-color="#923CFF"/>
<stop offset="1" stop-color="#FB4FFF"/>
</radialGradient>
<linearGradient id="paint1_linear_502_270" x1="12" y1="0" x2="12" y2="169" gradientUnits="userSpaceOnUse">
<stop stop-color="#FB4FFF"/>
<stop offset="1" stop-color="#9152FE"/>
</linearGradient>
</defs>
</svg>
