<svg width="1037" height="196" viewBox="0 0 1037 196" fill="none" xmlns="http://www.w3.org/2000/svg">
<path d="M77 56C77 33.9086 94.9086 16 117 16H997C1019.09 16 1037 33.9086 1037 56V112C1037 134.091 1019.09 152 997 152H117C94.9086 152 77 134.091 77 112V56Z" fill="white"/>
<path d="M47 86L77 68.6795L77 103.321L47 86Z" fill="white"/>
<path d="M240.488 91.72C236.84 91.72 233.624 91.016 230.84 89.608C228.088 88.2 225.96 86.184 224.456 83.56C222.952 80.904 222.2 77.8 222.2 74.248C222.2 70.696 222.952 67.608 224.456 64.984C225.96 62.328 228.088 60.296 230.84 58.888C233.624 57.448 236.84 56.728 240.488 56.728C242.888 56.728 245.032 56.968 246.92 57.448C248.808 57.928 250.552 58.68 252.152 59.704V67.768C250.744 66.648 249.144 65.832 247.352 65.32C245.592 64.808 243.56 64.552 241.256 64.552C237.96 64.552 235.416 65.416 233.624 67.144C231.832 68.84 230.936 71.208 230.936 74.248C230.936 77.288 231.832 79.672 233.624 81.4C235.448 83.128 237.992 83.992 241.256 83.992C243.56 83.992 245.624 83.72 247.448 83.176C249.272 82.632 250.968 81.768 252.536 80.584V88.6C249.496 90.68 245.48 91.72 240.488 91.72ZM269.108 91.72C266.26 91.72 263.764 91.208 261.62 90.184C259.476 89.128 257.812 87.688 256.628 85.864C255.476 84.008 254.9 81.88 254.9 79.48C254.9 77.08 255.476 74.968 256.628 73.144C257.812 71.288 259.476 69.848 261.62 68.824C263.764 67.768 266.26 67.24 269.108 67.24C271.956 67.24 274.452 67.768 276.596 68.824C278.74 69.848 280.388 71.288 281.54 73.144C282.724 74.968 283.316 77.08 283.316 79.48C283.316 81.88 282.724 84.008 281.54 85.864C280.388 87.688 278.74 89.128 276.596 90.184C274.452 91.208 271.956 91.72 269.108 91.72ZM269.108 85.144C270.804 85.144 272.148 84.648 273.14 83.656C274.164 82.632 274.676 81.24 274.676 79.48C274.676 77.72 274.164 76.344 273.14 75.352C272.148 74.328 270.804 73.816 269.108 73.816C267.412 73.816 266.052 74.328 265.028 75.352C264.036 76.344 263.54 77.72 263.54 79.48C263.54 81.24 264.036 82.632 265.028 83.656C266.052 84.648 267.412 85.144 269.108 85.144ZM287.857 67.96H295.681V70.456C296.641 69.432 297.745 68.648 298.993 68.104C300.241 67.528 301.569 67.24 302.977 67.24C304.705 67.24 306.081 67.496 307.105 68.008C308.161 68.52 309.009 69.288 309.649 70.312C310.609 69.352 311.777 68.6 313.153 68.056C314.529 67.512 315.921 67.24 317.329 67.24C320.369 67.24 322.529 68.024 323.809 69.592C325.089 71.128 325.729 73.352 325.729 76.264V91H317.665V77.464C317.665 76.184 317.425 75.256 316.945 74.68C316.465 74.104 315.665 73.816 314.545 73.816C313.105 73.816 311.937 74.328 311.041 75.352C311.073 75.896 311.089 76.728 311.089 77.848V91H303.025V77.128C303.025 75.944 302.817 75.096 302.401 74.584C301.985 74.072 301.249 73.816 300.193 73.816C298.561 73.816 297.153 74.728 295.969 76.552V91H287.857V67.96ZM331.01 67.96H339.17V70.264C341.314 68.248 344.034 67.24 347.33 67.24C349.73 67.24 351.858 67.752 353.714 68.776C355.57 69.768 357.01 71.192 358.034 73.048C359.058 74.872 359.57 77 359.57 79.432C359.57 81.832 359.058 83.976 358.034 85.864C357.01 87.72 355.57 89.16 353.714 90.184C351.89 91.208 349.762 91.72 347.33 91.72C345.794 91.72 344.322 91.48 342.914 91C341.538 90.552 340.386 89.928 339.458 89.128V101.512H331.01V67.96ZM345.122 85.144C346.85 85.144 348.242 84.632 349.298 83.608C350.354 82.584 350.882 81.192 350.882 79.432C350.882 77.672 350.354 76.296 349.298 75.304C348.242 74.28 346.85 73.768 345.122 73.768C343.842 73.768 342.69 74.104 341.666 74.776C340.642 75.416 339.906 76.296 339.458 77.416V81.496C339.906 82.616 340.642 83.512 341.666 84.184C342.69 84.824 343.842 85.144 345.122 85.144ZM377.668 91.72C373.156 91.72 369.604 90.664 367.012 88.552C364.452 86.44 363.172 83.448 363.172 79.576C363.172 75.768 364.308 72.76 366.58 70.552C368.884 68.344 372.196 67.24 376.516 67.24C379.268 67.24 381.62 67.768 383.572 68.824C385.556 69.848 387.044 71.272 388.036 73.096C389.06 74.888 389.572 76.92 389.572 79.192V82.312H371.188C371.508 83.592 372.308 84.52 373.588 85.096C374.868 85.672 376.612 85.96 378.82 85.96C380.324 85.96 381.86 85.832 383.428 85.576C385.028 85.32 386.404 84.968 387.556 84.52V90.088C386.372 90.568 384.884 90.952 383.092 91.24C381.332 91.56 379.524 91.72 377.668 91.72ZM381.604 77.032C381.476 75.784 380.964 74.808 380.068 74.104C379.172 73.4 377.94 73.048 376.372 73.048C374.836 73.048 373.62 73.416 372.724 74.152C371.828 74.856 371.316 75.816 371.188 77.032H381.604ZM404.097 91.72C401.249 91.72 399.089 90.936 397.617 89.368C396.177 87.768 395.457 85.592 395.457 82.84V73.816H392.193V67.96H395.457V61.048H403.905V67.96H409.185V73.816H403.905V81.688C403.905 82.936 404.129 83.832 404.577 84.376C405.057 84.92 405.889 85.192 407.073 85.192C408.129 85.192 409.185 84.904 410.241 84.328V90.616C409.409 91 408.513 91.272 407.553 91.432C406.625 91.624 405.473 91.72 404.097 91.72ZM418.341 64.888C417.061 64.888 415.989 64.472 415.125 63.64C414.261 62.808 413.829 61.752 413.829 60.472C413.829 59.224 414.261 58.184 415.125 57.352C415.989 56.488 417.061 56.056 418.341 56.056C419.589 56.056 420.645 56.488 421.509 57.352C422.405 58.184 422.853 59.224 422.853 60.472C422.853 61.72 422.405 62.776 421.509 63.64C420.645 64.472 419.589 64.888 418.341 64.888ZM414.117 67.96H422.565V91H414.117V67.96ZM438.372 91.72C435.524 91.72 433.364 90.936 431.892 89.368C430.452 87.768 429.732 85.592 429.732 82.84V73.816H426.468V67.96H429.732V61.048H438.18V67.96H443.46V73.816H438.18V81.688C438.18 82.936 438.404 83.832 438.852 84.376C439.332 84.92 440.164 85.192 441.348 85.192C442.404 85.192 443.46 84.904 444.516 84.328V90.616C443.684 91 442.788 91.272 441.828 91.432C440.9 91.624 439.748 91.72 438.372 91.72ZM452.616 64.888C451.336 64.888 450.264 64.472 449.4 63.64C448.536 62.808 448.104 61.752 448.104 60.472C448.104 59.224 448.536 58.184 449.4 57.352C450.264 56.488 451.336 56.056 452.616 56.056C453.864 56.056 454.92 56.488 455.784 57.352C456.68 58.184 457.128 59.224 457.128 60.472C457.128 61.72 456.68 62.776 455.784 63.64C454.92 64.472 453.864 64.888 452.616 64.888ZM448.392 67.96H456.84V91H448.392V67.96ZM475.911 91.72C473.063 91.72 470.567 91.208 468.423 90.184C466.279 89.128 464.615 87.688 463.431 85.864C462.279 84.008 461.703 81.88 461.703 79.48C461.703 77.08 462.279 74.968 463.431 73.144C464.615 71.288 466.279 69.848 468.423 68.824C470.567 67.768 473.063 67.24 475.911 67.24C478.759 67.24 481.255 67.768 483.399 68.824C485.543 69.848 487.191 71.288 488.343 73.144C489.527 74.968 490.119 77.08 490.119 79.48C490.119 81.88 489.527 84.008 488.343 85.864C487.191 87.688 485.543 89.128 483.399 90.184C481.255 91.208 478.759 91.72 475.911 91.72ZM475.911 85.144C477.607 85.144 478.951 84.648 479.943 83.656C480.967 82.632 481.479 81.24 481.479 79.48C481.479 77.72 480.967 76.344 479.943 75.352C478.951 74.328 477.607 73.816 475.911 73.816C474.215 73.816 472.855 74.328 471.831 75.352C470.839 76.344 470.343 77.72 470.343 79.48C470.343 81.24 470.839 82.632 471.831 83.656C472.855 84.648 474.215 85.144 475.911 85.144ZM494.66 67.96H502.82V70.504C503.812 69.416 505.012 68.6 506.42 68.056C507.828 67.512 509.3 67.24 510.836 67.24C514.068 67.24 516.452 68.088 517.988 69.784C519.556 71.448 520.34 73.72 520.34 76.6V91H511.892V77.704C511.892 75.112 510.708 73.816 508.34 73.816C507.252 73.816 506.26 74.072 505.364 74.584C504.468 75.064 503.716 75.816 503.108 76.84V91H494.66V67.96ZM543.138 57.448H555.186C558.866 57.448 562.082 58.12 564.834 59.464C567.586 60.808 569.698 62.744 571.17 65.272C572.674 67.768 573.426 70.696 573.426 74.056C573.426 79.624 571.794 83.848 568.53 86.728C565.266 89.576 560.738 91 554.946 91H543.138V57.448ZM555.666 83.848C558.578 83.848 560.802 82.968 562.338 81.208C563.906 79.448 564.69 77.064 564.69 74.056C564.69 71.304 563.906 69.048 562.338 67.288C560.802 65.496 558.674 64.6 555.954 64.6H551.634V83.848H555.666ZM585.229 91.72C582.349 91.72 580.013 91.032 578.221 89.656C576.461 88.248 575.581 86.296 575.581 83.8C575.581 81.208 576.429 79.224 578.125 77.848C579.853 76.44 582.317 75.736 585.517 75.736C586.765 75.736 588.013 75.88 589.261 76.168C590.509 76.424 591.581 76.776 592.477 77.224V76.744C592.477 74.28 590.461 73.048 586.429 73.048C583.613 73.048 581.037 73.592 578.701 74.68V68.872C579.725 68.392 581.069 68.008 582.733 67.72C584.397 67.4 586.125 67.24 587.917 67.24C592.205 67.24 595.437 68.104 597.613 69.832C599.821 71.528 600.925 73.912 600.925 76.984V91H593.005V89.032C592.141 89.864 591.053 90.52 589.741 91C588.429 91.48 586.925 91.72 585.229 91.72ZM587.725 86.536C588.717 86.536 589.645 86.344 590.509 85.96C591.373 85.544 592.029 85.016 592.477 84.376V82.36C591.101 81.432 589.533 80.968 587.773 80.968C586.653 80.968 585.789 81.208 585.181 81.688C584.573 82.168 584.269 82.872 584.269 83.8C584.269 84.664 584.557 85.336 585.133 85.816C585.741 86.296 586.605 86.536 587.725 86.536ZM611.142 100.504C610.118 100.504 609.046 100.424 607.926 100.264C606.806 100.136 605.974 99.944 605.43 99.688V93.4C606.358 93.784 607.414 93.976 608.598 93.976C609.654 93.976 610.47 93.736 611.046 93.256C611.654 92.808 612.134 92.088 612.486 91.096L613.062 89.56L603.078 67.96H611.526L617.526 82.936L623.19 67.96H631.638L622.134 92.056C621.014 94.936 619.574 97.064 617.814 98.44C616.086 99.816 613.862 100.504 611.142 100.504Z" fill="#525252"/>
<path d="M233.72 132.36C232.52 132.36 231.456 132.112 230.528 131.616C229.6 131.104 228.88 130.392 228.368 129.48C227.856 128.552 227.6 127.48 227.6 126.264C227.6 125.064 227.856 124 228.368 123.072C228.88 122.128 229.592 121.4 230.504 120.888C231.432 120.376 232.504 120.12 233.72 120.12C234.52 120.12 235.256 120.232 235.928 120.456C236.6 120.68 237.176 121 237.656 121.416V114.264H241.88V132H237.8V130.848C236.728 131.856 235.368 132.36 233.72 132.36ZM234.824 129.096C235.464 129.096 236.04 128.936 236.552 128.616C237.064 128.28 237.432 127.832 237.656 127.272V125.232C237.432 124.672 237.064 124.232 236.552 123.912C236.04 123.576 235.464 123.408 234.824 123.408C233.96 123.408 233.264 123.664 232.736 124.176C232.208 124.688 231.944 125.384 231.944 126.264C231.944 127.144 232.208 127.84 232.736 128.352C233.264 128.848 233.96 129.096 234.824 129.096ZM249.273 132.36C247.689 132.36 246.497 131.92 245.697 131.04C244.913 130.16 244.521 129 244.521 127.56V120.48H248.745V127.08C248.745 128.408 249.345 129.072 250.545 129.072C251.089 129.072 251.585 128.944 252.033 128.688C252.481 128.432 252.849 128.056 253.137 127.56V120.48H257.361V132H253.281V130.752C252.785 131.28 252.185 131.68 251.481 131.952C250.777 132.224 250.041 132.36 249.273 132.36ZM266.892 132.36C264.636 132.36 262.86 131.832 261.564 130.776C260.284 129.72 259.644 128.224 259.644 126.288C259.644 124.384 260.212 122.88 261.348 121.776C262.5 120.672 264.156 120.12 266.316 120.12C267.692 120.12 268.868 120.384 269.844 120.912C270.836 121.424 271.58 122.136 272.076 123.048C272.588 123.944 272.844 124.96 272.844 126.096V127.656H263.652C263.812 128.296 264.212 128.76 264.852 129.048C265.492 129.336 266.364 129.48 267.468 129.48C268.22 129.48 268.988 129.416 269.772 129.288C270.572 129.16 271.26 128.984 271.836 128.76V131.544C271.244 131.784 270.5 131.976 269.604 132.12C268.724 132.28 267.82 132.36 266.892 132.36ZM268.86 125.016C268.796 124.392 268.54 123.904 268.092 123.552C267.644 123.2 267.028 123.024 266.244 123.024C265.476 123.024 264.868 123.208 264.42 123.576C263.972 123.928 263.716 124.408 263.652 125.016H268.86ZM283.391 129.576L286.055 127.152L287.207 126.12C288.151 125.288 288.871 124.624 289.367 124.128C289.879 123.632 290.295 123.128 290.615 122.616C290.951 122.104 291.119 121.6 291.119 121.104C291.119 119.616 290.279 118.872 288.599 118.872C287.783 118.872 286.975 119.016 286.175 119.304C285.391 119.592 284.663 119.992 283.991 120.504V116.448C284.711 115.952 285.551 115.568 286.511 115.296C287.471 115.008 288.495 114.864 289.583 114.864C290.831 114.864 291.911 115.096 292.823 115.56C293.735 116.024 294.431 116.664 294.911 117.48C295.391 118.296 295.631 119.216 295.631 120.24C295.631 121.472 295.343 122.552 294.767 123.48C294.207 124.392 293.295 125.424 292.031 126.576L289.895 128.52H296.159V132H283.391V129.576ZM303.479 132.36C302.423 132.36 301.407 132.272 300.431 132.096C299.471 131.92 298.647 131.656 297.959 131.304V127.944C299.575 128.68 301.207 129.048 302.855 129.048C305.079 129.048 306.191 128.384 306.191 127.056C306.191 126.384 305.919 125.904 305.375 125.616C304.831 125.312 303.983 125.16 302.831 125.16H300.503V121.92H302.735C303.679 121.92 304.407 121.76 304.919 121.44C305.447 121.12 305.711 120.648 305.711 120.024C305.711 119.432 305.479 118.976 305.015 118.656C304.551 118.336 303.895 118.176 303.047 118.176C301.303 118.176 299.719 118.624 298.295 119.52V116.088C299.015 115.704 299.839 115.408 300.767 115.2C301.695 114.976 302.655 114.864 303.647 114.864C305.839 114.864 307.455 115.304 308.495 116.184C309.535 117.048 310.055 118.272 310.055 119.856C310.055 120.576 309.879 121.256 309.527 121.896C309.191 122.536 308.687 123.08 308.015 123.528C309.695 124.264 310.535 125.512 310.535 127.272C310.535 128.888 309.983 130.144 308.879 131.04C307.775 131.92 305.975 132.36 303.479 132.36ZM313.853 132C313.437 132 313.077 131.856 312.773 131.568C312.485 131.28 312.341 130.928 312.341 130.512C312.341 130.08 312.485 129.712 312.773 129.408C313.077 129.104 313.437 128.952 313.853 128.952C314.285 128.952 314.645 129.104 314.933 129.408C315.237 129.712 315.389 130.08 315.389 130.512C315.389 130.928 315.237 131.28 314.933 131.568C314.645 131.856 314.285 132 313.853 132ZM322.367 132.36C321.407 132.36 320.455 132.256 319.511 132.048C318.567 131.84 317.791 131.552 317.183 131.184V127.464C317.903 127.928 318.711 128.296 319.607 128.568C320.519 128.824 321.375 128.952 322.175 128.952C323.295 128.952 324.127 128.736 324.671 128.304C325.215 127.872 325.487 127.28 325.487 126.528C325.487 125.808 325.207 125.248 324.647 124.848C324.103 124.448 323.335 124.248 322.343 124.248C321.783 124.248 321.191 124.304 320.567 124.416C319.959 124.512 319.431 124.656 318.983 124.848L317.351 123.912L318.023 115.224H328.775V118.704H322.127L321.911 121.344C322.647 121.152 323.431 121.056 324.263 121.056C326.007 121.056 327.367 121.52 328.343 122.448C329.335 123.36 329.831 124.68 329.831 126.408C329.831 128.28 329.199 129.744 327.935 130.8C326.671 131.84 324.815 132.36 322.367 132.36ZM336.986 132.36C335.802 132.36 334.786 132.224 333.938 131.952V128.352C334.674 128.736 335.578 128.928 336.65 128.928C337.866 128.928 338.858 128.608 339.626 127.968C340.41 127.328 340.882 126.376 341.042 125.112C340.658 125.512 340.13 125.832 339.458 126.072C338.786 126.296 338.058 126.408 337.274 126.408C336.17 126.408 335.194 126.184 334.346 125.736C333.498 125.288 332.834 124.64 332.354 123.792C331.874 122.944 331.634 121.936 331.634 120.768C331.634 119.632 331.89 118.624 332.402 117.744C332.93 116.848 333.706 116.144 334.73 115.632C335.77 115.12 337.026 114.864 338.498 114.864C340.722 114.864 342.442 115.552 343.658 116.928C344.89 118.288 345.506 120.168 345.506 122.568C345.506 124.648 345.138 126.424 344.402 127.896C343.682 129.368 342.682 130.48 341.402 131.232C340.122 131.984 338.65 132.36 336.986 132.36ZM338.498 123.144C339.202 123.144 339.794 122.904 340.274 122.424C340.754 121.944 340.994 121.36 340.994 120.672C340.994 119.968 340.754 119.376 340.274 118.896C339.794 118.416 339.202 118.176 338.498 118.176C337.81 118.176 337.226 118.424 336.746 118.92C336.266 119.4 336.026 119.984 336.026 120.672C336.026 121.36 336.266 121.944 336.746 122.424C337.226 122.904 337.81 123.144 338.498 123.144Z" fill="url(#paint0_radial_502_272)"/>
<path d="M118.303 98.152L123.631 93.304L125.935 91.24C127.823 89.576 129.263 88.248 130.255 87.256C131.279 86.264 132.111 85.256 132.751 84.232C133.423 83.208 133.759 82.2 133.759 81.208C133.759 78.232 132.079 76.744 128.719 76.744C127.087 76.744 125.471 77.032 123.871 77.608C122.303 78.184 120.847 78.984 119.503 80.008V71.896C120.943 70.904 122.623 70.136 124.543 69.592C126.463 69.016 128.511 68.728 130.687 68.728C133.183 68.728 135.343 69.192 137.167 70.12C138.991 71.048 140.383 72.328 141.343 73.96C142.303 75.592 142.783 77.432 142.783 79.48C142.783 81.944 142.207 84.104 141.055 85.96C139.935 87.784 138.111 89.848 135.583 92.152L131.311 96.04H143.839V103H118.303V98.152ZM154.257 78.904L147.441 83.848V75.496L155.697 69.448H162.753V103H154.257V78.904Z" fill="#5A5A5A"/>
<path d="M120.699 41.224H124.299L129.459 52.456L134.643 41.224H138.219V58H134.739V48.472L130.299 58H128.619L124.203 48.472V58H120.699V41.224ZM145.634 58.36C144.226 58.36 143.074 58.008 142.178 57.304C141.298 56.584 140.858 55.608 140.858 54.376C140.858 53.096 141.282 52.104 142.13 51.4C142.978 50.68 144.178 50.32 145.73 50.32C146.418 50.32 147.074 50.392 147.698 50.536C148.322 50.68 148.874 50.88 149.354 51.136V50.848C149.354 50.128 149.098 49.6 148.586 49.264C148.074 48.928 147.29 48.76 146.234 48.76C144.826 48.76 143.53 49.024 142.346 49.552V46.912C142.858 46.688 143.522 46.504 144.338 46.36C145.154 46.2 145.97 46.12 146.786 46.12C148.866 46.12 150.418 46.552 151.442 47.416C152.466 48.264 152.978 49.456 152.978 50.992V58H149.57V56.944C148.594 57.888 147.282 58.36 145.634 58.36ZM146.618 55.96C147.21 55.96 147.746 55.848 148.226 55.624C148.706 55.4 149.082 55.088 149.354 54.688V53.536C148.538 52.992 147.642 52.72 146.666 52.72C145.994 52.72 145.474 52.864 145.106 53.152C144.754 53.424 144.578 53.832 144.578 54.376C144.578 54.888 144.754 55.28 145.106 55.552C145.458 55.824 145.962 55.96 146.618 55.96ZM155.977 46.48H159.481V48.136C159.945 47.576 160.593 47.152 161.425 46.864C162.257 46.56 163.201 46.408 164.257 46.408V49.168C163.153 49.168 162.177 49.336 161.329 49.672C160.497 50.008 159.921 50.52 159.601 51.208V58H155.977V46.48Z" fill="#5A5A5A"/>
<path d="M112.2 130.392L115.824 126.912C116.144 126.592 116.592 126.176 117.168 125.664C118.08 124.832 118.776 124.16 119.256 123.648C119.736 123.136 120.128 122.592 120.432 122.016C120.736 121.424 120.888 120.792 120.888 120.12C120.888 119.128 120.6 118.376 120.024 117.864C119.448 117.336 118.608 117.072 117.504 117.072C116.752 117.072 115.976 117.208 115.176 117.48C114.392 117.752 113.656 118.152 112.968 118.68V116.328C114.312 115.352 115.952 114.864 117.888 114.864C119.616 114.864 120.96 115.328 121.92 116.256C122.88 117.168 123.36 118.416 123.36 120C123.36 120.768 123.192 121.504 122.856 122.208C122.536 122.912 122.08 123.608 121.488 124.296C120.896 124.968 120.096 125.792 119.088 126.768L115.824 129.96H123.984V132H112.2V130.392ZM133.729 132.36C132.289 132.36 131.041 132.008 129.985 131.304C128.945 130.6 128.145 129.592 127.585 128.28C127.025 126.968 126.745 125.416 126.745 123.624C126.745 121.832 127.017 120.28 127.561 118.968C128.121 117.64 128.921 116.624 129.961 115.92C131.017 115.216 132.273 114.864 133.729 114.864C135.185 114.864 136.433 115.216 137.473 115.92C138.529 116.624 139.329 117.64 139.873 118.968C140.433 120.28 140.713 121.832 140.713 123.624C140.713 125.416 140.433 126.968 139.873 128.28C139.313 129.592 138.505 130.6 137.449 131.304C136.409 132.008 135.169 132.36 133.729 132.36ZM133.729 130.2C135.153 130.2 136.265 129.616 137.065 128.448C137.881 127.264 138.289 125.664 138.289 123.648C138.289 121.632 137.889 120.032 137.089 118.848C136.289 117.664 135.169 117.072 133.729 117.072C132.289 117.072 131.169 117.664 130.369 118.848C129.569 120.032 129.169 121.632 129.169 123.648C129.169 125.664 129.569 127.264 130.369 128.448C131.185 129.616 132.305 130.2 133.729 130.2ZM143.47 130.392L147.094 126.912C147.414 126.592 147.862 126.176 148.438 125.664C149.35 124.832 150.046 124.16 150.526 123.648C151.006 123.136 151.398 122.592 151.702 122.016C152.006 121.424 152.158 120.792 152.158 120.12C152.158 119.128 151.87 118.376 151.294 117.864C150.718 117.336 149.878 117.072 148.774 117.072C148.022 117.072 147.246 117.208 146.446 117.48C145.662 117.752 144.926 118.152 144.238 118.68V116.328C145.582 115.352 147.222 114.864 149.158 114.864C150.886 114.864 152.23 115.328 153.19 116.256C154.15 117.168 154.63 118.416 154.63 120C154.63 120.768 154.462 121.504 154.126 122.208C153.806 122.912 153.35 123.608 152.758 124.296C152.166 124.968 151.366 125.792 150.358 126.768L147.094 129.96H155.254V132H143.47V130.392ZM158.015 130.392L161.639 126.912C161.959 126.592 162.407 126.176 162.983 125.664C163.895 124.832 164.591 124.16 165.071 123.648C165.551 123.136 165.943 122.592 166.247 122.016C166.551 121.424 166.703 120.792 166.703 120.12C166.703 119.128 166.415 118.376 165.839 117.864C165.263 117.336 164.423 117.072 163.319 117.072C162.567 117.072 161.791 117.208 160.991 117.48C160.207 117.752 159.471 118.152 158.783 118.68V116.328C160.127 115.352 161.767 114.864 163.703 114.864C165.431 114.864 166.775 115.328 167.735 116.256C168.695 117.168 169.175 118.416 169.175 120C169.175 120.768 169.007 121.504 168.671 122.208C168.351 122.912 167.895 123.608 167.303 124.296C166.711 124.968 165.911 125.792 164.903 126.768L161.639 129.96H169.799V132H158.015V130.392Z" fill="#939393"/>
<line opacity="0.2" x1="209" y1="33" x2="209" y2="141" stroke="#5A5A5A" stroke-width="2" stroke-linecap="round"/>
<path d="M8 0H16V192C16 194.209 14.2091 196 12 196V196C9.79086 196 8 194.209 8 192V0Z" fill="url(#paint1_linear_502_272)"/>
<circle cx="12" cy="88" r="12" fill="white"/>
<defs>
<radialGradient id="paint0_radial_502_272" cx="0" cy="0" r="1" gradientUnits="userSpaceOnUse" gradientTransform="translate(227 124) scale(120 400)">
<stop stop-color="#FB4FFF"/>
<stop offset="1" stop-color="#9152FE"/>
</radialGradient>
<linearGradient id="paint1_linear_502_272" x1="12" y1="0" x2="12" y2="196" gradientUnits="userSpaceOnUse">
<stop stop-color="#FB4FFF"/>
<stop offset="1" stop-color="#9152FE"/>
</linearGradient>
</defs>
</svg>
