<svg width="72" height="72" viewBox="0 0 72 72" fill="none" xmlns="http://www.w3.org/2000/svg">
<circle cx="36" cy="36" r="30" fill="#C13584"/>
<path d="M36 21.2432C40.8062 21.2432 41.3755 21.2616 43.2735 21.3482C45.0285 21.4282 45.9816 21.7214 46.6159 21.968C47.4561 22.2945 48.0557 22.6845 48.6855 23.3144C49.3154 23.9443 49.7055 24.5439 50.032 25.3841C50.2785 26.0184 50.5718 26.9714 50.6518 28.7264C50.7384 30.6244 50.7568 31.1938 50.7568 35.9999C50.7568 40.8061 50.7384 41.3754 50.6518 43.2735C50.5718 45.0284 50.2785 45.9815 50.032 46.6158C49.7055 47.456 49.3154 48.0556 48.6856 48.6854C48.0557 49.3153 47.4561 49.7054 46.6159 50.0319C45.9816 50.2784 45.0285 50.5717 43.2735 50.6517C41.3758 50.7383 40.8065 50.7566 36 50.7566C31.1934 50.7566 30.6243 50.7383 28.7265 50.6517C26.9715 50.5717 26.0184 50.2784 25.3841 50.0319C24.5439 49.7054 23.9443 49.3153 23.3145 48.6854C22.6846 48.0556 22.2945 47.456 21.968 46.6158C21.7215 45.9815 21.4282 45.0284 21.3482 43.2735C21.2616 41.3754 21.2432 40.8061 21.2432 35.9999C21.2432 31.1938 21.2616 30.6244 21.3482 28.7264C21.4282 26.9714 21.7215 26.0184 21.968 25.3841C22.2945 24.5439 22.6845 23.9443 23.3145 23.3144C23.9443 22.6845 24.5439 22.2945 25.3841 21.968C26.0184 21.7214 26.9715 21.4282 28.7265 21.3482C30.6245 21.2616 31.1938 21.2432 36 21.2432ZM36 18C31.1115 18 30.4985 18.0207 28.5786 18.1083C26.6627 18.1957 25.3542 18.5 24.2093 18.9449C23.0257 19.4049 22.0218 20.0204 21.0211 21.0211C20.0204 22.0218 19.4049 23.0256 18.945 24.2093C18.5 25.3542 18.1957 26.6627 18.1083 28.5786C18.0207 30.4985 18 31.1114 18 35.9999C18 40.8884 18.0207 41.5014 18.1083 43.4213C18.1957 45.3372 18.5 46.6457 18.945 47.7906C19.4049 48.9742 20.0204 49.978 21.0211 50.9788C22.0218 51.9795 23.0257 52.5949 24.2093 53.0549C25.3542 53.4999 26.6627 53.8042 28.5786 53.8916C30.4985 53.9792 31.1115 53.9999 36 53.9999C40.8885 53.9999 41.5015 53.9792 43.4214 53.8916C45.3373 53.8042 46.6457 53.4999 47.7907 53.0549C48.9743 52.5949 49.9782 51.9795 50.9789 50.9788C51.9796 49.978 52.5951 48.9742 53.0551 47.7906C53.5 46.6457 53.8043 45.3372 53.8917 43.4213C53.9793 41.5014 54 40.8884 54 35.9999C54 31.1114 53.9793 30.4985 53.8917 28.5786C53.8043 26.6627 53.5 25.3542 53.0551 24.2093C52.5951 23.0256 51.9796 22.0218 50.9789 21.0211C49.9782 20.0204 48.9743 19.4049 47.7907 18.9449C46.6457 18.5 45.3373 18.1957 43.4214 18.1083C41.5015 18.0207 40.8885 18 36 18Z" fill="#15002E"/>
<path d="M36.0084 26.7656C30.9034 26.7656 26.7651 30.9039 26.7651 36.0088C26.7651 41.1137 30.9034 45.252 36.0084 45.252C41.1133 45.252 45.2516 41.1137 45.2516 36.0088C45.2516 30.9039 41.1133 26.7656 36.0084 26.7656ZM36.0084 42.0088C32.6947 42.0088 30.0084 39.3225 30.0084 36.0088C30.0084 32.6951 32.6947 30.0089 36.0084 30.0089C39.3221 30.0089 42.0084 32.6951 42.0084 36.0088C42.0084 39.3225 39.3221 42.0088 36.0084 42.0088Z" fill="#15002E"/>
<path d="M47.7761 26.3944C47.7761 27.5873 46.809 28.5544 45.616 28.5544C44.4231 28.5544 43.4561 27.5873 43.4561 26.3944C43.4561 25.2015 44.4231 24.2344 45.616 24.2344C46.809 24.2344 47.7761 25.2015 47.7761 26.3944Z" fill="#15002E"/>
</svg>
