<svg width="72" height="72" viewBox="0 0 72 72" fill="none" xmlns="http://www.w3.org/2000/svg">
<circle cx="36" cy="36" r="30" fill="#0077B5"/>
<path fill-rule="evenodd" clip-rule="evenodd" d="M28.1621 21.4258C28.1621 23.2935 26.7401 24.8049 24.5162 24.8049C22.379 24.8049 20.957 23.2935 21.001 21.4258C20.957 19.4674 22.379 18 24.5588 18C26.74 18 28.1195 19.4674 28.1621 21.4258ZM21.1798 49.2286V27.4743H27.9407V49.2272H21.1798V49.2286Z" fill="#15002E"/>
<path fill-rule="evenodd" clip-rule="evenodd" d="M33.3599 34.4162C33.3599 31.7028 33.2705 29.3895 33.1812 27.4765H39.0536L39.3658 30.4568H39.4992C40.389 29.0773 42.6129 26.9883 46.2161 26.9883C50.6638 26.9883 54.0003 29.9245 54.0003 36.3278V49.2308H47.2393V37.175C47.2393 34.3708 46.2615 32.4592 43.8149 32.4592C41.9459 32.4592 40.8346 33.7492 40.3904 34.9938C40.2116 35.4394 40.1236 36.061 40.1236 36.6854V49.2308H33.3627V34.4162H33.3599Z" fill="#15002E"/>
</svg>
