<svg width="1037" height="179" viewBox="0 0 1037 179" fill="none" xmlns="http://www.w3.org/2000/svg">
<path fill-rule="evenodd" clip-rule="evenodd" d="M117 32.0234C94.9086 32.0234 77 49.932 77 72.0234V90.4764L57 102.023L77 113.57V128.023C77 150.115 94.9086 168.023 117 168.023H997C1019.09 168.023 1037 150.115 1037 128.023V72.0234C1037 49.9321 1019.09 32.0234 997 32.0234H117Z" fill="url(#paint0_radial_502_269)"/>
<path d="M240.248 107.743C236.856 107.743 233.784 107.007 231.032 105.535C228.312 104.063 226.152 102.015 224.552 99.3914C222.984 96.7354 222.2 93.6954 222.2 90.2714C222.2 86.8474 222.984 83.8074 224.552 81.1514C226.152 78.4954 228.312 76.4314 231.032 74.9594C233.784 73.4874 236.856 72.7514 240.248 72.7514C243.608 72.7514 246.648 73.4874 249.368 74.9594C252.12 76.4314 254.28 78.4954 255.848 81.1514C257.416 83.8074 258.2 86.8474 258.2 90.2714C258.2 93.6954 257.416 96.7354 255.848 99.3914C254.28 102.015 252.12 104.063 249.368 105.535C246.648 107.007 243.608 107.743 240.248 107.743ZM240.248 99.7754C241.944 99.7754 243.496 99.3914 244.904 98.6234C246.312 97.8554 247.432 96.7514 248.264 95.3114C249.096 93.8714 249.512 92.1914 249.512 90.2714C249.512 88.3514 249.096 86.6874 248.264 85.2794C247.464 83.8394 246.36 82.7354 244.952 81.9674C243.544 81.1674 241.976 80.7674 240.248 80.7674C238.488 80.7674 236.904 81.1674 235.496 81.9674C234.088 82.7354 232.968 83.8394 232.136 85.2794C231.336 86.6874 230.936 88.3514 230.936 90.2714C230.936 92.1914 231.336 93.8714 232.136 95.3114C232.968 96.7514 234.088 97.8554 235.496 98.6234C236.936 99.3914 238.52 99.7754 240.248 99.7754ZM262.751 83.9834H270.911V86.2874C273.055 84.2714 275.775 83.2634 279.071 83.2634C281.471 83.2634 283.599 83.7754 285.455 84.7994C287.311 85.7914 288.751 87.2154 289.775 89.0714C290.799 90.8954 291.311 93.0234 291.311 95.4554C291.311 97.8554 290.799 99.9994 289.775 101.887C288.751 103.743 287.311 105.183 285.455 106.207C283.631 107.231 281.503 107.743 279.071 107.743C277.535 107.743 276.063 107.503 274.655 107.023C273.279 106.575 272.127 105.951 271.199 105.151V117.535H262.751V83.9834ZM276.863 101.167C278.591 101.167 279.983 100.655 281.039 99.6314C282.095 98.6074 282.623 97.2154 282.623 95.4554C282.623 93.6954 282.095 92.3194 281.039 91.3274C279.983 90.3034 278.591 89.7914 276.863 89.7914C275.583 89.7914 274.431 90.1274 273.407 90.7994C272.383 91.4394 271.647 92.3194 271.199 93.4394V97.5194C271.647 98.6394 272.383 99.5354 273.407 100.207C274.431 100.847 275.583 101.167 276.863 101.167ZM309.409 107.743C304.897 107.743 301.345 106.687 298.753 104.575C296.193 102.463 294.913 99.4714 294.913 95.5994C294.913 91.7914 296.049 88.7834 298.321 86.5754C300.625 84.3674 303.937 83.2634 308.257 83.2634C311.009 83.2634 313.361 83.7914 315.313 84.8474C317.297 85.8714 318.785 87.2954 319.777 89.1194C320.801 90.9114 321.313 92.9434 321.313 95.2154V98.3354H302.929C303.249 99.6154 304.049 100.543 305.329 101.119C306.609 101.695 308.353 101.983 310.561 101.983C312.065 101.983 313.601 101.855 315.169 101.599C316.769 101.343 318.145 100.991 319.297 100.543V106.111C318.113 106.591 316.625 106.975 314.833 107.263C313.073 107.583 311.265 107.743 309.409 107.743ZM313.345 93.0554C313.217 91.8074 312.705 90.8314 311.809 90.1274C310.913 89.4234 309.681 89.0714 308.113 89.0714C306.577 89.0714 305.361 89.4394 304.465 90.1754C303.569 90.8794 303.057 91.8394 302.929 93.0554H313.345ZM325.854 83.9834H334.014V86.5274C335.006 85.4394 336.206 84.6234 337.614 84.0794C339.022 83.5354 340.494 83.2634 342.03 83.2634C345.262 83.2634 347.646 84.1114 349.182 85.8074C350.75 87.4714 351.534 89.7434 351.534 92.6234V107.023H343.086V93.7274C343.086 91.1354 341.902 89.8394 339.534 89.8394C338.446 89.8394 337.454 90.0954 336.558 90.6074C335.662 91.0874 334.91 91.8394 334.302 92.8634V107.023H325.854V83.9834ZM374.332 73.4714H389.404C393.34 73.4714 396.412 74.4634 398.62 76.4474C400.86 78.4314 401.98 81.2794 401.98 84.9914C401.98 87.4874 401.436 89.6154 400.348 91.3754C399.26 93.1354 397.724 94.4474 395.74 95.3114L401.692 107.023H392.956L387.628 96.5114H382.828V107.023H374.332V73.4714ZM387.916 89.3594C389.612 89.3594 390.924 89.0394 391.852 88.3994C392.78 87.7274 393.244 86.5914 393.244 84.9914C393.244 83.3274 392.78 82.1914 391.852 81.5834C390.956 80.9434 389.644 80.6234 387.916 80.6234H382.828V89.3594H387.916ZM420.099 107.743C415.587 107.743 412.035 106.687 409.443 104.575C406.883 102.463 405.603 99.4714 405.603 95.5994C405.603 91.7914 406.739 88.7834 409.011 86.5754C411.315 84.3674 414.627 83.2634 418.947 83.2634C421.699 83.2634 424.051 83.7914 426.003 84.8474C427.987 85.8714 429.475 87.2954 430.467 89.1194C431.491 90.9114 432.003 92.9434 432.003 95.2154V98.3354H413.619C413.939 99.6154 414.739 100.543 416.019 101.119C417.299 101.695 419.043 101.983 421.251 101.983C422.755 101.983 424.291 101.855 425.859 101.599C427.459 101.343 428.835 100.991 429.987 100.543V106.111C428.803 106.591 427.315 106.975 425.523 107.263C423.763 107.583 421.955 107.743 420.099 107.743ZM424.035 93.0554C423.907 91.8074 423.395 90.8314 422.499 90.1274C421.603 89.4234 420.371 89.0714 418.803 89.0714C417.267 89.0714 416.051 89.4394 415.155 90.1754C414.259 90.8794 413.747 91.8394 413.619 93.0554H424.035ZM449.072 118.063C447.536 118.063 445.984 117.919 444.416 117.631C442.88 117.343 441.552 116.959 440.432 116.479V110.623C442.96 111.711 445.84 112.255 449.072 112.255C451.408 112.255 453.088 111.775 454.112 110.815C455.168 109.855 455.696 108.447 455.696 106.591V105.199C454.768 105.999 453.616 106.623 452.24 107.071C450.896 107.519 449.456 107.743 447.92 107.743C445.488 107.743 443.344 107.231 441.488 106.207C439.632 105.183 438.176 103.743 437.12 101.887C436.096 100.031 435.584 97.9034 435.584 95.5034C435.584 93.0714 436.096 90.9274 437.12 89.0714C438.144 87.2154 439.584 85.7914 441.44 84.7994C443.296 83.7754 445.424 83.2634 447.824 83.2634C451.12 83.2634 453.84 84.2714 455.984 86.2874V83.9834H464.144V105.439C464.144 109.439 462.912 112.543 460.448 114.751C458.016 116.959 454.224 118.063 449.072 118.063ZM450.032 101.215C451.344 101.215 452.512 100.879 453.536 100.207C454.56 99.5354 455.28 98.6394 455.696 97.5194V93.4874C455.248 92.3674 454.512 91.4874 453.488 90.8474C452.464 90.1754 451.312 89.8394 450.032 89.8394C448.304 89.8394 446.912 90.3514 445.856 91.3754C444.8 92.3674 444.272 93.7274 444.272 95.4554C444.272 97.2154 444.8 98.6234 445.856 99.6794C446.912 100.703 448.304 101.215 450.032 101.215ZM474.178 80.9114C472.898 80.9114 471.826 80.4954 470.962 79.6634C470.098 78.8314 469.666 77.7754 469.666 76.4954C469.666 75.2474 470.098 74.2074 470.962 73.3754C471.826 72.5114 472.898 72.0794 474.178 72.0794C475.426 72.0794 476.482 72.5114 477.346 73.3754C478.242 74.2074 478.69 75.2474 478.69 76.4954C478.69 77.7434 478.242 78.7994 477.346 79.6634C476.482 80.4954 475.426 80.9114 474.178 80.9114ZM469.954 83.9834H478.402V107.023H469.954V83.9834ZM494.162 107.743C492.306 107.743 490.37 107.551 488.354 107.167C486.338 106.815 484.738 106.303 483.554 105.631V99.4394C484.866 100.207 486.434 100.847 488.258 101.359C490.114 101.839 491.81 102.079 493.346 102.079C494.466 102.079 495.282 101.999 495.794 101.839C496.306 101.679 496.562 101.359 496.562 100.879C496.562 100.495 496.386 100.191 496.034 99.9674C495.714 99.7114 495.106 99.4554 494.21 99.1994C493.346 98.9114 492.338 98.6074 491.186 98.2874C489.234 97.7114 487.698 97.1194 486.578 96.5114C485.458 95.9034 484.626 95.1354 484.082 94.2074C483.538 93.2794 483.266 92.1114 483.266 90.7034C483.266 88.2074 484.242 86.3514 486.194 85.1354C488.178 83.8874 490.882 83.2634 494.306 83.2634C495.97 83.2634 497.714 83.4394 499.538 83.7914C501.394 84.1434 502.786 84.6074 503.714 85.1834V91.2794C502.754 90.6394 501.474 90.1114 499.874 89.6954C498.306 89.2794 496.834 89.0714 495.458 89.0714C494.37 89.0714 493.522 89.1834 492.914 89.4074C492.306 89.5994 492.002 89.9514 492.002 90.4634C492.002 90.9434 492.306 91.3114 492.914 91.5674C493.522 91.8234 494.61 92.1434 496.178 92.5274C497.202 92.7834 497.634 92.8954 497.474 92.8634C499.522 93.4074 501.106 94.0154 502.226 94.6874C503.346 95.3594 504.13 96.1594 504.578 97.0874C505.058 97.9834 505.298 99.1354 505.298 100.543C505.298 102.751 504.338 104.511 502.418 105.823C500.53 107.103 497.778 107.743 494.162 107.743ZM519.128 107.743C516.28 107.743 514.12 106.959 512.648 105.391C511.208 103.791 510.488 101.615 510.488 98.8634V89.8394H507.224V83.9834H510.488V77.0714H518.936V83.9834H524.216V89.8394H518.936V97.7114C518.936 98.9594 519.16 99.8554 519.608 100.399C520.088 100.943 520.92 101.215 522.104 101.215C523.16 101.215 524.216 100.927 525.272 100.351V106.639C524.44 107.023 523.544 107.295 522.584 107.455C521.656 107.647 520.504 107.743 519.128 107.743ZM528.86 83.9834H537.02V86.8634C537.916 85.8394 539.18 85.0554 540.812 84.5114C542.444 83.9354 544.252 83.6474 546.236 83.6474V90.1274C544.124 90.1274 542.252 90.4314 540.62 91.0394C539.02 91.6474 537.916 92.5594 537.308 93.7754V107.023H528.86V83.9834ZM556.373 107.743C553.493 107.743 551.157 107.055 549.365 105.679C547.605 104.271 546.725 102.319 546.725 99.8234C546.725 97.2314 547.573 95.2474 549.269 93.8714C550.997 92.4634 553.461 91.7594 556.661 91.7594C557.909 91.7594 559.157 91.9034 560.405 92.1914C561.653 92.4474 562.725 92.7994 563.621 93.2474V92.7674C563.621 90.3034 561.605 89.0714 557.573 89.0714C554.757 89.0714 552.181 89.6154 549.845 90.7034V84.8954C550.869 84.4154 552.213 84.0314 553.877 83.7434C555.541 83.4234 557.269 83.2634 559.061 83.2634C563.349 83.2634 566.581 84.1274 568.757 85.8554C570.965 87.5514 572.069 89.9354 572.069 93.0074V107.023H564.149V105.055C563.285 105.887 562.197 106.543 560.885 107.023C559.573 107.503 558.069 107.743 556.373 107.743ZM558.869 102.559C559.861 102.559 560.789 102.367 561.653 101.983C562.517 101.567 563.173 101.039 563.621 100.399V98.3834C562.245 97.4554 560.677 96.9914 558.917 96.9914C557.797 96.9914 556.933 97.2314 556.325 97.7114C555.717 98.1914 555.413 98.8954 555.413 99.8234C555.413 100.687 555.701 101.359 556.277 101.839C556.885 102.319 557.749 102.559 558.869 102.559ZM586.103 107.743C583.255 107.743 581.095 106.959 579.623 105.391C578.183 103.791 577.463 101.615 577.463 98.8634V89.8394H574.199V83.9834H577.463V77.0714H585.911V83.9834H591.191V89.8394H585.911V97.7114C585.911 98.9594 586.135 99.8554 586.583 100.399C587.063 100.943 587.895 101.215 589.079 101.215C590.135 101.215 591.191 100.927 592.247 100.351V106.639C591.415 107.023 590.519 107.295 589.559 107.455C588.631 107.647 587.479 107.743 586.103 107.743ZM600.347 80.9114C599.067 80.9114 597.995 80.4954 597.131 79.6634C596.267 78.8314 595.835 77.7754 595.835 76.4954C595.835 75.2474 596.267 74.2074 597.131 73.3754C597.995 72.5114 599.067 72.0794 600.347 72.0794C601.595 72.0794 602.651 72.5114 603.515 73.3754C604.411 74.2074 604.859 75.2474 604.859 76.4954C604.859 77.7434 604.411 78.7994 603.515 79.6634C602.651 80.4954 601.595 80.9114 600.347 80.9114ZM596.123 83.9834H604.571V107.023H596.123V83.9834ZM623.642 107.743C620.794 107.743 618.298 107.231 616.154 106.207C614.01 105.151 612.346 103.711 611.162 101.887C610.01 100.031 609.434 97.9034 609.434 95.5034C609.434 93.1034 610.01 90.9914 611.162 89.1674C612.346 87.3114 614.01 85.8714 616.154 84.8474C618.298 83.7914 620.794 83.2634 623.642 83.2634C626.49 83.2634 628.986 83.7914 631.13 84.8474C633.274 85.8714 634.922 87.3114 636.074 89.1674C637.258 90.9914 637.85 93.1034 637.85 95.5034C637.85 97.9034 637.258 100.031 636.074 101.887C634.922 103.711 633.274 105.151 631.13 106.207C628.986 107.231 626.49 107.743 623.642 107.743ZM623.642 101.167C625.338 101.167 626.682 100.671 627.674 99.6794C628.698 98.6554 629.21 97.2634 629.21 95.5034C629.21 93.7434 628.698 92.3674 627.674 91.3754C626.682 90.3514 625.338 89.8394 623.642 89.8394C621.946 89.8394 620.586 90.3514 619.562 91.3754C618.57 92.3674 618.074 93.7434 618.074 95.5034C618.074 97.2634 618.57 98.6554 619.562 99.6794C620.586 100.671 621.946 101.167 623.642 101.167ZM642.391 83.9834H650.551V86.5274C651.543 85.4394 652.743 84.6234 654.151 84.0794C655.559 83.5354 657.031 83.2634 658.567 83.2634C661.799 83.2634 664.183 84.1114 665.719 85.8074C667.287 87.4714 668.071 89.7434 668.071 92.6234V107.023H659.623V93.7274C659.623 91.1354 658.439 89.8394 656.071 89.8394C654.983 89.8394 653.991 90.0954 653.095 90.6074C652.199 91.0874 651.447 91.8394 650.839 92.8634V107.023H642.391V83.9834Z" fill="#525252"/>
<path d="M233.72 148.383C232.52 148.383 231.456 148.135 230.528 147.639C229.6 147.127 228.88 146.415 228.368 145.503C227.856 144.575 227.6 143.503 227.6 142.287C227.6 141.087 227.856 140.023 228.368 139.095C228.88 138.151 229.592 137.423 230.504 136.911C231.432 136.399 232.504 136.143 233.72 136.143C234.52 136.143 235.256 136.255 235.928 136.479C236.6 136.703 237.176 137.023 237.656 137.439V130.287H241.88V148.023H237.8V146.871C236.728 147.879 235.368 148.383 233.72 148.383ZM234.824 145.119C235.464 145.119 236.04 144.959 236.552 144.639C237.064 144.303 237.432 143.855 237.656 143.295V141.255C237.432 140.695 237.064 140.255 236.552 139.935C236.04 139.599 235.464 139.431 234.824 139.431C233.96 139.431 233.264 139.687 232.736 140.199C232.208 140.711 231.944 141.407 231.944 142.287C231.944 143.167 232.208 143.863 232.736 144.375C233.264 144.871 233.96 145.119 234.824 145.119ZM249.273 148.383C247.689 148.383 246.497 147.943 245.697 147.063C244.913 146.183 244.521 145.023 244.521 143.583V136.503H248.745V143.103C248.745 144.431 249.345 145.095 250.545 145.095C251.089 145.095 251.585 144.967 252.033 144.711C252.481 144.455 252.849 144.079 253.137 143.583V136.503H257.361V148.023H253.281V146.775C252.785 147.303 252.185 147.703 251.481 147.975C250.777 148.247 250.041 148.383 249.273 148.383ZM266.892 148.383C264.636 148.383 262.86 147.855 261.564 146.799C260.284 145.743 259.644 144.247 259.644 142.311C259.644 140.407 260.212 138.903 261.348 137.799C262.5 136.695 264.156 136.143 266.316 136.143C267.692 136.143 268.868 136.407 269.844 136.935C270.836 137.447 271.58 138.159 272.076 139.071C272.588 139.967 272.844 140.983 272.844 142.119V143.679H263.652C263.812 144.319 264.212 144.783 264.852 145.071C265.492 145.359 266.364 145.503 267.468 145.503C268.22 145.503 268.988 145.439 269.772 145.311C270.572 145.183 271.26 145.007 271.836 144.783V147.567C271.244 147.807 270.5 147.999 269.604 148.143C268.724 148.303 267.82 148.383 266.892 148.383ZM268.86 141.039C268.796 140.415 268.54 139.927 268.092 139.575C267.644 139.223 267.028 139.047 266.244 139.047C265.476 139.047 264.868 139.231 264.42 139.599C263.972 139.951 263.716 140.431 263.652 141.039H268.86ZM283.391 145.599L286.055 143.175L287.207 142.143C288.151 141.311 288.871 140.647 289.367 140.151C289.879 139.655 290.295 139.151 290.615 138.639C290.951 138.127 291.119 137.623 291.119 137.127C291.119 135.639 290.279 134.895 288.599 134.895C287.783 134.895 286.975 135.039 286.175 135.327C285.391 135.615 284.663 136.015 283.991 136.527V132.471C284.711 131.975 285.551 131.591 286.511 131.319C287.471 131.031 288.495 130.887 289.583 130.887C290.831 130.887 291.911 131.119 292.823 131.583C293.735 132.047 294.431 132.687 294.911 133.503C295.391 134.319 295.631 135.239 295.631 136.263C295.631 137.495 295.343 138.575 294.767 139.503C294.207 140.415 293.295 141.447 292.031 142.599L289.895 144.543H296.159V148.023H283.391V145.599ZM303.479 148.383C302.423 148.383 301.407 148.295 300.431 148.119C299.471 147.943 298.647 147.679 297.959 147.327V143.967C299.575 144.703 301.207 145.071 302.855 145.071C305.079 145.071 306.191 144.407 306.191 143.079C306.191 142.407 305.919 141.927 305.375 141.639C304.831 141.335 303.983 141.183 302.831 141.183H300.503V137.943H302.735C303.679 137.943 304.407 137.783 304.919 137.463C305.447 137.143 305.711 136.671 305.711 136.047C305.711 135.455 305.479 134.999 305.015 134.679C304.551 134.359 303.895 134.199 303.047 134.199C301.303 134.199 299.719 134.647 298.295 135.543V132.111C299.015 131.727 299.839 131.431 300.767 131.223C301.695 130.999 302.655 130.887 303.647 130.887C305.839 130.887 307.455 131.327 308.495 132.207C309.535 133.071 310.055 134.295 310.055 135.879C310.055 136.599 309.879 137.279 309.527 137.919C309.191 138.559 308.687 139.103 308.015 139.551C309.695 140.287 310.535 141.535 310.535 143.295C310.535 144.911 309.983 146.167 308.879 147.063C307.775 147.943 305.975 148.383 303.479 148.383ZM313.853 148.023C313.437 148.023 313.077 147.879 312.773 147.591C312.485 147.303 312.341 146.951 312.341 146.535C312.341 146.103 312.485 145.735 312.773 145.431C313.077 145.127 313.437 144.975 313.853 144.975C314.285 144.975 314.645 145.127 314.933 145.431C315.237 145.735 315.389 146.103 315.389 146.535C315.389 146.951 315.237 147.303 314.933 147.591C314.645 147.879 314.285 148.023 313.853 148.023ZM322.367 148.383C321.407 148.383 320.455 148.279 319.511 148.071C318.567 147.863 317.791 147.575 317.183 147.207V143.487C317.903 143.951 318.711 144.319 319.607 144.591C320.519 144.847 321.375 144.975 322.175 144.975C323.295 144.975 324.127 144.759 324.671 144.327C325.215 143.895 325.487 143.303 325.487 142.551C325.487 141.831 325.207 141.271 324.647 140.871C324.103 140.471 323.335 140.271 322.343 140.271C321.783 140.271 321.191 140.327 320.567 140.439C319.959 140.535 319.431 140.679 318.983 140.871L317.351 139.935L318.023 131.247H328.775V134.727H322.127L321.911 137.367C322.647 137.175 323.431 137.079 324.263 137.079C326.007 137.079 327.367 137.543 328.343 138.471C329.335 139.383 329.831 140.703 329.831 142.431C329.831 144.303 329.199 145.767 327.935 146.823C326.671 147.863 324.815 148.383 322.367 148.383ZM336.986 148.383C335.802 148.383 334.786 148.247 333.938 147.975V144.375C334.674 144.759 335.578 144.951 336.65 144.951C337.866 144.951 338.858 144.631 339.626 143.991C340.41 143.351 340.882 142.399 341.042 141.135C340.658 141.535 340.13 141.855 339.458 142.095C338.786 142.319 338.058 142.431 337.274 142.431C336.17 142.431 335.194 142.207 334.346 141.759C333.498 141.311 332.834 140.663 332.354 139.815C331.874 138.967 331.634 137.959 331.634 136.791C331.634 135.655 331.89 134.647 332.402 133.767C332.93 132.871 333.706 132.167 334.73 131.655C335.77 131.143 337.026 130.887 338.498 130.887C340.722 130.887 342.442 131.575 343.658 132.951C344.89 134.311 345.506 136.191 345.506 138.591C345.506 140.671 345.138 142.447 344.402 143.919C343.682 145.391 342.682 146.503 341.402 147.255C340.122 148.007 338.65 148.383 336.986 148.383ZM338.498 139.167C339.202 139.167 339.794 138.927 340.274 138.447C340.754 137.967 340.994 137.383 340.994 136.695C340.994 135.991 340.754 135.399 340.274 134.919C339.794 134.439 339.202 134.199 338.498 134.199C337.81 134.199 337.226 134.447 336.746 134.943C336.266 135.423 336.026 136.007 336.026 136.695C336.026 137.383 336.266 137.967 336.746 138.447C337.226 138.927 337.81 139.167 338.498 139.167Z" fill="url(#paint1_radial_502_269)"/>
<path d="M114.467 114.152L119.795 109.304L122.099 107.24C123.987 105.576 125.427 104.248 126.419 103.256C127.443 102.264 128.275 101.256 128.915 100.232C129.587 99.208 129.923 98.2 129.923 97.208C129.923 94.232 128.243 92.744 124.883 92.744C123.251 92.744 121.635 93.032 120.035 93.608C118.467 94.184 117.011 94.984 115.667 96.008V87.896C117.107 86.904 118.787 86.136 120.707 85.592C122.627 85.016 124.675 84.728 126.851 84.728C129.347 84.728 131.507 85.192 133.331 86.12C135.155 87.048 136.547 88.328 137.507 89.96C138.467 91.592 138.947 93.432 138.947 95.48C138.947 97.944 138.371 100.104 137.219 101.96C136.099 103.784 134.275 105.848 131.747 108.152L127.475 112.04H140.003V119H114.467V114.152ZM159.061 119.72C155.957 119.72 153.237 119.032 150.901 117.656C148.565 116.248 146.757 114.232 145.477 111.608C144.229 108.984 143.605 105.864 143.605 102.248C143.605 98.632 144.229 95.512 145.477 92.888C146.725 90.264 148.501 88.248 150.805 86.84C153.141 85.432 155.893 84.728 159.061 84.728C162.229 84.728 164.965 85.432 167.269 86.84C169.605 88.248 171.397 90.264 172.645 92.888C173.893 95.512 174.517 98.632 174.517 102.248C174.517 105.864 173.877 108.984 172.597 111.608C171.349 114.232 169.557 116.248 167.221 117.656C164.885 119.032 162.165 119.72 159.061 119.72ZM159.061 111.752C161.205 111.752 162.869 110.92 164.053 109.256C165.237 107.592 165.829 105.288 165.829 102.344C165.829 99.368 165.237 97.032 164.053 95.336C162.901 93.608 161.237 92.744 159.061 92.744C156.885 92.744 155.205 93.608 154.021 95.336C152.869 97.032 152.293 99.368 152.293 102.344C152.293 105.288 152.885 107.592 154.069 109.256C155.253 110.92 156.917 111.752 159.061 111.752Z" fill="#5A5A5A"/>
<path d="M121.339 57.2474H132.979V60.3194H124.987V64.2314H130.867V67.0394H124.987V74.0234H121.339V57.2474ZM141.735 74.3834C139.527 74.3834 137.791 73.8554 136.527 72.7994C135.263 71.7274 134.631 70.2314 134.631 68.3114C134.631 66.4074 135.191 64.9034 136.311 63.7994C137.447 62.6954 139.063 62.1434 141.159 62.1434C142.535 62.1434 143.703 62.3994 144.663 62.9114C145.623 63.4234 146.351 64.1354 146.847 65.0474C147.343 65.9434 147.591 66.9594 147.591 68.0954V69.5594H138.087C138.343 71.0314 139.719 71.7674 142.215 71.7674C142.951 71.7674 143.711 71.7034 144.495 71.5754C145.279 71.4474 145.959 71.2714 146.535 71.0474V73.5914C145.975 73.8314 145.255 74.0234 144.375 74.1674C143.495 74.3114 142.615 74.3834 141.735 74.3834ZM144.159 67.2074C144.111 66.4394 143.823 65.8474 143.295 65.4314C142.767 64.9994 142.039 64.7834 141.111 64.7834C140.199 64.7834 139.479 64.9994 138.951 65.4314C138.423 65.8634 138.135 66.4554 138.087 67.2074H144.159ZM158.02 74.3834C157.124 74.3834 156.324 74.2554 155.62 73.9994C154.932 73.7434 154.292 73.3354 153.7 72.7754V74.0234H150.196V56.2874H153.82V63.5354C154.332 63.0874 154.956 62.7434 155.692 62.5034C156.428 62.2634 157.204 62.1434 158.02 62.1434C159.22 62.1434 160.276 62.4074 161.188 62.9354C162.116 63.4474 162.836 64.1674 163.348 65.0954C163.86 66.0234 164.116 67.0874 164.116 68.2874C164.116 69.5034 163.86 70.5754 163.348 71.5034C162.836 72.4154 162.116 73.1274 161.188 73.6394C160.276 74.1354 159.22 74.3834 158.02 74.3834ZM157.108 71.5754C158.084 71.5754 158.876 71.2794 159.484 70.6874C160.108 70.0794 160.42 69.2794 160.42 68.2874C160.42 67.2954 160.108 66.4954 159.484 65.8874C158.876 65.2794 158.084 64.9754 157.108 64.9754C156.356 64.9754 155.676 65.1834 155.068 65.5994C154.476 65.9994 154.06 66.5274 153.82 67.1834V69.3674C154.076 70.0394 154.5 70.5754 155.092 70.9754C155.684 71.3754 156.356 71.5754 157.108 71.5754Z" fill="#5A5A5A"/>
<path d="M112.2 146.415L115.824 142.935C116.144 142.615 116.592 142.199 117.168 141.687C118.08 140.855 118.776 140.183 119.256 139.671C119.736 139.159 120.128 138.615 120.432 138.039C120.736 137.447 120.888 136.815 120.888 136.143C120.888 135.151 120.6 134.399 120.024 133.887C119.448 133.359 118.608 133.095 117.504 133.095C116.752 133.095 115.976 133.231 115.176 133.503C114.392 133.775 113.656 134.175 112.968 134.703V132.351C114.312 131.375 115.952 130.887 117.888 130.887C119.616 130.887 120.96 131.351 121.92 132.279C122.88 133.191 123.36 134.439 123.36 136.023C123.36 136.791 123.192 137.527 122.856 138.231C122.536 138.935 122.08 139.631 121.488 140.319C120.896 140.991 120.096 141.815 119.088 142.791L115.824 145.983H123.984V148.023H112.2V146.415ZM133.729 148.383C132.289 148.383 131.041 148.031 129.985 147.327C128.945 146.623 128.145 145.615 127.585 144.303C127.025 142.991 126.745 141.439 126.745 139.647C126.745 137.855 127.017 136.303 127.561 134.991C128.121 133.663 128.921 132.647 129.961 131.943C131.017 131.239 132.273 130.887 133.729 130.887C135.185 130.887 136.433 131.239 137.473 131.943C138.529 132.647 139.329 133.663 139.873 134.991C140.433 136.303 140.713 137.855 140.713 139.647C140.713 141.439 140.433 142.991 139.873 144.303C139.313 145.615 138.505 146.623 137.449 147.327C136.409 148.031 135.169 148.383 133.729 148.383ZM133.729 146.223C135.153 146.223 136.265 145.639 137.065 144.471C137.881 143.287 138.289 141.687 138.289 139.671C138.289 137.655 137.889 136.055 137.089 134.871C136.289 133.687 135.169 133.095 133.729 133.095C132.289 133.095 131.169 133.687 130.369 134.871C129.569 136.055 129.169 137.655 129.169 139.671C129.169 141.687 129.569 143.287 130.369 144.471C131.185 145.639 132.305 146.223 133.729 146.223ZM143.47 146.415L147.094 142.935C147.414 142.615 147.862 142.199 148.438 141.687C149.35 140.855 150.046 140.183 150.526 139.671C151.006 139.159 151.398 138.615 151.702 138.039C152.006 137.447 152.158 136.815 152.158 136.143C152.158 135.151 151.87 134.399 151.294 133.887C150.718 133.359 149.878 133.095 148.774 133.095C148.022 133.095 147.246 133.231 146.446 133.503C145.662 133.775 144.926 134.175 144.238 134.703V132.351C145.582 131.375 147.222 130.887 149.158 130.887C150.886 130.887 152.23 131.351 153.19 132.279C154.15 133.191 154.63 134.439 154.63 136.023C154.63 136.791 154.462 137.527 154.126 138.231C153.806 138.935 153.35 139.631 152.758 140.319C152.166 140.991 151.366 141.815 150.358 142.791L147.094 145.983H155.254V148.023H143.47V146.415ZM158.015 146.415L161.639 142.935C161.959 142.615 162.407 142.199 162.983 141.687C163.895 140.855 164.591 140.183 165.071 139.671C165.551 139.159 165.943 138.615 166.247 138.039C166.551 137.447 166.703 136.815 166.703 136.143C166.703 135.151 166.415 134.399 165.839 133.887C165.263 133.359 164.423 133.095 163.319 133.095C162.567 133.095 161.791 133.231 160.991 133.503C160.207 133.775 159.471 134.175 158.783 134.703V132.351C160.127 131.375 161.767 130.887 163.703 130.887C165.431 130.887 166.775 131.351 167.735 132.279C168.695 133.191 169.175 134.439 169.175 136.023C169.175 136.791 169.007 137.527 168.671 138.231C168.351 138.935 167.895 139.631 167.303 140.319C166.711 140.991 165.911 141.815 164.903 142.791L161.639 145.983H169.799V148.023H158.015V146.415Z" fill="#939393"/>
<line opacity="0.2" x1="209" y1="49.0234" x2="209" y2="157.023" stroke="#5A5A5A" stroke-width="2" stroke-linecap="round"/>
<path d="M8 4C8 1.79086 9.79086 0 12 0V0C14.2091 0 16 1.79086 16 4V179H8V4Z" fill="url(#paint2_linear_502_269)"/>
<circle cx="12" cy="102" r="12" fill="white"/>
<defs>
<radialGradient id="paint0_radial_502_269" cx="0" cy="0" r="1" gradientUnits="userSpaceOnUse" gradientTransform="translate(236.276 96.5268) rotate(0.850101) scale(1556.9 5431.38)">
<stop stop-color="white"/>
<stop offset="1" stop-color="#E5E5E5"/>
</radialGradient>
<radialGradient id="paint1_radial_502_269" cx="0" cy="0" r="1" gradientUnits="userSpaceOnUse" gradientTransform="translate(339 140) rotate(180) scale(107 356.667)">
<stop stop-color="#923CFF"/>
<stop offset="1" stop-color="#FB4FFF"/>
</radialGradient>
<linearGradient id="paint2_linear_502_269" x1="12" y1="0" x2="12" y2="179" gradientUnits="userSpaceOnUse">
<stop stop-color="#9152FE"/>
<stop offset="1" stop-color="#FB4FFF"/>
</linearGradient>
</defs>
</svg>
