<svg width="920" height="140" viewBox="0 0 920 140" fill="none" xmlns="http://www.w3.org/2000/svg">
<rect width="920" height="140" rx="70" fill="url(#paint0_radial_512_189)"/>
<path d="M687.868 112.773L683.801 105.847L685.961 105.846L688.843 110.821L691.801 105.844L693.945 105.843L689.804 112.773L689.806 117.029L687.87 117.029L687.868 112.773ZM697.811 117.265C696.915 117.266 696.126 117.106 695.443 116.786C694.771 116.456 694.248 115.987 693.874 115.379C693.501 114.76 693.314 114.03 693.313 113.187C693.313 112.366 693.494 111.651 693.857 111.043C694.23 110.424 694.757 109.949 695.44 109.618C696.123 109.277 696.912 109.106 697.808 109.105C698.704 109.105 699.488 109.275 700.16 109.616C700.843 109.947 701.371 110.421 701.745 111.04C702.118 111.648 702.305 112.362 702.305 113.184C702.306 114.026 702.119 114.757 701.746 115.376C701.373 115.984 700.845 116.453 700.163 116.784C699.491 117.105 698.707 117.265 697.811 117.265ZM697.81 115.681C698.546 115.681 699.133 115.451 699.57 114.993C700.007 114.523 700.226 113.92 700.225 113.184C700.225 112.406 700.006 111.798 699.569 111.361C699.142 110.913 698.555 110.689 697.808 110.689C697.062 110.69 696.47 110.914 696.033 111.362C695.606 111.8 695.393 112.408 695.393 113.186C695.394 113.922 695.613 114.525 696.05 114.994C696.488 115.453 697.074 115.682 697.81 115.681ZM707.309 117.262C706.274 117.262 705.501 116.985 704.988 116.431C704.476 115.865 704.22 115.119 704.219 114.191L704.217 109.343L706.233 109.342L706.235 113.998C706.236 115.118 706.759 115.678 707.804 115.677C708.263 115.677 708.695 115.57 709.1 115.357C709.505 115.133 709.846 114.802 710.123 114.364L710.121 109.34L712.137 109.34L712.141 117.02L710.189 117.02L710.188 115.98C709.826 116.418 709.394 116.743 708.893 116.957C708.391 117.16 707.863 117.261 707.309 117.262ZM715.198 105.594L717.15 105.594L715.871 108.73L714.143 108.731L715.198 105.594ZM719.144 109.337L721.096 109.336L721.097 110.568C721.406 110.152 721.843 109.842 722.408 109.64C722.984 109.437 723.64 109.335 724.376 109.335L724.377 110.871C723.598 110.871 722.921 110.994 722.345 111.24C721.78 111.474 721.385 111.848 721.162 112.36L721.163 117.016L719.147 117.017L719.144 109.337ZM729.899 117.253C728.469 117.253 727.339 116.896 726.506 116.182C725.674 115.468 725.258 114.47 725.257 113.19C725.257 111.932 725.624 110.934 726.36 110.198C727.096 109.462 728.146 109.093 729.512 109.093C730.408 109.092 731.17 109.263 731.8 109.604C732.44 109.945 732.92 110.414 733.24 111.011C733.561 111.598 733.721 112.27 733.721 113.027L733.721 113.955L727.177 113.958C727.317 115.099 728.309 115.669 730.154 115.668C730.645 115.668 731.146 115.625 731.658 115.54C732.17 115.454 732.618 115.337 733.002 115.187L733.003 116.739C732.64 116.889 732.171 117.012 731.595 117.108C731.029 117.204 730.464 117.252 729.899 117.253ZM731.817 112.58C731.795 111.972 731.576 111.503 731.16 111.172C730.755 110.842 730.195 110.676 729.48 110.677C728.776 110.677 728.222 110.848 727.816 111.189C727.411 111.531 727.198 111.995 727.177 112.582L731.817 112.58ZM741.891 109.328L743.843 109.327L743.844 110.559C744.153 110.143 744.59 109.833 745.155 109.631C745.731 109.428 746.387 109.326 747.123 109.326L747.124 110.862C746.345 110.862 745.668 110.985 745.092 111.231C744.527 111.465 744.132 111.839 743.908 112.351L743.91 117.007L741.894 117.008L741.891 109.328ZM752.646 117.244C751.216 117.244 750.085 116.887 749.253 116.173C748.421 115.459 748.005 114.461 748.004 113.181C748.004 111.923 748.371 110.925 749.107 110.189C749.843 109.453 750.893 109.084 752.258 109.084C753.154 109.083 753.917 109.254 754.547 109.595C755.187 109.936 755.667 110.405 755.987 111.002C756.307 111.589 756.468 112.261 756.468 113.018L756.468 113.946L749.924 113.949C750.063 115.09 751.056 115.66 752.901 115.659C753.392 115.659 753.893 115.616 754.405 115.531C754.917 115.445 755.365 115.328 755.749 115.178L755.749 116.73C755.387 116.88 754.918 117.003 754.342 117.099C753.776 117.195 753.211 117.243 752.646 117.244ZM754.564 112.571C754.542 111.963 754.323 111.494 753.907 111.163C753.502 110.833 752.942 110.667 752.227 110.668C751.523 110.668 750.968 110.839 750.563 111.18C750.158 111.522 749.945 111.986 749.924 112.573L754.564 112.571ZM761.292 117.24C760.374 117.24 759.622 117.001 759.035 116.521C758.448 116.031 758.155 115.375 758.155 114.553C758.154 113.7 758.431 113.033 758.986 112.553C759.54 112.073 760.319 111.832 761.321 111.832C762.292 111.832 763.13 112.029 763.834 112.423L763.834 112.215C763.833 111.671 763.663 111.276 763.321 111.031C762.99 110.786 762.452 110.664 761.705 110.664C761.236 110.664 760.772 110.712 760.313 110.808C759.854 110.894 759.449 111.017 759.097 111.177L759.097 109.593C759.417 109.444 759.843 109.321 760.376 109.224C760.92 109.128 761.443 109.08 761.944 109.08C763.278 109.079 764.265 109.367 764.905 109.943C765.545 110.508 765.865 111.297 765.866 112.31L765.868 116.998L763.964 116.999L763.963 116.247C763.633 116.567 763.254 116.813 762.828 116.983C762.412 117.154 761.9 117.24 761.292 117.24ZM761.787 115.768C762.235 115.768 762.64 115.682 763.003 115.511C763.366 115.33 763.643 115.085 763.835 114.775L763.834 113.927C763.247 113.511 762.575 113.304 761.818 113.304C760.741 113.304 760.202 113.721 760.203 114.553C760.203 114.958 760.336 115.262 760.603 115.464C760.88 115.667 761.275 115.768 761.787 115.768ZM771.838 117.236C771.059 117.236 770.361 117.071 769.742 116.741C769.134 116.4 768.653 115.925 768.301 115.317C767.96 114.699 767.789 113.984 767.788 113.174C767.788 112.374 767.958 111.664 768.3 111.045C768.651 110.427 769.131 109.946 769.739 109.605C770.358 109.252 771.056 109.076 771.835 109.076C773.093 109.075 774.086 109.406 774.811 110.067L774.809 105.171L776.825 105.17L776.83 116.994L774.878 116.995L774.878 116.099C774.44 116.504 773.987 116.798 773.518 116.979C773.049 117.15 772.489 117.236 771.838 117.236ZM772.333 115.652C772.909 115.651 773.421 115.497 773.869 115.187C774.317 114.878 774.632 114.461 774.813 113.939L774.812 112.387C774.641 111.864 774.326 111.448 773.868 111.139C773.419 110.819 772.907 110.659 772.331 110.66C771.606 110.66 771.009 110.895 770.54 111.364C770.071 111.834 769.836 112.437 769.836 113.173C769.837 113.909 770.072 114.506 770.541 114.964C771.011 115.423 771.608 115.652 772.333 115.652ZM780.273 120.161C779.996 120.161 779.702 120.139 779.393 120.097C779.094 120.065 778.86 120.017 778.689 119.953L778.688 118.417C778.955 118.524 779.286 118.577 779.68 118.577C780.086 118.577 780.39 118.486 780.592 118.304C780.795 118.123 780.971 117.835 781.12 117.44L781.424 116.64L778.109 109.313L780.141 109.313L782.511 114.912L784.733 109.311L786.749 109.31L783.392 117.679C783.051 118.522 782.635 119.146 782.145 119.552C781.665 119.957 781.041 120.16 780.273 120.161ZM797.679 117.226C796.837 117.226 796.197 116.992 795.759 116.522C795.321 116.053 795.103 115.392 795.102 114.539L795.101 110.843L793.949 110.843L793.948 109.307L795.1 109.307L795.099 107.003L797.115 107.002L797.116 109.306L798.956 109.305L798.957 110.841L797.117 110.842L797.118 114.282C797.118 114.773 797.209 115.124 797.391 115.338C797.572 115.54 797.903 115.642 798.383 115.641C798.713 115.641 799.039 115.566 799.359 115.417L799.359 116.953C798.901 117.134 798.341 117.225 797.679 117.226ZM805.292 117.223C804.396 117.223 803.607 117.063 802.924 116.744C802.252 116.413 801.729 115.944 801.356 115.336C800.982 114.718 800.795 113.987 800.795 113.144C800.794 112.323 800.975 111.608 801.338 111C801.711 110.381 802.239 109.906 802.921 109.576C803.604 109.234 804.393 109.063 805.289 109.063C806.185 109.062 806.969 109.233 807.641 109.574C808.324 109.904 808.852 110.379 809.226 110.997C809.599 111.605 809.786 112.319 809.787 113.141C809.787 113.983 809.601 114.714 809.228 115.333C808.854 115.941 808.327 116.411 807.644 116.742C806.972 117.062 806.188 117.222 805.292 117.223ZM805.292 115.639C806.028 115.638 806.614 115.409 807.051 114.95C807.489 114.48 807.707 113.878 807.707 113.142C807.706 112.363 807.487 111.755 807.05 111.318C806.623 110.87 806.036 110.646 805.29 110.647C804.543 110.647 803.951 110.871 803.514 111.319C803.087 111.757 802.874 112.365 802.875 113.144C802.875 113.88 803.094 114.482 803.531 114.951C803.969 115.41 804.556 115.639 805.292 115.639ZM822.013 120.656C821.501 120.656 820.989 120.608 820.477 120.513C819.965 120.417 819.538 120.289 819.197 120.129L819.196 118.529C820.028 118.891 820.967 119.072 822.012 119.072C822.951 119.072 823.623 118.874 824.028 118.479C824.444 118.084 824.652 117.498 824.651 116.719L824.651 116.223C824.289 116.554 823.857 116.805 823.355 116.975C822.854 117.136 822.316 117.216 821.74 117.216C820.961 117.216 820.257 117.046 819.627 116.705C818.998 116.353 818.507 115.868 818.155 115.249C817.802 114.631 817.626 113.922 817.626 113.122C817.626 112.311 817.796 111.602 818.137 110.993C818.489 110.375 818.969 109.9 819.576 109.569C820.195 109.227 820.894 109.056 821.672 109.056C822.323 109.056 822.883 109.146 823.352 109.327C823.822 109.498 824.275 109.786 824.713 110.191L824.712 109.295L826.664 109.294L826.667 116.51C826.668 117.833 826.284 118.852 825.516 119.567C824.759 120.292 823.592 120.655 822.013 120.656ZM822.171 115.632C822.747 115.632 823.259 115.477 823.707 115.167C824.165 114.847 824.48 114.426 824.65 113.903L824.65 112.351C824.468 111.828 824.153 111.412 823.705 111.103C823.257 110.794 822.745 110.64 822.169 110.64C821.444 110.64 820.846 110.87 820.377 111.329C819.908 111.787 819.674 112.385 819.674 113.121C819.674 113.857 819.909 114.459 820.379 114.929C820.848 115.398 821.446 115.632 822.171 115.632ZM832.758 117.212C831.862 117.212 831.073 117.052 830.39 116.733C829.718 116.402 829.195 115.933 828.821 115.325C828.448 114.707 828.261 113.976 828.26 113.133C828.26 112.312 828.441 111.597 828.803 110.989C829.177 110.37 829.704 109.896 830.387 109.565C831.069 109.223 831.859 109.052 832.755 109.052C833.651 109.051 834.435 109.222 835.107 109.563C835.79 109.893 836.318 110.368 836.691 110.986C837.065 111.594 837.252 112.309 837.252 113.13C837.253 113.973 837.066 114.703 836.693 115.322C836.32 115.93 835.792 116.4 835.11 116.731C834.438 117.051 833.654 117.211 832.758 117.212ZM832.757 115.628C833.493 115.627 834.08 115.398 834.517 114.939C834.954 114.469 835.173 113.867 835.172 113.131C835.172 112.352 834.953 111.744 834.516 111.307C834.089 110.859 833.502 110.635 832.755 110.636C832.009 110.636 831.417 110.86 830.98 111.308C830.553 111.746 830.34 112.354 830.34 113.133C830.341 113.869 830.559 114.471 830.997 114.94C831.435 115.399 832.021 115.628 832.757 115.628ZM839.099 105.785L841.035 105.784L841.038 113.624L839.102 113.625L839.099 105.785ZM840.064 117.209C839.744 117.209 839.471 117.102 839.247 116.889C839.034 116.665 838.927 116.399 838.927 116.089C838.927 115.769 839.034 115.503 839.247 115.289C839.471 115.076 839.743 114.969 840.063 114.969C840.383 114.969 840.649 115.075 840.863 115.288C841.087 115.502 841.199 115.768 841.199 116.088C841.199 116.398 841.087 116.664 840.863 116.888C840.639 117.102 840.373 117.209 840.064 117.209Z" fill="white"/>
<path d="M74.9202 117.24C73.3416 117.24 72.1469 116.829 71.3362 116.008C70.5362 115.176 70.1362 114.056 70.1362 112.648V105.816H72.1682V112.68C72.1682 113.565 72.4136 114.243 72.9042 114.712C73.4056 115.171 74.0776 115.4 74.9202 115.4C75.7522 115.4 76.4136 115.171 76.9042 114.712C77.4056 114.243 77.6562 113.565 77.6562 112.68V105.816H79.6882V112.648C79.6882 114.056 79.2882 115.176 78.4882 116.008C77.6882 116.829 76.4989 117.24 74.9202 117.24ZM81.9287 109.32H83.8807V110.248C84.2967 109.853 84.7501 109.56 85.2407 109.368C85.7314 109.176 86.2914 109.08 86.9207 109.08C87.6994 109.08 88.3927 109.251 89.0007 109.592C89.6194 109.923 90.0994 110.397 90.4407 111.016C90.7927 111.624 90.9687 112.333 90.9687 113.144C90.9687 113.944 90.7927 114.653 90.4407 115.272C90.0994 115.891 89.6194 116.376 89.0007 116.728C88.3927 117.069 87.6994 117.24 86.9207 117.24C86.3341 117.24 85.7794 117.16 85.2567 117C84.7447 116.829 84.3074 116.579 83.9447 116.248V120.504H81.9287V109.32ZM86.4247 115.656C87.1501 115.656 87.7474 115.421 88.2167 114.952C88.6861 114.483 88.9207 113.88 88.9207 113.144C88.9207 112.408 88.6861 111.811 88.2167 111.352C87.7474 110.893 87.1501 110.664 86.4247 110.664C85.8487 110.664 85.3367 110.819 84.8887 111.128C84.4407 111.437 84.1261 111.853 83.9447 112.376V113.928C84.1154 114.451 84.4247 114.872 84.8727 115.192C85.3314 115.501 85.8487 115.656 86.4247 115.656ZM92.9694 105.176H94.9854V117H92.9694V105.176ZM101.483 117.24C100.587 117.24 99.7975 117.08 99.1149 116.76C98.4429 116.429 97.9202 115.96 97.5469 115.352C97.1735 114.733 96.9869 114.003 96.9869 113.16C96.9869 112.339 97.1682 111.624 97.5309 111.016C97.9042 110.397 98.4322 109.923 99.1149 109.592C99.7975 109.251 100.587 109.08 101.483 109.08C102.379 109.08 103.163 109.251 103.835 109.592C104.518 109.923 105.046 110.397 105.419 111.016C105.792 111.624 105.979 112.339 105.979 113.16C105.979 114.003 105.792 114.733 105.419 115.352C105.046 115.96 104.518 116.429 103.835 116.76C103.163 117.08 102.379 117.24 101.483 117.24ZM101.483 115.656C102.219 115.656 102.806 115.427 103.243 114.968C103.68 114.499 103.899 113.896 103.899 113.16C103.899 112.381 103.68 111.773 103.243 111.336C102.816 110.888 102.23 110.664 101.483 110.664C100.736 110.664 100.144 110.888 99.7069 111.336C99.2802 111.773 99.0669 112.381 99.0669 113.16C99.0669 113.896 99.2855 114.499 99.7229 114.968C100.16 115.427 100.747 115.656 101.483 115.656ZM110.382 117.24C109.465 117.24 108.713 117 108.126 116.52C107.54 116.029 107.246 115.373 107.246 114.552C107.246 113.699 107.524 113.032 108.078 112.552C108.633 112.072 109.412 111.832 110.414 111.832C111.385 111.832 112.222 112.029 112.926 112.424V112.216C112.926 111.672 112.756 111.277 112.414 111.032C112.084 110.787 111.545 110.664 110.798 110.664C110.329 110.664 109.865 110.712 109.406 110.808C108.948 110.893 108.542 111.016 108.19 111.176V109.592C108.51 109.443 108.937 109.32 109.47 109.224C110.014 109.128 110.537 109.08 111.038 109.08C112.372 109.08 113.358 109.368 113.998 109.944C114.638 110.509 114.958 111.299 114.958 112.312V117H113.054V116.248C112.724 116.568 112.345 116.813 111.918 116.984C111.502 117.155 110.99 117.24 110.382 117.24ZM110.878 115.768C111.326 115.768 111.732 115.683 112.094 115.512C112.457 115.331 112.734 115.085 112.926 114.776V113.928C112.34 113.512 111.668 113.304 110.91 113.304C109.833 113.304 109.294 113.72 109.294 114.552C109.294 114.957 109.428 115.261 109.694 115.464C109.972 115.667 110.366 115.768 110.878 115.768ZM120.929 117.24C120.15 117.24 119.451 117.075 118.833 116.744C118.225 116.403 117.745 115.928 117.393 115.32C117.051 114.701 116.881 113.987 116.881 113.176C116.881 112.376 117.051 111.667 117.393 111.048C117.745 110.429 118.225 109.949 118.833 109.608C119.451 109.256 120.15 109.08 120.929 109.08C122.187 109.08 123.179 109.411 123.905 110.072V105.176H125.921V117H123.969V116.104C123.531 116.509 123.078 116.803 122.609 116.984C122.139 117.155 121.579 117.24 120.929 117.24ZM121.425 115.656C122.001 115.656 122.513 115.501 122.961 115.192C123.409 114.883 123.723 114.467 123.905 113.944V112.392C123.734 111.869 123.419 111.453 122.961 111.144C122.513 110.824 122.001 110.664 121.425 110.664C120.699 110.664 120.102 110.899 119.633 111.368C119.163 111.837 118.929 112.44 118.929 113.176C118.929 113.912 119.163 114.509 119.633 114.968C120.102 115.427 120.699 115.656 121.425 115.656ZM134.407 105.816H138.887C140.114 105.816 141.095 106.141 141.831 106.792C142.578 107.443 142.951 108.333 142.951 109.464C142.951 110.637 142.583 111.533 141.847 112.152C141.111 112.76 140.119 113.064 138.871 113.064H136.439V117H134.407V105.816ZM138.631 111.384C140.156 111.384 140.919 110.744 140.919 109.464C140.919 108.152 140.156 107.496 138.631 107.496H136.439V111.384H138.631ZM144.635 109.32H146.587V110.552C146.896 110.136 147.334 109.827 147.899 109.624C148.475 109.421 149.131 109.32 149.867 109.32V110.856C149.088 110.856 148.411 110.979 147.835 111.224C147.27 111.459 146.875 111.832 146.651 112.344V117H144.635V109.32ZM155.492 117.24C154.596 117.24 153.807 117.08 153.124 116.76C152.452 116.429 151.93 115.96 151.556 115.352C151.183 114.733 150.996 114.003 150.996 113.16C150.996 112.339 151.178 111.624 151.54 111.016C151.914 110.397 152.442 109.923 153.124 109.592C153.807 109.251 154.596 109.08 155.492 109.08C156.388 109.08 157.172 109.251 157.844 109.592C158.527 109.923 159.055 110.397 159.428 111.016C159.802 111.624 159.988 112.339 159.988 113.16C159.988 114.003 159.802 114.733 159.428 115.352C159.055 115.96 158.527 116.429 157.844 116.76C157.172 117.08 156.388 117.24 155.492 117.24ZM155.492 115.656C156.228 115.656 156.815 115.427 157.252 114.968C157.69 114.499 157.908 113.896 157.908 113.16C157.908 112.381 157.69 111.773 157.252 111.336C156.826 110.888 156.239 110.664 155.492 110.664C154.746 110.664 154.154 110.888 153.716 111.336C153.29 111.773 153.076 112.381 153.076 113.16C153.076 113.896 153.295 114.499 153.732 114.968C154.17 115.427 154.756 115.656 155.492 115.656ZM165.752 117.24C164.856 117.24 164.066 117.08 163.384 116.76C162.712 116.429 162.189 115.96 161.816 115.352C161.442 114.733 161.256 114.003 161.256 113.16C161.256 112.339 161.437 111.624 161.8 111.016C162.173 110.397 162.701 109.923 163.384 109.592C164.066 109.251 164.856 109.08 165.752 109.08C166.648 109.08 167.432 109.251 168.104 109.592C168.786 109.923 169.314 110.397 169.688 111.016C170.061 111.624 170.248 112.339 170.248 113.16C170.248 114.003 170.061 114.733 169.688 115.352C169.314 115.96 168.786 116.429 168.104 116.76C167.432 117.08 166.648 117.24 165.752 117.24ZM165.752 115.656C166.488 115.656 167.074 115.427 167.512 114.968C167.949 114.499 168.168 113.896 168.168 113.16C168.168 112.381 167.949 111.773 167.512 111.336C167.085 110.888 166.498 110.664 165.752 110.664C165.005 110.664 164.413 110.888 163.976 111.336C163.549 111.773 163.336 112.381 163.336 113.16C163.336 113.896 163.554 114.499 163.992 114.968C164.429 115.427 165.016 115.656 165.752 115.656ZM172.175 110.856H171.039V109.32H172.175V107.992C172.175 107.053 172.452 106.339 173.007 105.848C173.561 105.347 174.292 105.096 175.199 105.096C175.711 105.096 176.159 105.171 176.543 105.32V106.952C176.255 106.824 175.94 106.76 175.599 106.76C175.119 106.76 174.761 106.867 174.527 107.08C174.303 107.293 174.191 107.645 174.191 108.136V109.32H176.063V110.856H174.191V117H172.175V110.856ZM188.248 117.24C187.352 117.24 186.563 117.08 185.88 116.76C185.208 116.429 184.686 115.96 184.312 115.352C183.939 114.733 183.752 114.003 183.752 113.16C183.752 112.339 183.934 111.624 184.296 111.016C184.67 110.397 185.198 109.923 185.88 109.592C186.563 109.251 187.352 109.08 188.248 109.08C189.144 109.08 189.928 109.251 190.6 109.592C191.283 109.923 191.811 110.397 192.184 111.016C192.558 111.624 192.744 112.339 192.744 113.16C192.744 114.003 192.558 114.733 192.184 115.352C191.811 115.96 191.283 116.429 190.6 116.76C189.928 117.08 189.144 117.24 188.248 117.24ZM188.248 115.656C188.984 115.656 189.571 115.427 190.008 114.968C190.446 114.499 190.664 113.896 190.664 113.16C190.664 112.381 190.446 111.773 190.008 111.336C189.582 110.888 188.995 110.664 188.248 110.664C187.502 110.664 186.91 110.888 186.472 111.336C186.046 111.773 185.832 112.381 185.832 113.16C185.832 113.896 186.051 114.499 186.488 114.968C186.926 115.427 187.512 115.656 188.248 115.656ZM194.672 110.856H193.536V109.32H194.672V107.992C194.672 107.053 194.949 106.339 195.504 105.848C196.058 105.347 196.789 105.096 197.696 105.096C198.208 105.096 198.656 105.171 199.04 105.32V106.952C198.752 106.824 198.437 106.76 198.096 106.76C197.616 106.76 197.258 106.867 197.024 107.08C196.8 107.293 196.688 107.645 196.688 108.136V109.32H198.56V110.856H196.688V117H194.672V110.856ZM206.569 105.816H211.049C212.276 105.816 213.257 106.141 213.993 106.792C214.74 107.443 215.113 108.333 215.113 109.464C215.113 110.637 214.745 111.533 214.009 112.152C213.273 112.76 212.281 113.064 211.033 113.064H208.601V117H206.569V105.816ZM210.793 111.384C212.319 111.384 213.081 110.744 213.081 109.464C213.081 108.152 212.319 107.496 210.793 107.496H208.601V111.384H210.793ZM218.738 117.24C217.821 117.24 217.069 117 216.482 116.52C215.896 116.029 215.602 115.373 215.602 114.552C215.602 113.699 215.88 113.032 216.434 112.552C216.989 112.072 217.768 111.832 218.77 111.832C219.741 111.832 220.578 112.029 221.282 112.424V112.216C221.282 111.672 221.112 111.277 220.77 111.032C220.44 110.787 219.901 110.664 219.154 110.664C218.685 110.664 218.221 110.712 217.762 110.808C217.304 110.893 216.898 111.016 216.546 111.176V109.592C216.866 109.443 217.293 109.32 217.826 109.224C218.37 109.128 218.893 109.08 219.394 109.08C220.728 109.08 221.714 109.368 222.354 109.944C222.994 110.509 223.314 111.299 223.314 112.312V117H221.41V116.248C221.08 116.568 220.701 116.813 220.274 116.984C219.858 117.155 219.346 117.24 218.738 117.24ZM219.234 115.768C219.682 115.768 220.088 115.683 220.45 115.512C220.813 115.331 221.09 115.085 221.282 114.776V113.928C220.696 113.512 220.024 113.304 219.266 113.304C218.189 113.304 217.65 113.72 217.65 114.552C217.65 114.957 217.784 115.261 218.05 115.464C218.328 115.667 218.722 115.768 219.234 115.768ZM226.678 120.168C226.401 120.168 226.107 120.147 225.798 120.104C225.499 120.072 225.265 120.024 225.094 119.96V118.424C225.361 118.531 225.691 118.584 226.086 118.584C226.491 118.584 226.795 118.493 226.998 118.312C227.201 118.131 227.377 117.843 227.526 117.448L227.83 116.648L224.518 109.32H226.55L228.918 114.92L231.142 109.32H233.158L229.798 117.688C229.457 118.531 229.041 119.155 228.55 119.56C228.07 119.965 227.446 120.168 226.678 120.168ZM234.832 109.32H236.72V110.328C237.061 109.923 237.461 109.613 237.92 109.4C238.379 109.187 238.843 109.08 239.312 109.08C239.909 109.08 240.389 109.181 240.752 109.384C241.115 109.576 241.387 109.869 241.568 110.264C241.909 109.88 242.32 109.587 242.8 109.384C243.291 109.181 243.776 109.08 244.256 109.08C245.216 109.08 245.904 109.32 246.32 109.8C246.736 110.28 246.944 110.984 246.944 111.912V117H245.008V112.184C245.008 111.64 244.896 111.251 244.672 111.016C244.459 110.781 244.112 110.664 243.632 110.664C243.291 110.664 242.976 110.733 242.688 110.872C242.411 111 242.155 111.224 241.92 111.544C241.941 111.885 241.952 112.163 241.952 112.376V117H240V112.152C240 111.597 239.909 111.213 239.728 111C239.547 110.776 239.216 110.664 238.736 110.664C238.011 110.664 237.36 111.075 236.784 111.896V117H234.832V109.32ZM253.505 117.24C252.076 117.24 250.945 116.883 250.113 116.168C249.281 115.453 248.865 114.456 248.865 113.176C248.865 111.917 249.233 110.92 249.969 110.184C250.705 109.448 251.756 109.08 253.121 109.08C254.017 109.08 254.78 109.251 255.409 109.592C256.049 109.933 256.529 110.403 256.849 111C257.169 111.587 257.329 112.259 257.329 113.016V113.944H250.785C250.924 115.085 251.916 115.656 253.761 115.656C254.252 115.656 254.753 115.613 255.265 115.528C255.777 115.443 256.225 115.325 256.609 115.176V116.728C256.246 116.877 255.777 117 255.201 117.096C254.636 117.192 254.07 117.24 253.505 117.24ZM255.425 112.568C255.404 111.96 255.185 111.491 254.769 111.16C254.364 110.829 253.804 110.664 253.089 110.664C252.385 110.664 251.83 110.835 251.425 111.176C251.02 111.517 250.806 111.981 250.785 112.568H255.425ZM259.335 109.32H261.287V110.36C261.65 109.923 262.082 109.603 262.583 109.4C263.084 109.187 263.612 109.08 264.167 109.08C265.202 109.08 265.975 109.363 266.487 109.928C266.999 110.483 267.255 111.224 267.255 112.152V117H265.239V112.344C265.239 111.224 264.716 110.664 263.671 110.664C263.212 110.664 262.78 110.776 262.375 111C261.97 111.213 261.628 111.539 261.351 111.976V117H259.335V109.32ZM272.589 117.24C271.746 117.24 271.106 117.005 270.669 116.536C270.231 116.067 270.013 115.405 270.013 114.552V110.856H268.861V109.32H270.013V107.016H272.029V109.32H273.869V110.856H272.029V114.296C272.029 114.787 272.119 115.139 272.301 115.352C272.482 115.555 272.813 115.656 273.293 115.656C273.623 115.656 273.949 115.581 274.269 115.432V116.968C273.81 117.149 273.25 117.24 272.589 117.24Z" fill="white"/>
<path d="M426.718 105.816H428.878L432.174 114.28L435.486 105.816H437.63L433.166 117H431.198L426.718 105.816ZM442.258 117.24C440.829 117.24 439.698 116.883 438.866 116.168C438.034 115.453 437.618 114.456 437.618 113.176C437.618 111.917 437.986 110.92 438.722 110.184C439.458 109.448 440.509 109.08 441.874 109.08C442.77 109.08 443.533 109.251 444.162 109.592C444.802 109.933 445.282 110.403 445.602 111C445.922 111.587 446.082 112.259 446.082 113.016V113.944H439.538C439.677 115.085 440.669 115.656 442.514 115.656C443.005 115.656 443.506 115.613 444.018 115.528C444.53 115.443 444.978 115.325 445.362 115.176V116.728C444.999 116.877 444.53 117 443.954 117.096C443.389 117.192 442.823 117.24 442.258 117.24ZM444.178 112.568C444.157 111.96 443.938 111.491 443.522 111.16C443.117 110.829 442.557 110.664 441.842 110.664C441.138 110.664 440.583 110.835 440.178 111.176C439.773 111.517 439.559 111.981 439.538 112.568H444.178ZM448.088 109.32H450.04V110.552C450.349 110.136 450.787 109.827 451.352 109.624C451.928 109.421 452.584 109.32 453.32 109.32V110.856C452.541 110.856 451.864 110.979 451.288 111.224C450.723 111.459 450.328 111.832 450.104 112.344V117H448.088V109.32ZM456.14 107.976C455.82 107.976 455.548 107.869 455.324 107.656C455.11 107.443 455.004 107.176 455.004 106.856C455.004 106.536 455.11 106.269 455.324 106.056C455.548 105.832 455.82 105.72 456.14 105.72C456.46 105.72 456.732 105.832 456.956 106.056C457.18 106.269 457.292 106.536 457.292 106.856C457.292 107.176 457.18 107.443 456.956 107.656C456.732 107.869 456.46 107.976 456.14 107.976ZM455.116 109.32H457.164V117H455.116V109.32ZM460.103 110.856H458.967V109.32H460.103V108.056C460.103 107.427 460.242 106.893 460.519 106.456C460.807 106.008 461.191 105.672 461.671 105.448C462.151 105.213 462.69 105.096 463.287 105.096C463.799 105.096 464.247 105.171 464.631 105.32V106.952C464.343 106.824 464.028 106.76 463.687 106.76C463.175 106.76 462.786 106.883 462.519 107.128C462.252 107.373 462.119 107.731 462.119 108.2V109.32H467.495V117H465.479V110.856H462.119V117H460.103V110.856ZM466.471 107.976C466.151 107.976 465.879 107.869 465.655 107.656C465.442 107.443 465.335 107.176 465.335 106.856C465.335 106.547 465.442 106.285 465.655 106.072C465.879 105.848 466.151 105.736 466.471 105.736C466.78 105.736 467.047 105.848 467.271 106.072C467.495 106.285 467.607 106.547 467.607 106.856C467.607 107.176 467.495 107.443 467.271 107.656C467.058 107.869 466.791 107.976 466.471 107.976ZM474.105 117.24C473.209 117.24 472.419 117.08 471.737 116.76C471.065 116.44 470.542 115.976 470.169 115.368C469.795 114.76 469.609 114.029 469.609 113.176C469.609 112.323 469.795 111.592 470.169 110.984C470.553 110.365 471.081 109.896 471.753 109.576C472.435 109.245 473.23 109.08 474.137 109.08C475.331 109.08 476.286 109.315 477.001 109.784V111.4C476.307 110.909 475.422 110.664 474.345 110.664C473.523 110.664 472.867 110.872 472.377 111.288C471.897 111.693 471.657 112.323 471.657 113.176C471.657 114.019 471.897 114.643 472.377 115.048C472.867 115.453 473.513 115.656 474.313 115.656C475.39 115.656 476.318 115.4 477.097 114.888V116.488C476.713 116.744 476.275 116.931 475.785 117.048C475.305 117.176 474.745 117.24 474.105 117.24ZM481.832 117.24C480.915 117.24 480.163 117 479.576 116.52C478.99 116.029 478.696 115.373 478.696 114.552C478.696 113.699 478.974 113.032 479.528 112.552C480.083 112.072 480.862 111.832 481.864 111.832C482.835 111.832 483.672 112.029 484.376 112.424V112.216C484.376 111.672 484.206 111.277 483.864 111.032C483.534 110.787 482.995 110.664 482.248 110.664C481.779 110.664 481.315 110.712 480.856 110.808C480.398 110.893 479.992 111.016 479.64 111.176V109.592C479.96 109.443 480.387 109.32 480.92 109.224C481.464 109.128 481.987 109.08 482.488 109.08C483.822 109.08 484.808 109.368 485.448 109.944C486.088 110.509 486.408 111.299 486.408 112.312V117H484.504V116.248C484.174 116.568 483.795 116.813 483.368 116.984C482.952 117.155 482.44 117.24 481.832 117.24ZM482.328 115.768C482.776 115.768 483.182 115.683 483.544 115.512C483.907 115.331 484.184 115.085 484.376 114.776V113.928C483.79 113.512 483.118 113.304 482.36 113.304C481.283 113.304 480.744 113.72 480.744 114.552C480.744 114.957 480.878 115.261 481.144 115.464C481.422 115.667 481.816 115.768 482.328 115.768ZM491.332 117.24C490.49 117.24 489.85 117.005 489.412 116.536C488.975 116.067 488.756 115.405 488.756 114.552V110.856H487.604V109.32H488.756V107.016H490.772V109.32H492.612V110.856H490.772V114.296C490.772 114.787 490.863 115.139 491.044 115.352C491.226 115.555 491.556 115.656 492.036 115.656C492.367 115.656 492.692 115.581 493.012 115.432V116.968C492.554 117.149 491.994 117.24 491.332 117.24ZM495.983 107.976C495.663 107.976 495.391 107.869 495.167 107.656C494.954 107.443 494.847 107.176 494.847 106.856C494.847 106.536 494.954 106.269 495.167 106.056C495.391 105.832 495.663 105.72 495.983 105.72C496.303 105.72 496.575 105.832 496.799 106.056C497.023 106.269 497.135 106.536 497.135 106.856C497.135 107.176 497.023 107.443 496.799 107.656C496.575 107.869 496.303 107.976 495.983 107.976ZM494.959 109.32H497.007V117H494.959V109.32ZM503.627 117.24C502.731 117.24 501.941 117.08 501.259 116.76C500.587 116.429 500.064 115.96 499.691 115.352C499.317 114.733 499.131 114.003 499.131 113.16C499.131 112.339 499.312 111.624 499.675 111.016C500.048 110.397 500.576 109.923 501.259 109.592C501.941 109.251 502.731 109.08 503.627 109.08C504.523 109.08 505.307 109.251 505.979 109.592C506.661 109.923 507.189 110.397 507.563 111.016C507.936 111.624 508.123 112.339 508.123 113.16C508.123 114.003 507.936 114.733 507.563 115.352C507.189 115.96 506.661 116.429 505.979 116.76C505.307 117.08 504.523 117.24 503.627 117.24ZM503.627 115.656C504.363 115.656 504.949 115.427 505.387 114.968C505.824 114.499 506.043 113.896 506.043 113.16C506.043 112.381 505.824 111.773 505.387 111.336C504.96 110.888 504.373 110.664 503.627 110.664C502.88 110.664 502.288 110.888 501.851 111.336C501.424 111.773 501.211 112.381 501.211 113.16C501.211 113.896 501.429 114.499 501.867 114.968C502.304 115.427 502.891 115.656 503.627 115.656ZM510.116 109.32H512.068V110.36C512.431 109.923 512.863 109.603 513.364 109.4C513.866 109.187 514.394 109.08 514.948 109.08C515.983 109.08 516.756 109.363 517.268 109.928C517.78 110.483 518.036 111.224 518.036 112.152V117H516.02V112.344C516.02 111.224 515.498 110.664 514.452 110.664C513.994 110.664 513.562 110.776 513.156 111C512.751 111.213 512.41 111.539 512.132 111.976V117H510.116V109.32Z" fill="white"/>
<defs>
<radialGradient id="paint0_radial_512_189" cx="0" cy="0" r="1" gradientUnits="userSpaceOnUse" gradientTransform="translate(914 70.0001) rotate(180) scale(914 6006.29)">
<stop stop-color="#D14FFF"/>
<stop offset="1" stop-color="#923CFF"/>
</radialGradient>
</defs>
</svg>
