<svg width="1037" height="158" viewBox="0 0 1037 158" fill="none" xmlns="http://www.w3.org/2000/svg">
<path d="M77 51C77 28.9086 94.9086 11 117 11H997C1019.09 11 1037 28.9086 1037 51V107C1037 129.091 1019.09 147 997 147H117C94.9086 147 77 129.091 77 107V51Z" fill="white"/>
<path d="M47 81L77 63.6795L77 98.3205L47 81Z" fill="white"/>
<path d="M230.936 59.6H221.48V52.448H248.936V59.6H239.432V86H230.936V59.6ZM260.771 86.72C256.259 86.72 252.707 85.664 250.115 83.552C247.555 81.44 246.275 78.448 246.275 74.576C246.275 70.768 247.411 67.76 249.683 65.552C251.987 63.344 255.299 62.24 259.619 62.24C262.371 62.24 264.723 62.768 266.675 63.824C268.659 64.848 270.147 66.272 271.139 68.096C272.163 69.888 272.675 71.92 272.675 74.192V77.312H254.291C254.611 78.592 255.411 79.52 256.691 80.096C257.971 80.672 259.715 80.96 261.923 80.96C263.427 80.96 264.963 80.832 266.531 80.576C268.131 80.32 269.507 79.968 270.659 79.52V85.088C269.475 85.568 267.987 85.952 266.195 86.24C264.435 86.56 262.627 86.72 260.771 86.72ZM264.707 72.032C264.579 70.784 264.067 69.808 263.171 69.104C262.275 68.4 261.043 68.048 259.475 68.048C257.939 68.048 256.723 68.416 255.827 69.152C254.931 69.856 254.419 70.816 254.291 72.032H264.707ZM289.984 86.72C285.76 86.72 282.416 85.664 279.952 83.552C277.488 81.44 276.256 78.432 276.256 74.528C276.256 70.624 277.488 67.6 279.952 65.456C282.448 63.312 285.808 62.24 290.032 62.24C291.92 62.24 293.68 62.432 295.312 62.816C296.976 63.168 298.352 63.68 299.44 64.352V70.928C297.488 69.52 294.912 68.816 291.712 68.816C289.664 68.816 288.016 69.296 286.768 70.256C285.552 71.184 284.944 72.608 284.944 74.528C284.944 76.48 285.552 77.92 286.768 78.848C287.984 79.744 289.616 80.192 291.664 80.192C294.768 80.192 297.456 79.456 299.728 77.984V84.512C297.296 85.984 294.048 86.72 289.984 86.72ZM304.291 50.528H312.739V65.312C313.763 64.288 314.931 63.52 316.243 63.008C317.587 62.496 318.995 62.24 320.467 62.24C323.699 62.24 326.083 63.088 327.619 64.784C329.187 66.448 329.971 68.72 329.971 71.6V86H321.523V72.704C321.523 70.112 320.339 68.816 317.971 68.816C316.883 68.816 315.891 69.072 314.995 69.584C314.099 70.064 313.347 70.816 312.739 71.84V86H304.291V50.528ZM335.257 62.96H343.417V65.504C344.409 64.416 345.609 63.6 347.017 63.056C348.425 62.512 349.897 62.24 351.433 62.24C354.665 62.24 357.049 63.088 358.585 64.784C360.153 66.448 360.937 68.72 360.937 71.6V86H352.489V72.704C352.489 70.112 351.305 68.816 348.937 68.816C347.849 68.816 346.857 69.072 345.961 69.584C345.065 70.064 344.313 70.816 343.705 71.84V86H335.257V62.96ZM370.735 59.888C369.455 59.888 368.383 59.472 367.519 58.64C366.655 57.808 366.223 56.752 366.223 55.472C366.223 54.224 366.655 53.184 367.519 52.352C368.383 51.488 369.455 51.056 370.735 51.056C371.983 51.056 373.039 51.488 373.903 52.352C374.799 53.184 375.247 54.224 375.247 55.472C375.247 56.72 374.799 57.776 373.903 58.64C373.039 59.472 371.983 59.888 370.735 59.888ZM366.511 62.96H374.959V86H366.511V62.96ZM393.55 86.72C389.326 86.72 385.982 85.664 383.518 83.552C381.054 81.44 379.822 78.432 379.822 74.528C379.822 70.624 381.054 67.6 383.518 65.456C386.014 63.312 389.374 62.24 393.598 62.24C395.486 62.24 397.246 62.432 398.878 62.816C400.542 63.168 401.918 63.68 403.006 64.352V70.928C401.054 69.52 398.478 68.816 395.278 68.816C393.23 68.816 391.582 69.296 390.334 70.256C389.118 71.184 388.51 72.608 388.51 74.528C388.51 76.48 389.118 77.92 390.334 78.848C391.55 79.744 393.182 80.192 395.23 80.192C398.334 80.192 401.022 79.456 403.294 77.984V84.512C400.862 85.984 397.614 86.72 393.55 86.72ZM416.31 86.72C413.43 86.72 411.094 86.032 409.302 84.656C407.542 83.248 406.662 81.296 406.662 78.8C406.662 76.208 407.51 74.224 409.206 72.848C410.934 71.44 413.398 70.736 416.598 70.736C417.846 70.736 419.094 70.88 420.342 71.168C421.59 71.424 422.662 71.776 423.558 72.224V71.744C423.558 69.28 421.542 68.048 417.51 68.048C414.694 68.048 412.118 68.592 409.782 69.68V63.872C410.806 63.392 412.15 63.008 413.814 62.72C415.478 62.4 417.206 62.24 418.998 62.24C423.286 62.24 426.518 63.104 428.694 64.832C430.902 66.528 432.006 68.912 432.006 71.984V86H424.086V84.032C423.222 84.864 422.134 85.52 420.822 86C419.51 86.48 418.006 86.72 416.31 86.72ZM418.806 81.536C419.798 81.536 420.726 81.344 421.59 80.96C422.454 80.544 423.11 80.016 423.558 79.376V77.36C422.182 76.432 420.614 75.968 418.854 75.968C417.734 75.968 416.87 76.208 416.262 76.688C415.654 77.168 415.35 77.872 415.35 78.8C415.35 79.664 415.638 80.336 416.214 80.816C416.822 81.296 417.686 81.536 418.806 81.536ZM437.276 50.528H445.724V86H437.276V50.528ZM468.738 52.448H476.898L486.594 73.232L496.338 52.448H504.45V86H496.53V69.152L488.514 86H484.674L476.706 69.152V86H468.738V52.448ZM523.505 86.72C518.993 86.72 515.441 85.664 512.849 83.552C510.289 81.44 509.009 78.448 509.009 74.576C509.009 70.768 510.145 67.76 512.417 65.552C514.721 63.344 518.033 62.24 522.353 62.24C525.105 62.24 527.457 62.768 529.409 63.824C531.393 64.848 532.881 66.272 533.873 68.096C534.897 69.888 535.409 71.92 535.409 74.192V77.312H517.025C517.345 78.592 518.145 79.52 519.425 80.096C520.705 80.672 522.449 80.96 524.657 80.96C526.161 80.96 527.697 80.832 529.265 80.576C530.865 80.32 532.241 79.968 533.393 79.52V85.088C532.209 85.568 530.721 85.952 528.929 86.24C527.169 86.56 525.361 86.72 523.505 86.72ZM527.441 72.032C527.313 70.784 526.801 69.808 525.905 69.104C525.009 68.4 523.777 68.048 522.209 68.048C520.673 68.048 519.457 68.416 518.561 69.152C517.665 69.856 517.153 70.816 517.025 72.032H527.441ZM553.487 86.72C548.975 86.72 545.423 85.664 542.831 83.552C540.271 81.44 538.991 78.448 538.991 74.576C538.991 70.768 540.127 67.76 542.399 65.552C544.703 63.344 548.015 62.24 552.335 62.24C555.087 62.24 557.439 62.768 559.391 63.824C561.375 64.848 562.863 66.272 563.855 68.096C564.879 69.888 565.391 71.92 565.391 74.192V77.312H547.007C547.327 78.592 548.127 79.52 549.407 80.096C550.687 80.672 552.431 80.96 554.639 80.96C556.143 80.96 557.679 80.832 559.247 80.576C560.847 80.32 562.223 79.968 563.375 79.52V85.088C562.191 85.568 560.703 85.952 558.911 86.24C557.151 86.56 555.343 86.72 553.487 86.72ZM557.423 72.032C557.295 70.784 556.783 69.808 555.887 69.104C554.991 68.4 553.759 68.048 552.191 68.048C550.655 68.048 549.439 68.416 548.543 69.152C547.647 69.856 547.135 70.816 547.007 72.032H557.423ZM579.916 86.72C577.068 86.72 574.908 85.936 573.436 84.368C571.996 82.768 571.276 80.592 571.276 77.84V68.816H568.012V62.96H571.276V56.048H579.724V62.96H585.004V68.816H579.724V76.688C579.724 77.936 579.948 78.832 580.396 79.376C580.876 79.92 581.708 80.192 582.892 80.192C583.948 80.192 585.004 79.904 586.06 79.328V85.616C585.228 86 584.332 86.272 583.372 86.432C582.444 86.624 581.292 86.72 579.916 86.72ZM594.159 59.888C592.879 59.888 591.807 59.472 590.943 58.64C590.079 57.808 589.647 56.752 589.647 55.472C589.647 54.224 590.079 53.184 590.943 52.352C591.807 51.488 592.879 51.056 594.159 51.056C595.407 51.056 596.463 51.488 597.327 52.352C598.223 53.184 598.671 54.224 598.671 55.472C598.671 56.72 598.223 57.776 597.327 58.64C596.463 59.472 595.407 59.888 594.159 59.888ZM589.935 62.96H598.383V86H589.935V62.96ZM604.207 62.96H612.367V65.504C613.359 64.416 614.559 63.6 615.967 63.056C617.375 62.512 618.847 62.24 620.383 62.24C623.615 62.24 625.999 63.088 627.535 64.784C629.103 66.448 629.887 68.72 629.887 71.6V86H621.439V72.704C621.439 70.112 620.255 68.816 617.887 68.816C616.799 68.816 615.807 69.072 614.911 69.584C614.015 70.064 613.263 70.816 612.655 71.84V86H604.207V62.96ZM647.701 97.04C646.165 97.04 644.613 96.896 643.045 96.608C641.509 96.32 640.181 95.936 639.061 95.456V89.6C641.589 90.688 644.469 91.232 647.701 91.232C650.037 91.232 651.717 90.752 652.741 89.792C653.797 88.832 654.325 87.424 654.325 85.568V84.176C653.397 84.976 652.245 85.6 650.869 86.048C649.525 86.496 648.085 86.72 646.549 86.72C644.117 86.72 641.973 86.208 640.117 85.184C638.261 84.16 636.805 82.72 635.749 80.864C634.725 79.008 634.213 76.88 634.213 74.48C634.213 72.048 634.725 69.904 635.749 68.048C636.773 66.192 638.213 64.768 640.069 63.776C641.925 62.752 644.053 62.24 646.453 62.24C649.749 62.24 652.469 63.248 654.613 65.264V62.96H662.773V84.416C662.773 88.416 661.541 91.52 659.077 93.728C656.645 95.936 652.853 97.04 647.701 97.04ZM648.661 80.192C649.973 80.192 651.141 79.856 652.165 79.184C653.189 78.512 653.909 77.616 654.325 76.496V72.464C653.877 71.344 653.141 70.464 652.117 69.824C651.093 69.152 649.941 68.816 648.661 68.816C646.933 68.816 645.541 69.328 644.485 70.352C643.429 71.344 642.901 72.704 642.901 74.432C642.901 76.192 643.429 77.6 644.485 78.656C645.541 79.68 646.933 80.192 648.661 80.192Z" fill="#525252"/>
<path d="M233.72 127.36C232.52 127.36 231.456 127.112 230.528 126.616C229.6 126.104 228.88 125.392 228.368 124.48C227.856 123.552 227.6 122.48 227.6 121.264C227.6 120.064 227.856 119 228.368 118.072C228.88 117.128 229.592 116.4 230.504 115.888C231.432 115.376 232.504 115.12 233.72 115.12C234.52 115.12 235.256 115.232 235.928 115.456C236.6 115.68 237.176 116 237.656 116.416V109.264H241.88V127H237.8V125.848C236.728 126.856 235.368 127.36 233.72 127.36ZM234.824 124.096C235.464 124.096 236.04 123.936 236.552 123.616C237.064 123.28 237.432 122.832 237.656 122.272V120.232C237.432 119.672 237.064 119.232 236.552 118.912C236.04 118.576 235.464 118.408 234.824 118.408C233.96 118.408 233.264 118.664 232.736 119.176C232.208 119.688 231.944 120.384 231.944 121.264C231.944 122.144 232.208 122.84 232.736 123.352C233.264 123.848 233.96 124.096 234.824 124.096ZM249.273 127.36C247.689 127.36 246.497 126.92 245.697 126.04C244.913 125.16 244.521 124 244.521 122.56V115.48H248.745V122.08C248.745 123.408 249.345 124.072 250.545 124.072C251.089 124.072 251.585 123.944 252.033 123.688C252.481 123.432 252.849 123.056 253.137 122.56V115.48H257.361V127H253.281V125.752C252.785 126.28 252.185 126.68 251.481 126.952C250.777 127.224 250.041 127.36 249.273 127.36ZM266.892 127.36C264.636 127.36 262.86 126.832 261.564 125.776C260.284 124.72 259.644 123.224 259.644 121.288C259.644 119.384 260.212 117.88 261.348 116.776C262.5 115.672 264.156 115.12 266.316 115.12C267.692 115.12 268.868 115.384 269.844 115.912C270.836 116.424 271.58 117.136 272.076 118.048C272.588 118.944 272.844 119.96 272.844 121.096V122.656H263.652C263.812 123.296 264.212 123.76 264.852 124.048C265.492 124.336 266.364 124.48 267.468 124.48C268.22 124.48 268.988 124.416 269.772 124.288C270.572 124.16 271.26 123.984 271.836 123.76V126.544C271.244 126.784 270.5 126.976 269.604 127.12C268.724 127.28 267.82 127.36 266.892 127.36ZM268.86 120.016C268.796 119.392 268.54 118.904 268.092 118.552C267.644 118.2 267.028 118.024 266.244 118.024C265.476 118.024 264.868 118.208 264.42 118.576C263.972 118.928 263.716 119.408 263.652 120.016H268.86ZM283.391 124.576L286.055 122.152L287.207 121.12C288.151 120.288 288.871 119.624 289.367 119.128C289.879 118.632 290.295 118.128 290.615 117.616C290.951 117.104 291.119 116.6 291.119 116.104C291.119 114.616 290.279 113.872 288.599 113.872C287.783 113.872 286.975 114.016 286.175 114.304C285.391 114.592 284.663 114.992 283.991 115.504V111.448C284.711 110.952 285.551 110.568 286.511 110.296C287.471 110.008 288.495 109.864 289.583 109.864C290.831 109.864 291.911 110.096 292.823 110.56C293.735 111.024 294.431 111.664 294.911 112.48C295.391 113.296 295.631 114.216 295.631 115.24C295.631 116.472 295.343 117.552 294.767 118.48C294.207 119.392 293.295 120.424 292.031 121.576L289.895 123.52H296.159V127H283.391V124.576ZM303.479 127.36C302.423 127.36 301.407 127.272 300.431 127.096C299.471 126.92 298.647 126.656 297.959 126.304V122.944C299.575 123.68 301.207 124.048 302.855 124.048C305.079 124.048 306.191 123.384 306.191 122.056C306.191 121.384 305.919 120.904 305.375 120.616C304.831 120.312 303.983 120.16 302.831 120.16H300.503V116.92H302.735C303.679 116.92 304.407 116.76 304.919 116.44C305.447 116.12 305.711 115.648 305.711 115.024C305.711 114.432 305.479 113.976 305.015 113.656C304.551 113.336 303.895 113.176 303.047 113.176C301.303 113.176 299.719 113.624 298.295 114.52V111.088C299.015 110.704 299.839 110.408 300.767 110.2C301.695 109.976 302.655 109.864 303.647 109.864C305.839 109.864 307.455 110.304 308.495 111.184C309.535 112.048 310.055 113.272 310.055 114.856C310.055 115.576 309.879 116.256 309.527 116.896C309.191 117.536 308.687 118.08 308.015 118.528C309.695 119.264 310.535 120.512 310.535 122.272C310.535 123.888 309.983 125.144 308.879 126.04C307.775 126.92 305.975 127.36 303.479 127.36ZM313.853 127C313.437 127 313.077 126.856 312.773 126.568C312.485 126.28 312.341 125.928 312.341 125.512C312.341 125.08 312.485 124.712 312.773 124.408C313.077 124.104 313.437 123.952 313.853 123.952C314.285 123.952 314.645 124.104 314.933 124.408C315.237 124.712 315.389 125.08 315.389 125.512C315.389 125.928 315.237 126.28 314.933 126.568C314.645 126.856 314.285 127 313.853 127ZM322.367 127.36C321.407 127.36 320.455 127.256 319.511 127.048C318.567 126.84 317.791 126.552 317.183 126.184V122.464C317.903 122.928 318.711 123.296 319.607 123.568C320.519 123.824 321.375 123.952 322.175 123.952C323.295 123.952 324.127 123.736 324.671 123.304C325.215 122.872 325.487 122.28 325.487 121.528C325.487 120.808 325.207 120.248 324.647 119.848C324.103 119.448 323.335 119.248 322.343 119.248C321.783 119.248 321.191 119.304 320.567 119.416C319.959 119.512 319.431 119.656 318.983 119.848L317.351 118.912L318.023 110.224H328.775V113.704H322.127L321.911 116.344C322.647 116.152 323.431 116.056 324.263 116.056C326.007 116.056 327.367 116.52 328.343 117.448C329.335 118.36 329.831 119.68 329.831 121.408C329.831 123.28 329.199 124.744 327.935 125.8C326.671 126.84 324.815 127.36 322.367 127.36ZM336.986 127.36C335.802 127.36 334.786 127.224 333.938 126.952V123.352C334.674 123.736 335.578 123.928 336.65 123.928C337.866 123.928 338.858 123.608 339.626 122.968C340.41 122.328 340.882 121.376 341.042 120.112C340.658 120.512 340.13 120.832 339.458 121.072C338.786 121.296 338.058 121.408 337.274 121.408C336.17 121.408 335.194 121.184 334.346 120.736C333.498 120.288 332.834 119.64 332.354 118.792C331.874 117.944 331.634 116.936 331.634 115.768C331.634 114.632 331.89 113.624 332.402 112.744C332.93 111.848 333.706 111.144 334.73 110.632C335.77 110.12 337.026 109.864 338.498 109.864C340.722 109.864 342.442 110.552 343.658 111.928C344.89 113.288 345.506 115.168 345.506 117.568C345.506 119.648 345.138 121.424 344.402 122.896C343.682 124.368 342.682 125.48 341.402 126.232C340.122 126.984 338.65 127.36 336.986 127.36ZM338.498 118.144C339.202 118.144 339.794 117.904 340.274 117.424C340.754 116.944 340.994 116.36 340.994 115.672C340.994 114.968 340.754 114.376 340.274 113.896C339.794 113.416 339.202 113.176 338.498 113.176C337.81 113.176 337.226 113.424 336.746 113.92C336.266 114.4 336.026 114.984 336.026 115.672C336.026 116.36 336.266 116.944 336.746 117.424C337.226 117.904 337.81 118.144 338.498 118.144Z" fill="url(#paint0_radial_502_271)"/>
<path d="M124.322 73.904L117.506 78.848V70.496L125.762 64.448H132.818V98H124.322V73.904ZM151.811 91.088H136.403V85.808L152.291 64.448H160.691V84.368H165.443V91.088H160.691V98H151.811V91.088ZM153.107 84.368V74.768L146.051 84.368H153.107Z" fill="url(#paint1_radial_502_271)"/>
<path d="M120.699 36.224H124.299L129.459 47.456L134.643 36.224H138.219V53H134.739V43.472L130.299 53H128.619L124.203 43.472V53H120.699V36.224ZM145.634 53.36C144.226 53.36 143.074 53.008 142.178 52.304C141.298 51.584 140.858 50.608 140.858 49.376C140.858 48.096 141.282 47.104 142.13 46.4C142.978 45.68 144.178 45.32 145.73 45.32C146.418 45.32 147.074 45.392 147.698 45.536C148.322 45.68 148.874 45.88 149.354 46.136V45.848C149.354 45.128 149.098 44.6 148.586 44.264C148.074 43.928 147.29 43.76 146.234 43.76C144.826 43.76 143.53 44.024 142.346 44.552V41.912C142.858 41.688 143.522 41.504 144.338 41.36C145.154 41.2 145.97 41.12 146.786 41.12C148.866 41.12 150.418 41.552 151.442 42.416C152.466 43.264 152.978 44.456 152.978 45.992V53H149.57V51.944C148.594 52.888 147.282 53.36 145.634 53.36ZM146.618 50.96C147.21 50.96 147.746 50.848 148.226 50.624C148.706 50.4 149.082 50.088 149.354 49.688V48.536C148.538 47.992 147.642 47.72 146.666 47.72C145.994 47.72 145.474 47.864 145.106 48.152C144.754 48.424 144.578 48.832 144.578 49.376C144.578 49.888 144.754 50.28 145.106 50.552C145.458 50.824 145.962 50.96 146.618 50.96ZM155.977 41.48H159.481V43.136C159.945 42.576 160.593 42.152 161.425 41.864C162.257 41.56 163.201 41.408 164.257 41.408V44.168C163.153 44.168 162.177 44.336 161.329 44.672C160.497 45.008 159.921 45.52 159.601 46.208V53H155.977V41.48Z" fill="#5A5A5A"/>
<path d="M112.2 125.392L115.824 121.912C116.144 121.592 116.592 121.176 117.168 120.664C118.08 119.832 118.776 119.16 119.256 118.648C119.736 118.136 120.128 117.592 120.432 117.016C120.736 116.424 120.888 115.792 120.888 115.12C120.888 114.128 120.6 113.376 120.024 112.864C119.448 112.336 118.608 112.072 117.504 112.072C116.752 112.072 115.976 112.208 115.176 112.48C114.392 112.752 113.656 113.152 112.968 113.68V111.328C114.312 110.352 115.952 109.864 117.888 109.864C119.616 109.864 120.96 110.328 121.92 111.256C122.88 112.168 123.36 113.416 123.36 115C123.36 115.768 123.192 116.504 122.856 117.208C122.536 117.912 122.08 118.608 121.488 119.296C120.896 119.968 120.096 120.792 119.088 121.768L115.824 124.96H123.984V127H112.2V125.392ZM133.729 127.36C132.289 127.36 131.041 127.008 129.985 126.304C128.945 125.6 128.145 124.592 127.585 123.28C127.025 121.968 126.745 120.416 126.745 118.624C126.745 116.832 127.017 115.28 127.561 113.968C128.121 112.64 128.921 111.624 129.961 110.92C131.017 110.216 132.273 109.864 133.729 109.864C135.185 109.864 136.433 110.216 137.473 110.92C138.529 111.624 139.329 112.64 139.873 113.968C140.433 115.28 140.713 116.832 140.713 118.624C140.713 120.416 140.433 121.968 139.873 123.28C139.313 124.592 138.505 125.6 137.449 126.304C136.409 127.008 135.169 127.36 133.729 127.36ZM133.729 125.2C135.153 125.2 136.265 124.616 137.065 123.448C137.881 122.264 138.289 120.664 138.289 118.648C138.289 116.632 137.889 115.032 137.089 113.848C136.289 112.664 135.169 112.072 133.729 112.072C132.289 112.072 131.169 112.664 130.369 113.848C129.569 115.032 129.169 116.632 129.169 118.648C129.169 120.664 129.569 122.264 130.369 123.448C131.185 124.616 132.305 125.2 133.729 125.2ZM143.47 125.392L147.094 121.912C147.414 121.592 147.862 121.176 148.438 120.664C149.35 119.832 150.046 119.16 150.526 118.648C151.006 118.136 151.398 117.592 151.702 117.016C152.006 116.424 152.158 115.792 152.158 115.12C152.158 114.128 151.87 113.376 151.294 112.864C150.718 112.336 149.878 112.072 148.774 112.072C148.022 112.072 147.246 112.208 146.446 112.48C145.662 112.752 144.926 113.152 144.238 113.68V111.328C145.582 110.352 147.222 109.864 149.158 109.864C150.886 109.864 152.23 110.328 153.19 111.256C154.15 112.168 154.63 113.416 154.63 115C154.63 115.768 154.462 116.504 154.126 117.208C153.806 117.912 153.35 118.608 152.758 119.296C152.166 119.968 151.366 120.792 150.358 121.768L147.094 124.96H155.254V127H143.47V125.392ZM158.015 125.392L161.639 121.912C161.959 121.592 162.407 121.176 162.983 120.664C163.895 119.832 164.591 119.16 165.071 118.648C165.551 118.136 165.943 117.592 166.247 117.016C166.551 116.424 166.703 115.792 166.703 115.12C166.703 114.128 166.415 113.376 165.839 112.864C165.263 112.336 164.423 112.072 163.319 112.072C162.567 112.072 161.791 112.208 160.991 112.48C160.207 112.752 159.471 113.152 158.783 113.68V111.328C160.127 110.352 161.767 109.864 163.703 109.864C165.431 109.864 166.775 110.328 167.735 111.256C168.695 112.168 169.175 113.416 169.175 115C169.175 115.768 169.007 116.504 168.671 117.208C168.351 117.912 167.895 118.608 167.303 119.296C166.711 119.968 165.911 120.792 164.903 121.768L161.639 124.96H169.799V127H158.015V125.392Z" fill="#939393"/>
<line opacity="0.2" x1="209" y1="28" x2="209" y2="136" stroke="#5A5A5A" stroke-width="2" stroke-linecap="round"/>
<path d="M8 0H16V158H8V0Z" fill="url(#paint2_linear_502_271)"/>
<circle cx="12" cy="82" r="12" fill="white"/>
<defs>
<radialGradient id="paint0_radial_502_271" cx="0" cy="0" r="1" gradientUnits="userSpaceOnUse" gradientTransform="translate(347 119) rotate(-180) scale(111.5 371.667)">
<stop stop-color="#9152FE"/>
<stop offset="1" stop-color="#FB4FFF"/>
</radialGradient>
<radialGradient id="paint1_radial_502_271" cx="0" cy="0" r="1" gradientUnits="userSpaceOnUse" gradientTransform="translate(160.5 82) rotate(180) scale(55 37.6712)">
<stop stop-color="#5A5A5A"/>
<stop offset="1" stop-color="#5A5A5A"/>
</radialGradient>
<linearGradient id="paint2_linear_502_271" x1="12" y1="0" x2="12" y2="158" gradientUnits="userSpaceOnUse">
<stop stop-color="#9152FE"/>
<stop offset="1" stop-color="#FB4FFF"/>
</linearGradient>
</defs>
</svg>
