<svg width="72" height="72" viewBox="0 0 72 72" fill="none" xmlns="http://www.w3.org/2000/svg">
<circle cx="36" cy="36" r="30" fill="#1DA1F2"/>
<path fill-rule="evenodd" clip-rule="evenodd" d="M54 24.463C52.6765 25.0509 51.2522 25.4469 49.7583 25.6257C51.2834 24.7113 52.4545 23.2642 53.0053 21.54C51.5798 22.3871 49.9971 23.0003 48.316 23.3326C46.9685 21.8975 45.0474 21 42.9247 21C38.8462 21 35.5392 24.307 35.5392 28.3855C35.5392 28.9639 35.6052 29.5278 35.7312 30.069C29.5924 29.7618 24.1508 26.8208 20.5078 22.3523C19.8719 23.443 19.5083 24.7114 19.5083 26.0649C19.5083 28.6267 20.8102 30.8874 22.7937 32.2121C21.5818 32.1737 20.4442 31.8413 19.4471 31.2881V31.3805C19.4471 34.9599 21.9945 37.9441 25.3711 38.6244C24.7519 38.7924 24.0992 38.8836 23.426 38.8836C22.9497 38.8836 22.4865 38.8368 22.0353 38.7504C22.9749 41.6842 25.7035 43.8201 28.9349 43.8801C26.4078 45.8599 23.2232 47.0419 19.7627 47.0419C19.1651 47.0419 18.5772 47.0071 18 46.9375C21.2686 49.0325 25.1503 50.2564 29.3212 50.2564C42.9055 50.2564 50.3342 39.0024 50.3342 29.2434C50.3342 28.9231 50.3282 28.6039 50.3126 28.2883C51.7574 27.2444 53.0101 25.9437 54 24.463Z" fill="#15002E"/>
</svg>
